<svg width="88" height="88" viewBox="0 0 88 88" fill="none" xmlns="http://www.w3.org/2000/svg">
    <rect width="88" height="88" rx="10" fill="#F0E8FB"/>
    <path d="M65.2667 60.8669H63.0667V37.4002C63.0667 36.185 62.0819 35.2002 60.8667 35.2002H27.1333C25.9181 35.2002 24.9333 36.185 24.9333 37.4002V60.8669H22.7333C22.3287 60.8669 22 61.1956 22 61.6002C22 64.0267 23.9735 66.0002 26.4 66.0002H61.6C64.0265 66.0002 66 64.0267 66 61.6002C66 61.1956 65.6713 60.8669 65.2667 60.8669ZM60.1333 60.8669H45.3443C45.8164 60.8669 46.2001 60.4832 46.2001 60.0111V58.7254C46.2001 58.3362 46.4669 58.0091 46.8411 57.8991C47.5171 57.7004 48.1624 57.4313 48.769 57.0997C49.1108 56.9127 49.5296 56.9537 49.8045 57.2293L50.6125 58.0373C51.0502 58.475 51.5914 58.4743 51.926 58.1401L53.7403 56.3258C54.0745 55.9915 54.0745 55.4494 53.7403 55.1152L52.8308 54.2056C52.5558 53.93 52.5125 53.5103 52.6995 53.1678C53.0308 52.5605 53.3002 51.9153 53.4989 51.2399C53.6089 50.866 53.9337 50.5989 54.3233 50.5989H55.4659C56.0853 50.6002 56.4666 50.2165 56.4666 49.7444V47.0567C56.4666 46.5839 56.0829 46.2002 55.6109 46.2002H54.3252C53.936 46.2002 53.6089 45.9334 53.4989 45.5592C53.3002 44.8832 53.0311 44.2379 52.6994 43.6312C52.5125 43.2895 52.5534 42.8707 52.8291 42.5958L53.6371 41.7878C54.0748 41.3501 54.0741 40.8089 53.7399 40.4743L51.9255 38.66C51.5913 38.3258 51.0492 38.3258 50.7149 38.66L49.8054 39.5695C49.5304 39.8445 49.1101 39.8878 48.7676 39.7008C48.1613 39.3695 47.5151 39.1001 46.8397 38.9013C46.4854 38.7972 46.234 38.4967 46.2091 38.1336H60.1332L60.1333 60.8669ZM44 54.2669C40.7651 54.2669 38.1333 51.6351 38.1333 48.4002C38.1333 45.1653 40.7651 42.5335 44 42.5335C47.2349 42.5335 49.8667 45.1653 49.8667 48.4002C49.8667 51.6351 47.2349 54.2669 44 54.2669ZM27.8667 38.1335H41.7899C41.7634 38.4959 41.5136 38.7971 41.1594 38.9012C40.4834 39.1 39.8381 39.3691 39.2315 39.7007C38.8897 39.8876 38.471 39.8467 38.196 39.5711L37.388 38.7631C36.9503 38.3254 36.4091 38.326 36.0746 38.6603L34.2602 40.4746C33.926 40.8089 33.926 41.351 34.2602 41.6852L35.1697 42.5947C35.4447 42.8704 35.488 43.2901 35.301 43.6325C34.9697 44.2398 34.7003 44.8851 34.5016 45.5605C34.3912 45.9334 34.0665 46.2002 33.6772 46.2002H32.5346C31.9149 46.2002 31.5335 46.5839 31.5335 47.056V49.7437C31.5335 50.2165 31.9172 50.6002 32.3893 50.6002H33.6739C34.0632 50.6002 34.3903 50.867 34.5003 51.2412C34.699 51.9172 34.9681 52.5625 35.2997 53.1692C35.4867 53.5109 35.4457 53.9297 35.1701 54.2046L34.3621 55.0126C33.9244 55.4503 33.9251 55.9915 34.2593 56.3261L36.0736 58.1404C36.4079 58.4746 36.95 58.4746 37.2842 58.1404L38.1937 57.2309C38.4687 56.9559 38.8891 56.9127 39.2306 57.0996C39.8378 57.4309 40.4831 57.7003 41.1585 57.8991C41.5334 58.0091 41.8002 58.3361 41.8002 58.7254V60.01C41.8002 60.4831 42.1839 60.8668 42.6559 60.8668H27.8669L27.8667 38.1335ZM64.4411 62.3335C64.4241 62.398 64.3963 62.4576 64.376 62.5205C63.7042 63.3022 62.712 63.8002 61.6001 63.8002H26.4001C25.2883 63.8002 24.2961 63.3023 23.6253 62.5205C23.604 62.4576 23.5762 62.398 23.5592 62.3335H64.4411Z" fill="#A062ED"/>
    <path d="M43.2667 27.7626V30.8C43.2667 31.2046 43.5953 31.5333 44 31.5333C44.4046 31.5333 44.7333 31.2046 44.7333 30.8V27.7626C45.9947 27.4349 46.9333 26.2959 46.9333 24.9333C46.9333 23.3157 45.6176 22 44 22C42.3824 22 41.0667 23.3157 41.0667 24.9333C41.0667 26.2959 42.0052 27.4349 43.2667 27.7626Z" fill="#A062ED"/>
    <path d="M55.7333 33C56.138 33 56.4667 32.6713 56.4667 32.2667V25.6667H60.2374C60.5651 26.9281 61.7041 27.8667 63.0667 27.8667C64.6843 27.8667 66 26.5509 66 24.9333C66 23.3157 64.6843 22 63.0667 22C61.7041 22 60.5651 22.9386 60.2374 24.2H55.7333C55.3287 24.2 55 24.5287 55 24.9333V32.2667C55 32.6713 55.3287 33 55.7333 33Z" fill="#A062ED"/>
    <path d="M24.9333 27.8667C26.2959 27.8667 27.4349 26.9281 27.7626 25.6667H31.5333V32.2667C31.5333 32.6713 31.862 33 32.2667 33C32.6713 33 33 32.6713 33 32.2667V24.9333C33 24.5287 32.6713 24.2 32.2667 24.2H27.7626C27.4349 22.9386 26.2959 22 24.9333 22C23.3157 22 22 23.3157 22 24.9333C22 26.5509 23.3157 27.8667 24.9333 27.8667Z" fill="#A062ED"/>
</svg>
