<svg width="88" height="88" viewBox="0 0 88 88" fill="none" xmlns="http://www.w3.org/2000/svg">
    <rect width="88" height="88" rx="10" fill="#E7F0FF"/>
    <path d="M62.3918 50.8466C59.9063 48.3611 56.3463 47.6894 53.3231 48.697L39.284 34.658C40.3587 31.5008 39.5528 28.0078 37.1344 25.5892C34.8506 23.3053 31.6934 22.5662 28.8724 23.2383C28.3349 23.3725 28.1336 23.9771 28.5365 24.3804L32.97 28.8138L31.1562 32.2397L27.7974 33.9863L23.364 29.4854C22.961 29.0825 22.3564 29.2838 22.2219 29.8213C21.5502 32.8442 22.4235 35.934 24.5728 38.0833C27.0583 40.5688 30.5513 41.2405 33.6416 40.2329L47.6806 54.2719C46.606 57.4291 47.479 60.9893 49.8302 63.3407C52.0469 65.5575 55.2041 66.3637 58.0923 65.6917C58.6297 65.5574 58.8311 64.9528 58.4281 64.5496L53.9946 60.1161L55.7413 56.7573L59.1671 55.0107L63.6006 59.4441C64.0036 59.8471 64.6082 59.6458 64.7427 59.1083C65.4815 56.0859 64.6085 52.9959 62.3918 50.8462L62.3918 50.8466Z" fill="#000086"/>
    <path d="M42.978 51.4507C39.5521 51.1819 36.7979 48.3606 36.5295 45.0021L33.3052 41.7778C32.1631 42.0466 31.0884 42.1137 29.9464 42.0466L28.8717 42.2482C28.5359 42.3153 28.3342 42.5841 28.3342 42.9199V46.4129C28.3342 46.7488 28.5359 47.0175 28.8717 47.0846L30.551 47.3534C30.8868 48.9655 31.5585 50.5105 32.4989 51.921L31.5585 53.2644C31.3568 53.5332 31.4243 53.9361 31.6256 54.1377L34.1111 56.5558C34.3127 56.8245 34.7157 56.8245 34.9844 56.6229L36.3949 55.6153C37.8053 56.4886 39.3504 57.0932 40.9625 57.4291L41.2313 59.1083C41.2984 59.4442 41.5671 59.6458 41.903 59.6458H45.396C45.7318 59.6458 46.0006 59.3771 46.0677 59.1083V58.9067C45.7989 57.4962 45.866 56.0853 46.2019 54.6749L42.978 51.4507Z" fill="#000086"/>
    <path d="M44.0532 37.4787C47.4791 37.7474 50.1659 40.5687 50.4346 43.8601L53.726 47.0844C54.8681 46.8157 55.9427 46.7486 57.0848 46.8157L58.1594 46.614C58.4953 46.5469 58.6969 46.2782 58.6969 45.9423V42.4493C58.6969 42.1135 58.4282 41.8447 58.1594 41.7776L56.2115 41.4418C55.8756 39.8967 55.271 38.4188 54.3977 37.1425L55.4724 35.5975C55.674 35.3287 55.6066 34.9929 55.4052 34.7241L52.9201 32.3735C52.7184 32.1719 52.3155 32.1048 52.0467 32.3064L50.5017 33.3811C49.1583 32.5078 47.6133 31.9031 46.0682 31.5673L45.7995 29.8207C45.7324 29.4848 45.4636 29.2832 45.1278 29.2832H41.6348C41.2989 29.2832 41.0302 29.5519 40.9631 29.8207V29.9549C41.2318 31.3654 41.1647 32.7762 40.8289 34.1867L44.0532 37.4787Z" fill="#000086"/>
</svg>
