<svg width="88" height="88" viewBox="0 0 88 88" fill="none" xmlns="http://www.w3.org/2000/svg">
    <rect width="88" height="88" rx="10" fill="#F1F2FF"/>
    <path d="M54.2165 28.7574L57.6399 25.3341L73.6941 41.3883L73.3399 41.7424L70.979 40.2079C68.1459 38.3191 64.8407 37.7289 61.5354 38.3191C58.8203 38.9094 56.3414 40.3259 54.5707 42.4507C54.0985 41.8605 53.8624 41.1522 53.6263 40.4439L52.3278 36.6665C51.3835 33.9514 52.0917 30.8823 54.2165 28.7574ZM46.8977 42.0966L50.7932 43.3951C51.6195 43.6312 52.3278 44.1034 53.0361 44.5755C51.5015 46.3462 49.4947 47.6447 47.1338 48.1169C44.4188 48.7071 41.7037 48.1169 39.4608 46.5823L37.5721 45.2838L38.8706 43.9853C41.1135 41.8605 44.1827 41.1522 46.8977 42.0966ZM50.203 66.6501C49.8489 67.0042 49.2586 67.0042 48.9045 66.6501L32.4968 50.2424C32.3788 50.1244 32.2607 49.8883 32.2607 49.6522C32.2607 49.4161 32.3788 49.18 32.4968 49.062C32.851 48.7078 33.4412 48.7078 33.7953 49.062L50.0856 65.3522C50.5578 65.7064 50.5578 66.2966 50.2037 66.6507L50.203 66.6501ZM55.1609 60.1576L51.7376 63.5809L35.5647 47.408L35.9188 47.0538L38.2797 48.5884C40.4045 50.005 42.7655 50.7132 45.2444 50.7132C46.0707 50.7132 46.897 50.5952 47.7234 50.4771C50.4384 49.8869 52.9174 48.4704 54.6881 46.3456C55.1602 46.9358 55.3963 47.6441 55.6324 48.3523L56.9309 52.2478C57.9933 54.9629 57.2851 58.0321 55.1602 60.1569L55.1609 60.1576ZM62.4797 46.8184L58.5842 45.5199C57.7579 45.2838 57.0496 44.8116 56.3414 44.3395C57.876 42.5688 59.8827 41.2703 62.2436 40.7981C64.9587 40.2079 67.6737 40.7981 69.9166 42.3327L71.8053 43.6312L70.5068 44.9297C68.264 47.0545 65.1948 47.7628 62.4797 46.8184ZM76.8813 39.9718C76.5272 40.3259 75.9369 40.3259 75.5828 39.9718L59.1751 23.5641C58.821 23.21 58.821 22.6197 59.1751 22.2656C59.5293 21.9115 60.1195 21.9115 60.4736 22.2656L76.7639 38.5559C76.882 38.6739 77 38.91 77 39.1461C77 39.3822 77 39.7363 76.882 39.9724L76.8813 39.9718Z" fill="#0046B8"/>
    <path d="M18.0946 57.4434H31.0796C31.7879 57.4434 32.2601 56.9712 32.2601 56.263C32.2601 55.5547 31.7879 55.0825 31.0796 55.0825H18.0946C17.3863 55.0825 16.9141 55.5547 16.9141 56.263C16.9141 56.9712 17.3863 57.4434 18.0946 57.4434Z" fill="#0046B8"/>
    <path d="M22.8164 45.6387H29.8991C30.6074 45.6387 31.0796 45.1666 31.0796 44.4583C31.0796 43.75 30.6074 43.2778 29.8991 43.2778H22.8164C22.1081 43.2778 21.6359 43.75 21.6359 44.4583C21.6359 45.1666 22.1081 45.6387 22.8164 45.6387Z" fill="#0046B8"/>
    <path d="M16.3407 45.6387H23.4235C24.1317 45.6387 24.6039 45.1666 24.6039 44.4583C24.6039 43.75 24.1317 43.2778 23.4235 43.2778H16.3407C15.6325 43.2778 15.1603 43.75 15.1603 44.4583C15.1603 45.1666 15.6325 45.6387 16.3407 45.6387Z" fill="#0046B8"/>
    <path d="M11.1805 45.6387H18.2632C18.9715 45.6387 19.4436 45.1666 19.4436 44.4583C19.4436 43.75 18.9715 43.2778 18.2632 43.2778H11.1805C10.4722 43.2778 10 43.75 10 44.4583C10 45.1666 10.4722 45.6387 11.1805 45.6387Z" fill="#0046B8"/>
    <path d="M27.5382 33.8341H46.4255C47.1338 33.8341 47.6059 33.3619 47.6059 32.6536C47.6059 31.9453 47.1338 31.4731 46.4255 31.4731H27.5382C26.8299 31.4731 26.3577 31.9453 26.3577 32.6536C26.3577 33.3619 26.8299 33.8341 27.5382 33.8341Z" fill="#0046B8"/>
</svg>
