<svg width="25" height="24" viewBox="0 0 25 24" fill="none" xmlns="http://www.w3.org/2000/svg">
<path d="M22.4999 2C22.474 2.00002 14.8889 2.01367 8.5 10.0002C4.5 15.0004 2.5 22 2.5 22C3.85658 22 4.37543 22.279 4.84378 21.0036C5.36823 19.5755 6.18135 17.7301 7.12806 15.9218C7.25612 15.95 7.38031 15.9762 7.49993 16.0002C9.99993 16.5002 13.1666 17.0001 15.4999 15.0001C15.6421 14.8783 15.7826 14.754 15.9214 14.6273C15.1607 14.3298 14.4813 13.994 13.8979 13.6555C12.7616 12.9962 11.9335 12.2932 11.608 11.8032C11.4723 11.5989 11.5048 11.3263 11.6848 11.1597C11.8648 10.993 12.1391 10.9816 12.3324 11.1326C12.8826 11.5626 13.7869 11.9791 14.9419 12.3473C15.7148 12.5937 16.5817 12.8129 17.4976 12.9989C18.2598 12.1098 18.9544 11.1347 19.5737 10.0812C17.4208 9.40643 16.1211 8.42504 15.6283 7.81722C15.4738 7.62668 15.4804 7.35221 15.6438 7.16926C15.8072 6.98631 16.0791 6.94892 16.2859 7.08098C16.882 7.46183 17.7531 7.7904 18.8877 8.06431C19.3744 8.18182 19.9041 8.28799 20.4736 8.38377C21.3906 6.45839 22.0785 4.31798 22.4999 2Z" fill="#FFAB3A"/>
<path d="M16.7157 13.8563L16.717 13.855L16.7038 13.8521L16.7157 13.8563Z" fill="#FFAB3A"/>
</svg>
