<svg width="22" height="20" viewBox="0 0 22 20" fill="none" xmlns="http://www.w3.org/2000/svg">
    <path d="M11.6 0.45C11.2444 0.183333 10.7556 0.183334 10.4 0.45L1.65 7.0125C1.12144 7.40892 1.4018 8.25 2.0625 8.25C2.4422 8.25 2.75 8.55781 2.75 8.9375V18.25C2.75 18.8023 3.19772 19.25 3.75 19.25H7.25C7.80228 19.25 8.25 18.8023 8.25 18.25V14.75C8.25 14.1977 8.69772 13.75 9.25 13.75H12.75C13.3023 13.75 13.75 14.1977 13.75 14.75V18.25C13.75 18.8023 14.1977 19.25 14.75 19.25H18.25C18.8023 19.25 19.25 18.8023 19.25 18.25V8.84452C19.25 8.47395 19.5563 8.17669 19.9267 8.18781C20.5679 8.20704 20.8538 7.39033 20.3406 7.00547L11.6 0.45Z" fill="#0046B8"/>
</svg>
