<svg width="136" height="112" viewBox="0 0 136 112" fill="none" xmlns="http://www.w3.org/2000/svg">
<path d="M75.2669 48.7692C90.7679 64.4989 118.322 56.4307 122.742 34.7504C127.066 16.0538 110.02 -2.12539 91.0519 1.01237C68.3633 4.07071 58.9525 32.823 75.2669 48.7692ZM107.535 37.1302C107.462 42.0654 101.355 42.0654 101.278 37.1302C101.355 32.1974 107.462 32.1974 107.535 37.1302ZM100.051 15.6327C101.654 12.957 105.735 15.2598 104.214 18.039L90.33 42.0846C90.0058 42.6343 89.4793 43.0353 88.8632 43.2016C88.2471 43.368 87.5903 43.2867 87.0334 42.975C86.4814 42.6529 86.0784 42.1264 85.9118 41.5094C85.7451 40.8924 85.8283 40.2346 86.1431 39.6784L100.051 15.6327ZM85.9506 16.8359C90.0485 16.8984 90.0725 24.2904 85.9506 24.3626C81.8335 24.2904 81.8552 16.8984 85.9506 16.8335V16.8359ZM15.6881 53.8681H5.4375C2.79062 53.8681 0.625 56.0337 0.625 58.6782V94.82C0.625 97.4645 2.79062 99.6277 5.4375 99.6277H15.6881C19.6825 99.6277 22.9309 96.2854 22.9069 92.4138V60.6994C22.6662 56.9697 19.5622 53.844 15.6881 53.8681ZM11.7659 68.8012C8.58969 68.7531 8.58969 64.0393 11.7659 63.9912C14.9181 64.0393 14.9181 68.7531 11.7659 68.8012ZM129.961 85.8255L83.1834 107.977C78.4191 110.239 73.3178 111.344 68.2166 111.344C62.1287 111.344 56.0409 109.756 50.6269 106.579L32.0482 95.7585C31.2301 95.3013 30.3638 95.0607 29.4495 95.0607H27.4042C27.5967 94.1944 27.6929 93.3041 27.6929 92.4138V60.4082C27.6448 59.7345 27.5485 59.0607 27.4042 58.4351H45.2826C49.5417 58.4351 53.7045 59.6383 57.2898 61.9242L65.9041 67.3816C67.1313 68.1516 68.527 68.5606 69.9707 68.5606H87.3679C101.586 69.0419 101.584 89.5768 87.3679 90.0364H69.6844C66.5202 90.0942 66.525 94.7912 69.6844 94.8489H87.3703C95.2652 94.8489 101.906 88.9536 102.845 81.114C103.101 78.8361 102.854 76.5298 102.123 74.3573L123.274 68.2238C127.985 66.7656 133.25 69.5015 134.824 74.1648C135.611 76.365 135.55 78.7799 134.651 80.9369C133.752 83.094 132.08 84.838 129.963 85.8279L129.961 85.8255Z" fill="white"/>
</svg>
