<svg width="195" height="232" viewBox="0 0 195 232" fill="none" xmlns="http://www.w3.org/2000/svg">
    <path d="M43.2209 161.542V148.271H52.9276V149.466H44.6049V153.807H48.9463C50.5135 153.807 51.7016 154.129 52.5105 154.774C53.332 155.406 53.7428 156.341 53.7428 157.58C53.7428 158.856 53.3004 159.836 52.4157 160.518C51.5436 161.201 50.286 161.542 48.643 161.542H43.2209ZM44.6049 160.423H48.624C49.85 160.423 50.7726 160.19 51.3919 159.722C52.0239 159.242 52.3399 158.547 52.3399 157.637C52.3399 155.829 51.1012 154.926 48.624 154.926H44.6049V160.423ZM60.6358 161.637C59.5994 161.637 58.6894 161.422 57.9058 160.992C57.1221 160.55 56.5092 159.949 56.0668 159.191C55.6244 158.42 55.4033 157.542 55.4033 156.556C55.4033 155.57 55.6118 154.698 56.0289 153.94C56.4586 153.181 57.04 152.587 57.773 152.158C58.5187 151.715 59.3529 151.494 60.2755 151.494C61.2108 151.494 62.0387 151.709 62.7591 152.139C63.4921 152.556 64.0672 153.15 64.4843 153.921C64.9014 154.679 65.1099 155.557 65.1099 156.556C65.1099 156.619 65.1036 156.689 65.091 156.764C65.091 156.828 65.091 156.897 65.091 156.973H56.427V155.968H64.3705L63.8397 156.366C63.8397 155.646 63.6817 155.008 63.3658 154.452C63.0624 153.883 62.6453 153.44 62.1145 153.124C61.5837 152.809 60.9707 152.651 60.2755 152.651C59.593 152.651 58.9801 152.809 58.4366 153.124C57.8931 153.44 57.4697 153.883 57.1664 154.452C56.863 155.02 56.7114 155.671 56.7114 156.404V156.613C56.7114 157.371 56.8757 158.041 57.2043 158.622C57.5455 159.191 58.0132 159.64 58.6072 159.968C59.2139 160.284 59.9027 160.442 60.6737 160.442C61.2803 160.442 61.8428 160.335 62.361 160.12C62.8918 159.905 63.3468 159.577 63.726 159.134L64.4843 160.006C64.0419 160.537 63.4858 160.942 62.816 161.22C62.1587 161.498 61.432 161.637 60.6358 161.637ZM70.2005 161.656C71.0221 161.656 71.7614 161.529 72.4187 161.277C73.0885 161.024 73.6193 160.676 74.0112 160.234C74.403 159.779 74.5989 159.254 74.5989 158.66C74.5989 157.902 74.2766 157.302 73.632 156.859C73 156.417 72.1153 156.196 70.9778 156.196L70.9209 156.556C71.5655 156.556 72.1406 156.455 72.6462 156.253C73.1517 156.05 73.5562 155.766 73.8595 155.399C74.1628 155.033 74.3145 154.603 74.3145 154.11C74.3145 153.554 74.1249 153.08 73.7457 152.688C73.3666 152.284 72.8547 151.974 72.2101 151.759C71.5782 151.545 70.8641 151.45 70.0678 151.475C69.4864 151.475 68.905 151.557 68.3237 151.722C67.7549 151.873 67.1798 152.101 66.5984 152.404L66.9776 153.447C67.4958 153.181 68.0203 152.985 68.5512 152.859C69.082 152.72 69.5939 152.644 70.0868 152.632C70.6302 152.632 71.1168 152.695 71.5466 152.821C71.9763 152.948 72.3112 153.137 72.5514 153.39C72.8041 153.643 72.9305 153.946 72.9305 154.3C72.9305 154.629 72.8231 154.913 72.6082 155.153C72.406 155.393 72.1153 155.576 71.7362 155.703C71.357 155.829 70.9209 155.892 70.428 155.892H68.8166V156.878H70.5228C71.357 156.878 72.0142 157.03 72.4945 157.333C72.9748 157.624 73.2149 158.035 73.2149 158.566C73.2149 158.932 73.0885 159.261 72.8357 159.551C72.583 159.842 72.2291 160.07 71.7741 160.234C71.3191 160.398 70.7819 160.487 70.1626 160.499C69.5433 160.499 68.9177 160.411 68.2857 160.234C67.6538 160.044 67.0977 159.773 66.6174 159.419L66.1814 160.423C66.7248 160.841 67.3505 161.15 68.0582 161.352C68.766 161.555 69.4801 161.656 70.2005 161.656ZM81.4652 161.637C80.5046 161.637 79.6389 161.422 78.8679 160.992C78.1096 160.55 77.5092 159.949 77.0668 159.191C76.6245 158.42 76.4033 157.542 76.4033 156.556C76.4033 155.557 76.6245 154.679 77.0668 153.921C77.5092 153.162 78.1096 152.568 78.8679 152.139C79.6262 151.709 80.492 151.494 81.4652 151.494C82.451 151.494 83.3231 151.709 84.0814 152.139C84.8524 152.568 85.4528 153.162 85.8825 153.921C86.3248 154.679 86.546 155.557 86.546 156.556C86.546 157.542 86.3248 158.42 85.8825 159.191C85.4528 159.949 84.8524 160.55 84.0814 160.992C83.3105 161.422 82.4384 161.637 81.4652 161.637ZM81.4652 160.442C82.1856 160.442 82.8239 160.284 83.38 159.968C83.9361 159.64 84.3721 159.185 84.6881 158.603C85.0167 158.009 85.181 157.327 85.181 156.556C85.181 155.772 85.0167 155.09 84.6881 154.508C84.3721 153.927 83.9361 153.478 83.38 153.162C82.8239 152.834 82.1919 152.669 81.4841 152.669C80.7764 152.669 80.1444 152.834 79.5883 153.162C79.0322 153.478 78.5898 153.927 78.2612 154.508C77.9326 155.09 77.7683 155.772 77.7683 156.556C77.7683 157.327 77.9326 158.009 78.2612 158.603C78.5898 159.185 79.0322 159.64 79.5883 159.968C80.1444 160.284 80.77 160.442 81.4652 160.442ZM89.1384 161.542V151.589H98.0867V161.542H96.7407V152.404L97.082 152.764H90.1432L90.4845 152.404V161.542H89.1384ZM107.809 161.542V159.343L107.752 158.983V155.305C107.752 154.458 107.512 153.807 107.032 153.352C106.564 152.897 105.863 152.669 104.927 152.669C104.283 152.669 103.67 152.777 103.088 152.992C102.507 153.207 102.014 153.491 101.61 153.845L101.003 152.84C101.509 152.41 102.115 152.082 102.823 151.854C103.531 151.614 104.277 151.494 105.06 151.494C106.349 151.494 107.341 151.816 108.037 152.461C108.744 153.093 109.098 154.06 109.098 155.362V161.542H107.809ZM104.378 161.637C103.632 161.637 102.981 161.517 102.425 161.277C101.881 161.024 101.464 160.683 101.174 160.253C100.883 159.81 100.738 159.305 100.738 158.736C100.738 158.218 100.858 157.75 101.098 157.333C101.351 156.904 101.755 156.562 102.311 156.309C102.88 156.044 103.638 155.911 104.586 155.911H108.018V156.916H104.624C103.664 156.916 102.994 157.087 102.615 157.428C102.248 157.769 102.065 158.193 102.065 158.698C102.065 159.267 102.286 159.722 102.728 160.063C103.171 160.404 103.79 160.575 104.586 160.575C105.345 160.575 105.995 160.404 106.539 160.063C107.095 159.709 107.499 159.204 107.752 158.547L108.056 159.476C107.803 160.133 107.36 160.657 106.728 161.049C106.109 161.441 105.326 161.637 104.378 161.637ZM116.568 161.637C115.582 161.637 114.697 161.422 113.914 160.992C113.143 160.55 112.536 159.949 112.094 159.191C111.651 158.42 111.43 157.542 111.43 156.556C111.43 155.557 111.651 154.679 112.094 153.921C112.536 153.162 113.143 152.568 113.914 152.139C114.697 151.709 115.582 151.494 116.568 151.494C117.415 151.494 118.179 151.658 118.862 151.987C119.544 152.316 120.082 152.809 120.473 153.466L119.469 154.148C119.127 153.643 118.704 153.27 118.198 153.03C117.693 152.79 117.143 152.669 116.549 152.669C115.841 152.669 115.203 152.834 114.634 153.162C114.066 153.478 113.617 153.927 113.288 154.508C112.96 155.09 112.795 155.772 112.795 156.556C112.795 157.34 112.96 158.022 113.288 158.603C113.617 159.185 114.066 159.64 114.634 159.968C115.203 160.284 115.841 160.442 116.549 160.442C117.143 160.442 117.693 160.322 118.198 160.082C118.704 159.842 119.127 159.476 119.469 158.983L120.473 159.665C120.082 160.31 119.544 160.803 118.862 161.144C118.179 161.472 117.415 161.637 116.568 161.637ZM122.795 161.542V151.589H124.141V155.987H130.417V151.589H131.763V161.542H130.417V157.144H124.141V161.542H122.795ZM141.485 161.542V159.343L141.428 158.983V155.305C141.428 154.458 141.188 153.807 140.707 153.352C140.24 152.897 139.538 152.669 138.603 152.669C137.958 152.669 137.345 152.777 136.764 152.992C136.183 153.207 135.69 153.491 135.285 153.845L134.679 152.84C135.184 152.41 135.791 152.082 136.499 151.854C137.206 151.614 137.952 151.494 138.736 151.494C140.025 151.494 141.017 151.816 141.712 152.461C142.42 153.093 142.774 154.06 142.774 155.362V161.542H141.485ZM138.053 161.637C137.307 161.637 136.657 161.517 136.1 161.277C135.557 161.024 135.14 160.683 134.849 160.253C134.558 159.81 134.413 159.305 134.413 158.736C134.413 158.218 134.533 157.75 134.773 157.333C135.026 156.904 135.431 156.562 135.987 156.309C136.555 156.044 137.314 155.911 138.262 155.911H141.693V156.916H138.3C137.339 156.916 136.669 157.087 136.29 157.428C135.923 157.769 135.74 158.193 135.74 158.698C135.74 159.267 135.961 159.722 136.404 160.063C136.846 160.404 137.465 160.575 138.262 160.575C139.02 160.575 139.671 160.404 140.214 160.063C140.77 159.709 141.175 159.204 141.428 158.547L141.731 159.476C141.478 160.133 141.036 160.657 140.404 161.049C139.785 161.441 139.001 161.637 138.053 161.637ZM152.5 161.542V157.959L152.746 158.243H149.371C148.095 158.243 147.096 157.965 146.376 157.409C145.656 156.853 145.295 156.044 145.295 154.982C145.295 153.845 145.681 152.998 146.452 152.442C147.223 151.873 148.253 151.589 149.542 151.589H153.732V161.542H152.5ZM145.22 161.542L147.95 157.712H149.352L146.679 161.542H145.22ZM152.5 157.561V152.366L152.746 152.764H149.58C148.657 152.764 147.937 152.941 147.419 153.295C146.913 153.649 146.66 154.224 146.66 155.02C146.66 156.499 147.602 157.238 149.485 157.238H152.746L152.5 157.561ZM68.6064 184.637C67.6206 184.637 66.7358 184.422 65.9522 183.992C65.1813 183.55 64.5746 182.949 64.1322 182.191C63.6899 181.42 63.4687 180.542 63.4687 179.556C63.4687 178.557 63.6899 177.679 64.1322 176.921C64.5746 176.162 65.1813 175.568 65.9522 175.139C66.7358 174.709 67.6206 174.494 68.6064 174.494C69.4532 174.494 70.2179 174.658 70.9004 174.987C71.5829 175.316 72.12 175.809 72.5118 176.466L71.507 177.148C71.1658 176.643 70.7424 176.27 70.2368 176.03C69.7313 175.79 69.1815 175.669 68.5874 175.669C67.8797 175.669 67.2414 175.834 66.6726 176.162C66.1039 176.478 65.6552 176.927 65.3266 177.508C64.998 178.09 64.8337 178.772 64.8337 179.556C64.8337 180.34 64.998 181.022 65.3266 181.603C65.6552 182.185 66.1039 182.64 66.6726 182.968C67.2414 183.284 67.8797 183.442 68.5874 183.442C69.1815 183.442 69.7313 183.322 70.2368 183.082C70.7424 182.842 71.1658 182.476 71.507 181.983L72.5118 182.665C72.12 183.31 71.5829 183.803 70.9004 184.144C70.2179 184.472 69.4532 184.637 68.6064 184.637ZM81.307 183.897V175.764H76.5105L76.3968 177.982C76.3715 178.652 76.3273 179.309 76.2641 179.954C76.2135 180.599 76.1187 181.193 75.9797 181.736C75.8533 182.267 75.6701 182.703 75.4299 183.044C75.1898 183.373 74.8801 183.562 74.501 183.613L73.1549 183.367C73.5467 183.379 73.869 183.24 74.1218 182.949C74.3746 182.646 74.5705 182.235 74.7095 181.717C74.8485 181.199 74.9496 180.611 75.0128 179.954C75.076 179.284 75.1266 178.602 75.1645 177.907L75.2972 174.589H82.653V183.897H81.307ZM72.7378 186.95V183.367H84.2076V186.95H82.9374V184.542H74.008V186.95H72.7378ZM90.8121 184.637C89.7757 184.637 88.8657 184.422 88.0821 183.992C87.2985 183.55 86.6855 182.949 86.2431 182.191C85.8008 181.42 85.5796 180.542 85.5796 179.556C85.5796 178.57 85.7881 177.698 86.2052 176.94C86.6349 176.181 87.2163 175.587 87.9494 175.158C88.6951 174.715 89.5292 174.494 90.4519 174.494C91.3872 174.494 92.215 174.709 92.9354 175.139C93.6685 175.556 94.2435 176.15 94.6606 176.921C95.0777 177.679 95.2863 178.557 95.2863 179.556C95.2863 179.619 95.2799 179.689 95.2673 179.764C95.2673 179.828 95.2673 179.897 95.2673 179.973H86.6033V178.968H94.5469L94.016 179.366C94.016 178.646 93.8581 178.008 93.5421 177.452C93.2388 176.883 92.8217 176.44 92.2908 176.124C91.76 175.809 91.147 175.651 90.4519 175.651C89.7694 175.651 89.1564 175.809 88.6129 176.124C88.0694 176.44 87.646 176.883 87.3427 177.452C87.0394 178.02 86.8877 178.671 86.8877 179.404V179.613C86.8877 180.371 87.052 181.041 87.3806 181.622C87.7219 182.191 88.1895 182.64 88.7835 182.968C89.3902 183.284 90.079 183.442 90.85 183.442C91.4567 183.442 92.0191 183.335 92.5373 183.12C93.0681 182.905 93.5231 182.577 93.9023 182.134L94.6606 183.006C94.2183 183.537 93.6622 183.942 92.9923 184.22C92.3351 184.498 91.6083 184.637 90.8121 184.637ZM95.9578 184.523L96.0526 183.367C96.141 183.379 96.2232 183.398 96.299 183.423C96.3875 183.436 96.4633 183.442 96.5265 183.442C96.931 183.442 97.2533 183.291 97.4934 182.987C97.7462 182.684 97.9358 182.28 98.0622 181.774C98.1885 181.269 98.277 180.7 98.3276 180.068C98.3781 179.423 98.4224 178.779 98.4603 178.134L98.6309 174.589H105.93V184.542H104.584V175.366L104.925 175.764H99.503L99.8253 175.347L99.6736 178.229C99.6357 179.088 99.5662 179.91 99.4651 180.693C99.3766 181.477 99.2313 182.166 99.029 182.76C98.8394 183.354 98.574 183.822 98.2328 184.163C97.8915 184.491 97.4555 184.656 96.9247 184.656C96.773 184.656 96.615 184.643 96.4507 184.618C96.299 184.593 96.1347 184.561 95.9578 184.523ZM116.771 184.542L112.676 179.613L113.794 178.949L118.363 184.542H116.771ZM109.472 184.542V174.589H110.818V184.542H109.472ZM110.401 180.106V178.949H113.605V180.106H110.401ZM113.908 179.708L112.657 179.518L116.619 174.589H118.079L113.908 179.708ZM126.199 184.542V182.343L126.142 181.983V178.305C126.142 177.458 125.902 176.807 125.421 176.352C124.954 175.897 124.252 175.669 123.317 175.669C122.672 175.669 122.059 175.777 121.478 175.992C120.897 176.207 120.404 176.491 119.999 176.845L119.393 175.84C119.898 175.41 120.505 175.082 121.213 174.854C121.92 174.614 122.666 174.494 123.45 174.494C124.739 174.494 125.731 174.816 126.426 175.461C127.134 176.093 127.488 177.06 127.488 178.362V184.542H126.199ZM122.767 184.637C122.022 184.637 121.371 184.517 120.815 184.277C120.271 184.024 119.854 183.683 119.563 183.253C119.273 182.81 119.127 182.305 119.127 181.736C119.127 181.218 119.247 180.75 119.487 180.333C119.74 179.904 120.145 179.562 120.701 179.309C121.27 179.044 122.028 178.911 122.976 178.911H126.407V179.916H123.014C122.053 179.916 121.383 180.087 121.004 180.428C120.638 180.769 120.454 181.193 120.454 181.698C120.454 182.267 120.675 182.722 121.118 183.063C121.56 183.404 122.18 183.575 122.976 183.575C123.734 183.575 124.385 183.404 124.928 183.063C125.485 182.709 125.889 182.204 126.142 181.547L126.445 182.476C126.192 183.133 125.75 183.657 125.118 184.049C124.499 184.441 123.715 184.637 122.767 184.637Z" fill="black" fill-opacity="0.5"/>
    <g opacity="0.5">
        <path d="M110.632 36.3477L94.3561 29.8373C94.2008 29.7756 94.0277 29.7756 93.8724 29.8373L77.5964 36.3477C77.4757 36.3961 77.3722 36.4796 77.2994 36.5874C77.2265 36.6952 77.1876 36.8224 77.1876 36.9525V48.5091C77.1755 53.6118 78.7912 58.5853 81.7996 62.7068C84.808 66.8284 89.0525 69.8831 93.916 71.4269C94.0452 71.4681 94.184 71.4681 94.3132 71.4269C99.1768 69.883 103.421 66.8282 106.43 62.7066C109.438 58.5849 111.054 53.6112 111.042 48.5084V36.9525C111.042 36.8223 111.003 36.695 110.93 36.5872C110.857 36.4794 110.753 36.396 110.632 36.3477ZM109.74 48.5091C109.751 53.3 108.245 57.9715 105.438 61.8541C102.631 65.7366 98.6675 68.631 94.1146 70.1223C89.5616 68.6309 85.5976 65.7365 82.7907 61.8538C79.9838 57.9711 78.4782 53.2994 78.4896 48.5084V37.3932L94.1146 31.1432L109.74 37.3932V48.5091Z" fill="#009B78"/>
        <path d="M93.8724 32.6426L80.2006 38.1113C80.0799 38.1597 79.9765 38.2431 79.9036 38.3508C79.8307 38.4584 79.7918 38.5855 79.7917 38.7155V48.5091C79.7995 52.9075 81.1553 57.1978 83.6764 60.802C86.1976 64.4062 89.7629 67.151 93.892 68.6665C94.0358 68.719 94.1935 68.719 94.3373 68.6665C98.4664 67.1509 102.032 64.406 104.553 60.8017C107.074 57.1974 108.43 52.9069 108.437 48.5084V38.7155C108.438 38.5853 108.399 38.4581 108.326 38.3502C108.253 38.2424 108.149 38.159 108.028 38.1107L94.3561 32.6419C94.2008 32.5803 94.0278 32.5809 93.8724 32.6426ZM107.135 39.1556V48.5084C107.128 52.5993 105.88 56.5917 103.555 59.9577C101.23 63.3238 97.938 65.9049 94.1146 67.3599C90.2913 65.9048 86.9995 63.3237 84.6746 59.9576C82.3497 56.5916 81.1011 52.5993 81.0938 48.5084V39.1562L94.1146 33.9479L107.135 39.1556Z" fill="#009B78"/>
        <path d="M90.0177 48.2102C89.8956 48.0882 89.7301 48.0196 89.5574 48.0196C89.3848 48.0196 89.2192 48.0882 89.0971 48.2102L87.144 50.1634C87.022 50.2854 86.9534 50.451 86.9534 50.6236C86.9534 50.7963 87.022 50.9618 87.144 51.0839L91.7013 55.6412C91.8234 55.7633 91.989 55.8318 92.1616 55.8318C92.3342 55.8318 92.4998 55.7633 92.6219 55.6412L101.085 47.1777C101.207 47.0556 101.276 46.89 101.276 46.7174C101.276 46.5448 101.207 46.3792 101.085 46.2571L99.1323 44.304C99.0102 44.182 98.8446 44.1134 98.672 44.1134C98.4993 44.1134 98.3338 44.182 98.2117 44.304L92.1616 50.3541L90.0177 48.2102ZM98.672 45.6849L99.7045 46.7174L92.1616 54.2603L88.5249 50.6236L89.5574 49.5911L91.7013 51.735C91.8234 51.857 91.989 51.9256 92.1616 51.9256C92.3342 51.9256 92.4998 51.857 92.6219 51.735L98.672 45.6849ZM86.907 38.9362C86.8426 38.7761 86.7174 38.648 86.5588 38.5801C86.4001 38.5121 86.221 38.5098 86.0607 38.5736L82.8055 39.8756C82.6846 39.924 82.581 40.0075 82.5081 40.1153C82.4351 40.2231 82.396 40.3503 82.396 40.4805V43.9505C82.396 44.1232 82.4646 44.2888 82.5867 44.4108C82.7088 44.5329 82.8744 44.6015 83.047 44.6015C83.2197 44.6015 83.3853 44.5329 83.5074 44.4108C83.6295 44.2888 83.6981 44.1232 83.6981 43.9505V40.9212L86.5444 39.7832C86.6238 39.7514 86.6962 39.7043 86.7573 39.6446C86.8185 39.5849 86.8674 39.5137 86.901 39.4351C86.9347 39.3565 86.9526 39.2721 86.9536 39.1866C86.9546 39.1011 86.9388 39.0156 86.907 38.9362ZM100.138 60.1783C98.4078 62.1234 96.2625 63.6549 93.8608 64.6594C93.7821 64.6927 93.7107 64.7413 93.6507 64.8022C93.5907 64.8631 93.5433 64.9353 93.5112 65.0146C93.4791 65.0938 93.4629 65.1786 93.4636 65.2641C93.4642 65.3496 93.4818 65.4342 93.5151 65.5129C93.5484 65.5916 93.597 65.663 93.6579 65.723C93.7188 65.783 93.791 65.8304 93.8703 65.8625C93.9495 65.8946 94.0343 65.9108 94.1198 65.9101C94.2053 65.9095 94.2899 65.892 94.3686 65.8586C96.9487 64.7786 99.2533 63.1329 101.112 61.0429C101.227 60.9137 101.285 60.7443 101.275 60.5719C101.265 60.3995 101.187 60.2383 101.057 60.1236C100.928 60.009 100.759 59.9503 100.586 59.9606C100.414 59.9708 100.253 60.0491 100.138 60.1783Z" fill="#009B78"/>
    </g>
    <path d="M185.575 37.3814L185.575 37.3816C186.059 37.5747 186.474 37.9084 186.766 38.3394C187.057 38.7703 187.213 39.2788 187.213 39.7993V39.7996V104.022V104.024C187.28 132.167 178.366 159.597 161.767 182.329C145.167 205.06 121.748 221.908 94.9115 230.423L94.9102 230.423C94.3926 230.588 93.8365 230.588 93.319 230.423L93.3177 230.423C66.4823 221.908 43.0629 205.061 26.4635 182.33C9.86404 159.599 0.949685 132.17 1.016 104.028V104.025V39.7996V39.7995C1.01595 39.2793 1.17168 38.771 1.4632 38.3399C1.7545 37.9092 2.16808 37.5753 2.65081 37.3813C2.65117 37.3812 2.65153 37.3811 2.65189 37.3809L93.1426 1.20105C93.1429 1.20091 93.1433 1.20077 93.1436 1.20063C93.7661 0.953958 94.4594 0.953958 95.0819 1.20063C95.0823 1.20077 95.0826 1.20091 95.083 1.20105L185.575 37.3814ZM93.7986 225.105L94.1146 225.209L94.4306 225.105C119.949 216.751 142.165 200.536 157.897 178.785C173.629 157.034 182.068 130.863 182.005 104.023V42.2491V41.5614L181.366 41.3061L94.4916 6.57194L94.1146 6.42119L93.7375 6.57194L6.86288 41.3061L6.2243 41.5614V42.2491V104.02C6.16046 130.86 14.5991 157.032 30.3308 178.783C46.0627 200.535 68.2801 216.751 93.7986 225.105Z" fill="#009B78" fill-opacity="0.5" stroke="white" stroke-width="2.03125"/>
    <path d="M130.699 101.156L116.607 80.2562C116.544 80.1643 116.464 80.0861 116.37 80.0265C116.277 79.9669 116.172 79.9272 116.062 79.9097C115.839 79.8684 115.617 79.9262 115.435 80.05L105.716 87.1127L100.551 87.0797C98.2899 87.0714 96.0292 87.5912 93.9912 88.6061L81.2354 87.8552L72.0523 82.2694C71.8625 82.1539 71.6397 82.1209 71.4252 82.1704C71.2107 82.2199 71.0292 82.3602 70.9137 82.5417L58.3477 103.301C58.1166 103.689 58.2322 104.192 58.6199 104.431L67.8774 110.157L71.2024 112.311L70.2784 113.433C68.851 115.165 69.1067 117.74 70.8394 119.167C71.5985 119.786 72.5143 120.091 73.4219 120.091C73.5374 120.091 73.6529 120.083 73.7767 120.075C73.4219 121.543 73.8922 123.152 75.1298 124.175C75.7213 124.66 76.4372 124.969 77.1958 125.067C77.9544 125.165 78.7252 125.047 79.4203 124.728C79.5358 125.784 80.0473 126.741 80.8724 127.418C81.6067 128.02 82.5143 128.342 83.4467 128.342C83.5787 128.342 83.7189 128.342 83.851 128.326C84.3834 128.275 84.9005 128.119 85.3722 127.867C85.8439 127.615 86.2607 127.272 86.5985 126.857L87.1348 126.205C87.341 127.055 87.8031 127.814 88.4879 128.375C89.247 128.994 90.1628 129.299 91.0704 129.299C91.978 129.299 92.8939 128.986 93.6364 128.392L94.5688 129.134C95.0321 129.48 95.5596 129.73 96.1205 129.87C96.6814 130.011 97.2645 130.038 97.8361 129.951C98.9995 129.778 100.023 129.167 100.724 128.226C101.316 127.421 101.613 126.436 101.565 125.438L101.673 125.52C102.457 126.106 103.381 126.387 104.288 126.387C104.975 126.389 105.652 126.229 106.266 125.921C106.879 125.613 107.412 125.165 107.82 124.613C108.546 123.631 108.801 122.443 108.636 121.321C108.958 121.395 109.288 121.444 109.618 121.444C110.305 121.447 110.982 121.287 111.596 120.979C112.209 120.671 112.742 120.223 113.15 119.67C114.065 118.441 114.23 116.882 113.744 115.537C113.925 115.537 114.107 115.52 114.288 115.495C115.437 115.327 116.472 114.711 117.168 113.782C117.864 112.853 118.163 111.686 118.001 110.537L120.196 108.928L130.46 102.302C130.65 102.179 130.773 101.989 130.823 101.774C130.864 101.56 130.823 101.329 130.699 101.147V101.156ZM71.8955 84.1094L79.8411 88.9443L68.0341 108.326L60.1794 103.466L71.8873 84.1176L71.8955 84.1094ZM71.8955 117.896C71.4001 117.488 71.087 116.9 71.0251 116.261C70.9632 115.622 71.1576 114.985 71.5655 114.489L74.5605 110.842C74.9681 110.346 75.5556 110.032 76.1944 109.969C76.8332 109.905 77.471 110.098 77.9681 110.504C78.464 110.911 78.7781 111.499 78.8415 112.138C78.905 112.776 78.7125 113.414 78.3064 113.911L75.9137 116.824L75.3114 117.558C74.9031 118.054 74.3149 118.367 73.6759 118.429C73.0369 118.49 72.3995 118.296 71.9038 117.888L71.8955 117.896ZM76.1859 122.905C75.6905 122.496 75.3774 121.908 75.3155 121.269C75.2536 120.63 75.448 119.993 75.8559 119.497L76.582 118.614L77.1843 117.88L81.2024 112.995C81.615 112.492 82.1925 112.187 82.8361 112.121C82.9186 112.121 82.9929 112.113 83.0754 112.113C83.6364 112.113 84.1727 112.302 84.61 112.665C85.1059 113.073 85.42 113.661 85.4834 114.299C85.5469 114.938 85.3544 115.576 84.9483 116.073L79.6018 122.583C79.1935 123.078 78.6053 123.391 77.9663 123.453C77.3273 123.515 76.6899 123.321 76.1942 122.913L76.1859 122.905ZM85.3361 125.809C84.9236 126.312 84.346 126.618 83.7024 126.684C83.0589 126.741 82.4318 126.552 81.9285 126.147C81.4326 125.74 81.1185 125.152 81.0551 124.513C80.9917 123.875 81.1841 123.237 81.5902 122.74L87.0193 116.139C87.4268 115.643 88.0144 115.329 88.6531 115.266C89.2919 115.202 89.9298 115.395 90.4269 115.801C90.9223 116.209 91.2354 116.797 91.2973 117.436C91.3592 118.075 91.1648 118.713 90.7569 119.208L89.5358 120.702L87.9351 122.649L85.3361 125.809ZM89.544 127.104C89.0486 126.696 88.7355 126.108 88.6736 125.469C88.6117 124.83 88.8061 124.193 89.214 123.697L90.8146 121.75C91.2272 121.255 91.8047 120.941 92.4483 120.875C92.5308 120.875 92.6051 120.867 92.6876 120.867C93.2486 120.867 93.7849 121.057 94.2222 121.42C94.7182 121.827 95.0322 122.415 95.0957 123.053C95.1591 123.692 94.9666 124.33 94.5605 124.827L92.9599 126.774C92.5516 127.27 91.9634 127.583 91.3244 127.645C90.6854 127.707 90.048 127.512 89.5523 127.104H89.544ZM115.848 112.789C115.41 113.375 114.767 113.763 114.049 113.87C113.692 113.924 113.328 113.907 112.979 113.819C112.629 113.731 112.3 113.575 112.011 113.359L105.716 108.672C105.534 108.54 105.311 108.491 105.105 108.515C104.899 108.548 104.701 108.656 104.561 108.837C104.496 108.924 104.448 109.023 104.422 109.128C104.395 109.234 104.39 109.343 104.406 109.451C104.422 109.558 104.46 109.661 104.516 109.754C104.572 109.847 104.646 109.928 104.734 109.992L111.268 114.852C112.481 115.751 112.737 117.476 111.838 118.689C110.938 119.901 109.214 120.157 108.001 119.25L106.937 118.458L101.549 114.456C101.462 114.391 101.363 114.344 101.258 114.317C101.152 114.291 101.043 114.285 100.935 114.302C100.828 114.318 100.725 114.355 100.632 114.411C100.539 114.467 100.458 114.541 100.394 114.629C100.329 114.716 100.282 114.815 100.255 114.921C100.229 115.026 100.223 115.135 100.24 115.243C100.256 115.35 100.293 115.453 100.349 115.546C100.405 115.639 100.479 115.72 100.567 115.784L105.955 119.786C107.168 120.694 107.424 122.41 106.516 123.623C106.301 123.912 106.031 124.155 105.722 124.34C105.413 124.525 105.07 124.647 104.714 124.699C104.358 124.751 103.994 124.732 103.645 124.644C103.296 124.555 102.968 124.399 102.679 124.184L99.841 122.071L98.6942 121.213C98.5127 121.081 98.2899 121.032 98.0836 121.057C98.0341 121.057 97.9846 121.09 97.9351 121.106C97.8773 121.131 97.8113 121.147 97.7618 121.18C97.6793 121.23 97.6051 121.296 97.5473 121.378C97.4401 121.519 97.4071 121.684 97.3988 121.849C97.3988 121.898 97.3823 121.939 97.3988 121.989C97.3988 122.005 97.4153 122.022 97.4153 122.038C97.4318 122.121 97.4566 122.212 97.5061 122.286C97.5638 122.377 97.6298 122.459 97.7288 122.533L98.8839 123.392C99.4698 123.829 99.8493 124.464 99.9566 125.19C100.064 125.916 99.8823 126.642 99.445 127.228C99.0077 127.814 98.3641 128.202 97.6463 128.309C97.2947 128.363 96.9358 128.348 96.5903 128.263C96.2448 128.178 95.9195 128.025 95.6331 127.814L94.8163 127.162L95.8806 125.859C96.5737 125.017 96.8955 123.961 96.7882 122.88C96.681 121.799 96.1612 120.817 95.3196 120.132C94.5688 119.514 93.6447 119.217 92.6793 119.225C93.3476 117.608 92.9434 115.685 91.5242 114.514C90.9229 114.014 90.1892 113.701 89.4126 113.611C88.6361 113.522 87.8503 113.661 87.1513 114.01C87.0236 112.959 86.4894 111.998 85.6629 111.335C84.8364 110.672 83.7833 110.359 82.7288 110.462C81.8625 110.545 81.0704 110.908 80.4351 111.469C80.2371 110.594 79.775 109.802 79.0655 109.225C77.3328 107.797 74.7586 108.053 73.3312 109.786L72.3081 111.032L69.4863 109.192L81.4747 89.5054L91.3922 90.0912L81.4087 95.8585C80.4021 96.4361 79.676 97.3767 79.379 98.507C79.0737 99.6292 79.2305 100.809 79.8163 101.816C80.5919 103.161 82.044 104.002 83.5952 104.002C84.3543 104.002 85.1051 103.796 85.7734 103.416L97.9764 96.3701L107.935 103.441L115.336 108.944C115.922 109.382 116.31 110.025 116.417 110.743C116.524 111.461 116.343 112.195 115.905 112.781L115.848 112.789ZM117.424 108.911C117.127 108.416 116.739 107.979 116.26 107.624L108.843 102.104H108.834L98.4384 94.7282C98.31 94.6352 98.1573 94.5818 97.999 94.5745C97.8407 94.5672 97.6837 94.6063 97.5473 94.6869L84.8823 101.997C84.4698 102.236 83.9995 102.36 83.5292 102.36C83.0523 102.359 82.5841 102.233 82.1715 101.994C81.7588 101.755 81.4161 101.412 81.1777 100.999C80.8147 100.372 80.7156 99.6457 80.9054 98.9443C81.0952 98.243 81.5407 97.6655 82.1678 97.3024L94.049 90.446C96.0127 89.3074 98.2651 88.7546 100.526 88.7381L105.526 88.7711L118.587 108.07L117.424 108.92V108.911ZM119.948 107.121L107.102 88.1358L115.707 81.8899L128.851 101.378L119.948 107.121Z" fill="black" fill-opacity="0.3"/>
</svg>
