<svg width="189" height="232" viewBox="0 0 189 232" fill="none" xmlns="http://www.w3.org/2000/svg">
    <path d="M63.0617 161.542L68.5028 154.186V155.266L63.384 148.271H64.9955L69.299 154.11L68.6734 154.129L72.9769 148.271H74.4936L69.4317 155.172V154.186L74.8538 161.542H73.2234L68.6355 155.304H69.2232L64.6732 161.542H63.0617ZM82.7144 161.542V159.343L82.6575 158.982V155.304C82.6575 154.458 82.4174 153.807 81.9371 153.352C81.4695 152.897 80.768 152.669 79.8327 152.669C79.1881 152.669 78.5752 152.777 77.9938 152.991C77.4124 153.206 76.9195 153.491 76.515 153.845L75.9084 152.84C76.4139 152.41 77.0206 152.081 77.7284 151.854C78.4361 151.614 79.1818 151.494 79.9654 151.494C81.2546 151.494 82.2468 151.816 82.9419 152.461C83.6497 153.093 84.0036 154.059 84.0036 155.361V161.542H82.7144ZM79.2829 161.636C78.5372 161.636 77.8863 161.516 77.3302 161.276C76.7868 161.023 76.3697 160.682 76.079 160.253C75.7883 159.81 75.6429 159.305 75.6429 158.736C75.6429 158.218 75.763 157.75 76.0031 157.333C76.2559 156.903 76.6604 156.562 77.2165 156.309C77.7852 156.044 78.5436 155.911 79.4915 155.911H82.9229V156.916H79.5294C78.5688 156.916 77.899 157.086 77.5198 157.428C77.1533 157.769 76.97 158.192 76.97 158.698C76.97 159.267 77.1912 159.722 77.6336 160.063C78.0759 160.404 78.6952 160.575 79.4915 160.575C80.2498 160.575 80.9007 160.404 81.4442 160.063C82.0003 159.709 82.4047 159.203 82.6575 158.546L82.9609 159.475C82.7081 160.132 82.2657 160.657 81.6338 161.049C81.0145 161.441 80.2309 161.636 79.2829 161.636ZM89.7494 161.542L85.3321 151.589H86.735L90.7921 160.821H90.1286L94.2425 151.589H95.5696L91.1334 161.542H89.7494ZM97.408 161.542V150.337C97.408 149.453 97.668 148.738 98.186 148.195C98.704 147.652 99.45 147.38 100.423 147.38C100.802 147.38 101.168 147.43 101.522 147.531C101.876 147.633 102.173 147.791 102.413 148.005L101.958 149.01C101.769 148.846 101.548 148.726 101.295 148.65C101.042 148.562 100.77 148.517 100.48 148.517C99.911 148.517 99.475 148.675 99.172 148.991C98.868 149.307 98.717 149.775 98.717 150.394V151.911L98.754 152.536V161.542H97.408ZM95.6263 152.707V151.589H101.788V152.707H95.6263ZM105.994 161.636C105.173 161.636 104.395 161.523 103.662 161.295C102.929 161.055 102.354 160.758 101.937 160.404L102.544 159.343C102.948 159.646 103.466 159.911 104.098 160.139C104.73 160.354 105.394 160.461 106.089 160.461C107.037 160.461 107.719 160.316 108.136 160.025C108.553 159.722 108.762 159.324 108.762 158.831C108.762 158.464 108.642 158.18 108.402 157.978C108.174 157.763 107.871 157.605 107.492 157.504C107.113 157.39 106.689 157.295 106.222 157.219C105.754 157.143 105.286 157.055 104.819 156.954C104.364 156.853 103.947 156.707 103.567 156.518C103.188 156.316 102.879 156.044 102.638 155.703C102.411 155.361 102.297 154.906 102.297 154.338C102.297 153.794 102.449 153.307 102.752 152.878C103.055 152.448 103.498 152.113 104.079 151.873C104.673 151.62 105.394 151.494 106.24 151.494C106.885 151.494 107.53 151.582 108.174 151.759C108.819 151.923 109.35 152.145 109.767 152.423L109.179 153.503C108.737 153.2 108.263 152.985 107.757 152.859C107.252 152.72 106.746 152.65 106.24 152.65C105.343 152.65 104.68 152.808 104.25 153.124C103.833 153.428 103.624 153.819 103.624 154.3C103.624 154.679 103.738 154.976 103.965 155.191C104.206 155.406 104.515 155.576 104.894 155.703C105.286 155.816 105.71 155.911 106.165 155.987C106.632 156.063 107.094 156.158 107.549 156.271C108.016 156.372 108.44 156.518 108.819 156.707C109.211 156.884 109.52 157.143 109.748 157.485C109.988 157.813 110.108 158.249 110.108 158.793C110.108 159.374 109.944 159.88 109.615 160.309C109.299 160.726 108.831 161.055 108.212 161.295C107.605 161.523 106.866 161.636 105.994 161.636ZM112.294 161.542V151.589H113.64V161.542H112.294ZM112.976 149.389C112.698 149.389 112.464 149.295 112.275 149.105C112.085 148.915 111.99 148.688 111.99 148.423C111.99 148.157 112.085 147.936 112.275 147.759C112.464 147.569 112.698 147.475 112.976 147.475C113.254 147.475 113.488 147.563 113.677 147.74C113.867 147.917 113.962 148.138 113.962 148.404C113.962 148.682 113.867 148.915 113.677 149.105C113.501 149.295 113.267 149.389 112.976 149.389ZM116.02 161.542V160.651L122.655 152.252L122.94 152.707H116.134V151.589H124.001V152.461L117.385 160.878L117.044 160.423H124.134V161.542H116.02ZM47.0973 184.636C46.2758 184.636 45.4985 184.523 44.7654 184.295C44.0324 184.055 43.4573 183.758 43.0402 183.404L43.6469 182.343C44.0513 182.646 44.5695 182.911 45.2015 183.139C45.8334 183.354 46.497 183.461 47.1921 183.461C48.14 183.461 48.8225 183.316 49.2396 183.025C49.6567 182.722 49.8652 182.324 49.8652 181.831C49.8652 181.464 49.7452 181.18 49.505 180.978C49.2775 180.763 48.9742 180.605 48.595 180.504C48.2159 180.39 47.7925 180.295 47.3248 180.219C46.8572 180.143 46.3895 180.055 45.9219 179.954C45.4669 179.853 45.0498 179.707 44.6706 179.518C44.2915 179.316 43.9818 179.044 43.7417 178.703C43.5142 178.361 43.4004 177.906 43.4004 177.338C43.4004 176.794 43.5521 176.307 43.8554 175.878C44.1588 175.448 44.6011 175.113 45.1825 174.873C45.7765 174.62 46.497 174.494 47.3438 174.494C47.9884 174.494 48.6329 174.582 49.2775 174.759C49.9221 174.923 50.4529 175.145 50.87 175.423L50.2823 176.503C49.84 176.2 49.366 175.985 48.8604 175.859C48.3549 175.72 47.8493 175.65 47.3438 175.65C46.4464 175.65 45.7829 175.808 45.3531 176.124C44.9361 176.428 44.7275 176.819 44.7275 177.3C44.7275 177.679 44.8413 177.976 45.0688 178.191C45.3089 178.406 45.6186 178.576 45.9977 178.703C46.3895 178.816 46.8129 178.911 47.2679 178.987C47.7356 179.063 48.1969 179.158 48.6519 179.271C49.1195 179.372 49.5429 179.518 49.9221 179.707C50.3139 179.884 50.6236 180.143 50.8511 180.485C51.0912 180.813 51.2113 181.249 51.2113 181.793C51.2113 182.374 51.047 182.88 50.7184 183.309C50.4024 183.726 49.9347 184.055 49.3154 184.295C48.7088 184.523 47.9694 184.636 47.0973 184.636ZM58.4776 174.494C59.2865 174.494 59.9943 174.652 60.601 174.968C61.2203 175.271 61.7006 175.739 62.0418 176.371C62.3957 177.003 62.5726 177.799 62.5726 178.759V184.542H61.2266V178.892C61.2266 177.843 60.9612 177.053 60.4304 176.522C59.9122 175.979 59.1791 175.707 58.2312 175.707C57.5234 175.707 56.9041 175.852 56.3733 176.143C55.8551 176.421 55.4506 176.832 55.1599 177.375C54.8819 177.906 54.7429 178.551 54.7429 179.309V184.542H53.3968V170.475H54.7429V177.319L54.4774 176.807C54.7934 176.086 55.299 175.524 55.9941 175.119C56.6892 174.702 57.5171 174.494 58.4776 174.494ZM72.1614 184.542V182.343L72.1045 181.982V178.304C72.1045 177.458 71.8644 176.807 71.3841 176.352C70.9165 175.897 70.215 175.669 69.2797 175.669C68.6352 175.669 68.0222 175.777 67.4408 175.991C66.8594 176.206 66.3665 176.491 65.962 176.845L65.3554 175.84C65.8609 175.41 66.4676 175.081 67.1754 174.854C67.8832 174.614 68.6288 174.494 69.4125 174.494C70.7016 174.494 71.6938 174.816 72.3889 175.461C73.0967 176.093 73.4506 177.059 73.4506 178.361V184.542H72.1614ZM68.73 184.636C67.9843 184.636 67.3334 184.516 66.7772 184.276C66.2338 184.023 65.8167 183.682 65.526 183.253C65.2353 182.81 65.09 182.305 65.09 181.736C65.09 181.218 65.21 180.75 65.4502 180.333C65.7029 179.903 66.1074 179.562 66.6635 179.309C67.2322 179.044 67.9906 178.911 68.9385 178.911H72.37V179.916H68.9764C68.0159 179.916 67.346 180.086 66.9668 180.428C66.6003 180.769 66.417 181.192 66.417 181.698C66.417 182.267 66.6382 182.722 67.0806 183.063C67.5229 183.404 68.1422 183.575 68.9385 183.575C69.6968 183.575 70.3477 183.404 70.8912 183.063C71.4473 182.709 71.8518 182.203 72.1045 181.546L72.4079 182.475C72.1551 183.132 71.7127 183.657 71.0808 184.049C70.4615 184.441 69.6779 184.636 68.73 184.636ZM76.8222 184.542V174.589H78.1114V177.3L77.9787 176.826C78.2567 176.067 78.7244 175.492 79.3816 175.1C80.0388 174.696 80.854 174.494 81.8272 174.494V175.802C81.7766 175.802 81.7261 175.802 81.6755 175.802C81.625 175.789 81.5744 175.783 81.5239 175.783C80.4748 175.783 79.6533 176.105 79.0593 176.75C78.4653 177.382 78.1682 178.285 78.1682 179.461V184.542H76.8222ZM87.5719 184.636C86.6366 184.636 85.9162 184.384 85.4106 183.878C84.9051 183.373 84.6523 182.658 84.6523 181.736V172.389H85.9983V181.66C85.9983 182.241 86.1437 182.69 86.4344 183.006C86.7377 183.322 87.1674 183.48 87.7235 183.48C88.3176 183.48 88.8105 183.309 89.2023 182.968L89.6762 183.935C89.4108 184.175 89.0885 184.352 88.7094 184.466C88.3428 184.58 87.9637 184.636 87.5719 184.636ZM82.8702 175.707V174.589H89.0317V175.707H82.8702ZM96.9231 174.494C97.732 174.494 98.44 174.652 99.046 174.968C99.666 175.271 100.146 175.739 100.487 176.371C100.841 177.003 101.018 177.799 101.018 178.759V184.542H99.672V178.892C99.672 177.843 99.407 177.053 98.876 176.522C98.358 175.979 97.625 175.707 96.6766 175.707C95.9688 175.707 95.3495 175.852 94.8187 176.143C94.3005 176.421 93.8961 176.832 93.6054 177.375C93.3273 177.906 93.1883 178.551 93.1883 179.309V184.542H91.8422V174.589H93.1314V177.319L92.9229 176.807C93.2388 176.086 93.7444 175.524 94.4395 175.119C95.1347 174.702 95.9625 174.494 96.9231 174.494ZM108.427 184.636C107.466 184.636 106.6 184.422 105.829 183.992C105.071 183.55 104.471 182.949 104.028 182.191C103.586 181.42 103.365 180.541 103.365 179.556C103.365 178.557 103.586 177.679 104.028 176.92C104.471 176.162 105.071 175.568 105.829 175.138C106.588 174.709 107.453 174.494 108.427 174.494C109.412 174.494 110.285 174.709 111.043 175.138C111.814 175.568 112.414 176.162 112.844 176.92C113.286 177.679 113.507 178.557 113.507 179.556C113.507 180.541 113.286 181.42 112.844 182.191C112.414 182.949 111.814 183.55 111.043 183.992C110.272 184.422 109.4 184.636 108.427 184.636ZM108.427 183.442C109.147 183.442 109.785 183.284 110.341 182.968C110.898 182.64 111.334 182.185 111.65 181.603C111.978 181.009 112.142 180.327 112.142 179.556C112.142 178.772 111.978 178.09 111.65 177.508C111.334 176.927 110.898 176.478 110.341 176.162C109.785 175.833 109.153 175.669 108.446 175.669C107.738 175.669 107.106 175.833 106.55 176.162C105.994 176.478 105.551 176.927 105.223 177.508C104.894 178.09 104.73 178.772 104.73 179.556C104.73 180.327 104.894 181.009 105.223 181.603C105.551 182.185 105.994 182.64 106.55 182.968C107.106 183.284 107.731 183.442 108.427 183.442ZM128.408 174.494C129.217 174.494 129.918 174.652 130.512 174.968C131.119 175.271 131.587 175.739 131.915 176.371C132.256 177.003 132.427 177.799 132.427 178.759V184.542H131.081V178.892C131.081 177.843 130.828 177.053 130.323 176.522C129.83 175.979 129.128 175.707 128.218 175.707C127.536 175.707 126.942 175.852 126.436 176.143C125.943 176.421 125.558 176.832 125.28 177.375C125.014 177.906 124.882 178.551 124.882 179.309V184.542H123.536V178.892C123.536 177.843 123.283 177.053 122.777 176.522C122.272 175.979 121.564 175.707 120.654 175.707C119.984 175.707 119.396 175.852 118.891 176.143C118.385 176.421 117.993 176.832 117.715 177.375C117.45 177.906 117.317 178.551 117.317 179.309V184.542H115.971V174.589H117.26V177.281L117.052 176.807C117.355 176.086 117.842 175.524 118.512 175.119C119.194 174.702 119.997 174.494 120.919 174.494C121.892 174.494 122.72 174.74 123.403 175.233C124.085 175.713 124.528 176.44 124.73 177.413L124.199 177.205C124.49 176.396 125.002 175.745 125.735 175.252C126.48 174.747 127.371 174.494 128.408 174.494ZM142.03 184.542V182.343L141.973 181.982V178.304C141.973 177.458 141.733 176.807 141.253 176.352C140.785 175.897 140.084 175.669 139.149 175.669C138.504 175.669 137.891 175.777 137.31 175.991C136.728 176.206 136.235 176.491 135.831 176.845L135.224 175.84C135.73 175.41 136.336 175.081 137.044 174.854C137.752 174.614 138.498 174.494 139.281 174.494C140.57 174.494 141.563 174.816 142.258 175.461C142.966 176.093 143.319 177.059 143.319 178.361V184.542H142.03ZM138.599 184.636C137.853 184.636 137.202 184.516 136.646 184.276C136.103 184.023 135.686 183.682 135.395 183.253C135.104 182.81 134.959 182.305 134.959 181.736C134.959 181.218 135.079 180.75 135.319 180.333C135.572 179.903 135.976 179.562 136.532 179.309C137.101 179.044 137.859 178.911 138.807 178.911H142.239V179.916H138.845C137.885 179.916 137.215 180.086 136.836 180.428C136.469 180.769 136.286 181.192 136.286 181.698C136.286 182.267 136.507 182.722 136.949 183.063C137.392 183.404 138.011 183.575 138.807 183.575C139.566 183.575 140.217 183.404 140.76 183.063C141.316 182.709 141.721 182.203 141.973 181.546L142.277 182.475C142.024 183.132 141.582 183.657 140.95 184.049C140.33 184.441 139.547 184.636 138.599 184.636Z" fill="black" fill-opacity="0.5"/>
    <g opacity="0.5">
        <path d="M110.632 36.3477L94.3561 29.8373C94.2008 29.7756 94.0277 29.7756 93.8724 29.8373L77.5964 36.3477C77.4757 36.3961 77.3722 36.4796 77.2994 36.5874C77.2265 36.6952 77.1876 36.8224 77.1876 36.9525V48.5091C77.1755 53.6118 78.7912 58.5853 81.7996 62.7068C84.808 66.8284 89.0525 69.8831 93.916 71.4269C94.0452 71.4681 94.184 71.4681 94.3132 71.4269C99.177 69.883 103.421 66.8282 106.43 62.7066C109.438 58.5849 111.054 53.6112 111.042 48.5084V36.9525C111.042 36.8223 111.003 36.695 110.93 36.5872C110.857 36.4794 110.753 36.396 110.632 36.3477ZM109.74 48.5091C109.751 53.3 108.245 57.9715 105.438 61.8541C102.631 65.7366 98.667 68.631 94.1146 70.1223C89.5616 68.6309 85.5976 65.7365 82.7907 61.8538C79.9838 57.9711 78.4782 53.2994 78.4896 48.5084V37.3932L94.1146 31.1432L109.74 37.3932V48.5091Z" fill="#009B78"/>
        <path d="M93.8723 32.6428L80.2004 38.1115C80.0798 38.1599 79.9763 38.2433 79.9034 38.3509C79.8306 38.4586 79.7916 38.5857 79.7916 38.7157V48.5093C79.7994 52.9077 81.1552 57.198 83.6763 60.8022C86.1974 64.4064 89.7627 67.1512 93.8918 68.6667C94.0356 68.7192 94.1933 68.7192 94.3371 68.6667C98.4659 67.151 102.032 64.4061 104.553 60.8018C107.074 57.1976 108.43 52.9071 108.437 48.5086V38.7157C108.437 38.5855 108.398 38.4582 108.325 38.3504C108.252 38.2426 108.149 38.1592 108.028 38.1109L94.356 32.6421C94.2006 32.5805 94.0276 32.5811 93.8723 32.6428ZM107.135 39.1558V48.5086C107.128 52.5995 105.88 56.5919 103.555 59.9579C101.23 63.3239 97.9379 65.9051 94.1144 67.3601C90.2911 65.905 86.9994 63.3238 84.6745 59.9578C82.3495 56.5918 81.1009 52.5995 81.0937 48.5086V39.1564L94.1144 33.9481L107.135 39.1558Z" fill="#009B78"/>
        <path d="M90.0176 48.2099C89.8955 48.0878 89.7299 48.0193 89.5573 48.0193C89.3847 48.0193 89.2191 48.0878 89.097 48.2099L87.1439 50.163C87.0219 50.2851 86.9533 50.4506 86.9533 50.6233C86.9533 50.7959 87.0219 50.9615 87.1439 51.0836L91.7012 55.6408C91.8233 55.7629 91.9888 55.8314 92.1615 55.8314C92.3341 55.8314 92.4997 55.7629 92.6217 55.6408L101.085 47.1773C101.207 47.0552 101.276 46.8897 101.276 46.717C101.276 46.5444 101.207 46.3788 101.085 46.2568L99.132 44.3036C99.01 44.1816 98.844 44.113 98.672 44.113C98.499 44.113 98.334 44.1816 98.212 44.3036L92.1615 50.3537L90.0176 48.2099ZM98.672 45.6845L99.704 46.717L92.1615 54.26L88.5248 50.6233L89.5573 49.5907L91.7012 51.7346C91.8233 51.8566 91.9888 51.9252 92.1615 51.9252C92.3341 51.9252 92.4997 51.8566 92.6217 51.7346L98.672 45.6845ZM86.9069 38.9358C86.8425 38.7757 86.7173 38.6477 86.5586 38.5797C86.4 38.5117 86.2209 38.5094 86.0606 38.5732L82.8054 39.8753C82.6845 39.9236 82.5809 40.0071 82.5079 40.1149C82.4349 40.2227 82.3959 40.3499 82.3959 40.4801V43.9501C82.3959 44.1228 82.4645 44.2884 82.5866 44.4105C82.7087 44.5326 82.8742 44.6012 83.0469 44.6012C83.2196 44.6012 83.3852 44.5326 83.5073 44.4105C83.6294 44.2884 83.698 44.1228 83.698 43.9501V40.9208L86.5443 39.7828C86.6237 39.7511 86.696 39.704 86.7572 39.6443C86.8184 39.5845 86.8672 39.5133 86.9009 39.4348C86.9346 39.3562 86.9524 39.2717 86.9535 39.1862C86.9545 39.1007 86.9387 39.0152 86.9069 38.9358ZM100.138 60.1779C98.408 62.1231 96.2624 63.6545 93.8607 64.659C93.7819 64.6924 93.7105 64.7409 93.6505 64.8018C93.5906 64.8628 93.5432 64.9349 93.5111 65.0142C93.479 65.0934 93.4628 65.1782 93.4634 65.2638C93.4641 65.3493 93.4816 65.4338 93.515 65.5125C93.5483 65.5913 93.5968 65.6627 93.6578 65.7227C93.7187 65.7827 93.7909 65.8301 93.8701 65.8622C93.9494 65.8943 94.0342 65.9104 94.1197 65.9098C94.2052 65.9091 94.2897 65.8916 94.3685 65.8582C96.9486 64.7783 99.253 63.1325 101.112 61.0425C101.227 60.9134 101.285 60.7439 101.275 60.5715C101.265 60.3991 101.186 60.2379 101.057 60.1232C100.928 60.0086 100.759 59.9499 100.586 59.9602C100.414 59.9704 100.253 60.0488 100.138 60.1779Z" fill="#009B78"/>
    </g>
    <path d="M185.575 37.3814C186.059 37.5745 186.474 37.9084 186.766 38.3394C187.057 38.7703 187.213 39.2789 187.213 39.7992V104.022V104.024C187.28 132.167 178.366 159.597 161.767 182.329C145.167 205.06 121.747 221.908 94.9115 230.423H94.9102C94.3926 230.588 93.8365 230.588 93.319 230.423H93.3177C66.4822 221.908 43.0629 205.061 26.4635 182.33C9.86399 159.599 0.949682 132.17 1.01599 104.028V104.025V39.7996C1.01594 39.2794 1.17167 38.771 1.46319 38.3399C1.75453 37.9091 2.16818 37.5753 2.65099 37.3813C2.65069 37.3814 2.65129 37.3812 2.65099 37.3813L93.1426 1.20105C93.1429 1.20091 93.1433 1.20077 93.1436 1.20063C93.7661 0.953957 94.4594 0.953957 95.0819 1.20063C95.0823 1.20077 95.0826 1.20091 95.083 1.20105L185.575 37.3814ZM93.7986 225.105L94.1146 225.209L94.4306 225.105C119.949 216.751 142.165 200.536 157.897 178.785C173.629 157.034 182.068 130.863 182.005 104.023V42.2491V41.5614L181.366 41.3061L94.4916 6.57194L94.1146 6.42119L93.7375 6.57194L6.86287 41.3061L6.22429 41.5614V42.2491V104.02C6.16045 130.86 14.5991 157.032 30.3308 178.783C46.0627 200.535 68.2801 216.751 93.7986 225.105Z" fill="#009B78" fill-opacity="0.5"/>
    <path d="M2.65099 37.3813C2.16818 37.5753 1.75453 37.9091 1.46319 38.3399C1.17167 38.771 1.01594 39.2794 1.01599 39.7996V104.025V104.028C0.949682 132.17 9.86399 159.599 26.4635 182.33C43.0629 205.061 66.4822 221.908 93.3177 230.423H93.319C93.8365 230.588 94.3926 230.588 94.9102 230.423H94.9115C121.747 221.908 145.167 205.06 161.767 182.329C178.366 159.597 187.28 132.167 187.213 104.024V104.022V39.7992C187.213 39.2789 187.057 38.7703 186.766 38.3394C186.474 37.9084 186.059 37.5745 185.575 37.3814L95.083 1.20105C95.0826 1.20091 95.0823 1.20077 95.0819 1.20063C94.4594 0.953957 93.7661 0.953957 93.1436 1.20063C93.1433 1.20077 93.1429 1.20091 93.1426 1.20105L2.65099 37.3813ZM2.65099 37.3813C2.65129 37.3812 2.65069 37.3814 2.65099 37.3813ZM93.7986 225.105L94.1146 225.209L94.4306 225.105C119.949 216.751 142.165 200.536 157.897 178.785C173.629 157.034 182.068 130.863 182.005 104.023V42.2491V41.5614L181.366 41.3061L94.4916 6.57194L94.1146 6.42119L93.7375 6.57194L6.86287 41.3061L6.22429 41.5614V42.2491V104.02C6.16045 130.86 14.5991 157.032 30.3308 178.783C46.0627 200.535 68.2801 216.751 93.7986 225.105Z" stroke="white" stroke-width="2.03125"/>
    <path d="M130.699 101.155L116.607 80.2559C116.544 80.164 116.464 80.0858 116.37 80.0262C116.277 79.9666 116.172 79.9268 116.062 79.9094C115.839 79.8681 115.617 79.9259 115.435 80.0497L105.716 87.1124L100.551 87.0793C98.2901 87.0711 96.0292 87.5909 93.9912 88.6058L81.2355 87.8549L72.0523 82.2691C71.8626 82.1536 71.6398 82.1206 71.4253 82.1701C71.2107 82.2196 71.0292 82.3599 70.9137 82.5414L58.3477 103.3C58.1167 103.688 58.2322 104.192 58.62 104.431L67.8774 110.157L71.2025 112.31L70.2784 113.432C68.851 115.165 69.1068 117.739 70.8394 119.167C71.5985 119.786 72.5144 120.091 73.422 120.091C73.5375 120.091 73.653 120.083 73.7767 120.074C73.422 121.543 73.8923 123.152 75.1299 124.175C75.7214 124.66 76.4372 124.969 77.1958 125.067C77.9544 125.164 78.7252 125.047 79.4203 124.728C79.5358 125.784 80.0474 126.741 80.8724 127.418C81.6068 128.02 82.5144 128.342 83.4467 128.342C83.5787 128.342 83.719 128.342 83.851 128.325C84.3834 128.275 84.9005 128.119 85.3722 127.867C85.8439 127.615 86.2607 127.271 86.5985 126.857L87.1348 126.205C87.3411 127.055 87.8031 127.814 88.488 128.375C89.247 128.994 90.1629 129.299 91.0705 129.299C91.978 129.299 92.8939 128.985 93.6365 128.391L94.5688 129.134C95.0322 129.48 95.5596 129.73 96.1205 129.87C96.6814 130.01 97.2641 130.038 97.8361 129.951C98.9991 129.777 100.022 129.167 100.724 128.226C101.316 127.421 101.613 126.436 101.565 125.437L101.673 125.52C102.456 126.106 103.381 126.386 104.288 126.386C104.975 126.389 105.652 126.229 106.266 125.921C106.879 125.613 107.411 125.164 107.82 124.612C108.546 123.63 108.801 122.442 108.636 121.32C108.958 121.395 109.288 121.444 109.618 121.444C110.305 121.446 110.982 121.287 111.596 120.979C112.209 120.671 112.742 120.222 113.15 119.67C114.065 118.441 114.23 116.881 113.744 115.536C113.925 115.536 114.107 115.52 114.288 115.495C115.437 115.327 116.472 114.711 117.168 113.782C117.864 112.853 118.163 111.686 118.001 110.536L120.196 108.928L130.46 102.302C130.65 102.178 130.773 101.989 130.823 101.774C130.864 101.56 130.823 101.329 130.699 101.147V101.155ZM71.8956 84.1091L79.8411 88.944L68.0342 108.325L60.1794 103.465L71.8873 84.1173L71.8956 84.1091ZM71.8956 117.896C71.4001 117.488 71.087 116.9 71.0251 116.261C70.9633 115.622 71.1576 114.984 71.5655 114.489L74.5606 110.842C74.9681 110.346 75.5557 110.032 76.1944 109.968C76.8332 109.905 77.4711 110.097 77.9682 110.503C78.4641 110.911 78.7782 111.499 78.8416 112.137C78.905 112.776 78.7125 113.414 78.3064 113.911L75.9137 116.824L75.3114 117.558C74.9032 118.053 74.3149 118.366 73.6759 118.428C73.0369 118.49 72.3995 118.296 71.9038 117.888L71.8956 117.896ZM76.186 122.904C75.6905 122.496 75.3775 121.908 75.3156 121.269C75.2537 120.63 75.448 119.993 75.8559 119.497L76.582 118.614L77.1843 117.88L81.2025 112.995C81.615 112.492 82.1926 112.187 82.8361 112.121C82.9187 112.121 82.9929 112.112 83.0754 112.112C83.6365 112.112 84.1728 112.302 84.6101 112.665C85.106 113.073 85.4201 113.66 85.4835 114.299C85.5469 114.938 85.3545 115.576 84.9484 116.073L79.6018 122.583C79.1936 123.078 78.6053 123.391 77.9663 123.453C77.3274 123.515 76.69 123.321 76.1942 122.913L76.186 122.904ZM85.3361 125.809C84.9236 126.312 84.346 126.617 83.7025 126.683C83.0589 126.741 82.4319 126.551 81.9286 126.147C81.4326 125.739 81.1185 125.152 81.0551 124.513C80.9917 123.874 81.1842 123.236 81.5903 122.739L87.0193 116.139C87.4269 115.643 88.0144 115.329 88.6532 115.265C89.2919 115.202 89.9298 115.394 90.4269 115.8C90.9223 116.209 91.2354 116.797 91.2973 117.436C91.3592 118.075 91.1648 118.712 90.7569 119.208L89.5358 120.701L87.9351 122.649L85.3361 125.809ZM89.5441 127.104C89.0486 126.696 88.7355 126.108 88.6736 125.469C88.6118 124.83 88.8061 124.192 89.214 123.696L90.8147 121.749C91.2272 121.254 91.8048 120.941 92.4483 120.875C92.5309 120.875 92.6051 120.866 92.6876 120.866C93.2487 120.866 93.785 121.056 94.2223 121.419C94.7182 121.827 95.0323 122.414 95.0957 123.053C95.1591 123.692 94.9667 124.33 94.5606 124.827L92.9599 126.774C92.5517 127.269 91.9634 127.583 91.3244 127.644C90.6854 127.706 90.048 127.512 89.5523 127.104H89.5441ZM115.848 112.789C115.41 113.375 114.767 113.763 114.049 113.87C113.692 113.924 113.328 113.906 112.979 113.818C112.629 113.731 112.3 113.574 112.011 113.358L105.716 108.672C105.534 108.54 105.311 108.49 105.105 108.515C104.899 108.548 104.701 108.655 104.56 108.837C104.495 108.924 104.448 109.023 104.422 109.128C104.395 109.234 104.39 109.343 104.406 109.45C104.422 109.558 104.459 109.661 104.516 109.754C104.572 109.847 104.646 109.928 104.734 109.992L111.268 114.852C112.481 115.751 112.737 117.475 111.838 118.688C110.938 119.901 109.214 120.157 108.001 119.249L106.937 118.457L101.549 114.456C101.462 114.391 101.363 114.343 101.257 114.317C101.152 114.29 101.043 114.285 100.935 114.301C100.828 114.317 100.725 114.355 100.632 114.411C100.539 114.467 100.458 114.541 100.394 114.629C100.329 114.716 100.282 114.815 100.255 114.92C100.229 115.026 100.223 115.135 100.239 115.243C100.256 115.35 100.293 115.453 100.349 115.546C100.405 115.639 100.479 115.72 100.567 115.784L105.955 119.786C107.168 120.693 107.423 122.409 106.516 123.622C106.301 123.911 106.031 124.155 105.722 124.34C105.413 124.524 105.07 124.646 104.714 124.698C104.358 124.75 103.994 124.732 103.645 124.643C103.296 124.555 102.968 124.399 102.679 124.183L99.8411 122.071L98.6941 121.213C98.5131 121.081 98.2901 121.031 98.0841 121.056C98.0341 121.056 97.9851 121.089 97.9351 121.106C97.8771 121.13 97.8111 121.147 97.7621 121.18C97.6791 121.229 97.6051 121.296 97.5471 121.378C97.4401 121.518 97.4071 121.683 97.3991 121.848C97.3991 121.898 97.3821 121.939 97.3991 121.989C97.3991 122.005 97.4151 122.022 97.4151 122.038C97.4321 122.121 97.4561 122.211 97.5061 122.286C97.5641 122.376 97.6301 122.459 97.7291 122.533L98.8841 123.391C99.4701 123.829 99.8491 124.464 99.9561 125.19C100.064 125.916 99.8821 126.642 99.4451 127.228C99.0081 127.814 98.3641 128.201 97.6461 128.309C97.2951 128.363 96.9358 128.347 96.5903 128.262C96.2448 128.177 95.9195 128.025 95.6332 127.814L94.8163 127.162L95.8807 125.858C96.5738 125.017 96.8955 123.961 96.7883 122.88C96.681 121.799 96.1612 120.817 95.3196 120.132C94.5688 119.513 93.6447 119.216 92.6794 119.225C93.3477 117.607 92.9434 115.685 91.5243 114.513C90.9229 114.014 90.1892 113.7 89.4127 113.611C88.6361 113.522 87.8504 113.66 87.1513 114.01C87.0236 112.958 86.4894 111.998 85.6629 111.335C84.8365 110.672 83.7834 110.359 82.7289 110.462C81.8625 110.545 81.0705 110.908 80.4352 111.469C80.2371 110.594 79.7751 109.802 79.0655 109.225C77.3328 107.797 74.7586 108.053 73.3312 109.786L72.3081 111.031L69.4863 109.192L81.4748 89.5051L91.3922 90.0909L81.4088 95.8582C80.4022 96.4358 79.6761 97.3764 79.379 98.5067C79.0738 99.6288 79.2305 100.809 79.8163 101.815C80.5919 103.16 82.0441 104.002 83.5952 104.002C84.3543 104.002 85.1051 103.796 85.7734 103.416L97.9761 96.3698L107.935 103.441L115.336 108.944C115.922 109.381 116.31 110.025 116.417 110.743C116.524 111.461 116.343 112.195 115.905 112.781L115.848 112.789ZM117.423 108.911C117.126 108.416 116.739 107.979 116.26 107.624L108.843 102.104H108.834L98.4381 94.7279C98.3101 94.6349 98.1571 94.5815 97.9991 94.5742C97.8411 94.5669 97.6841 94.6059 97.5471 94.6866L84.8823 101.997C84.4698 102.236 83.9995 102.36 83.5292 102.36C83.0524 102.359 82.5842 102.232 82.1715 101.993C81.7588 101.755 81.4161 101.411 81.1777 100.998C80.8147 100.371 80.7157 99.6453 80.9054 98.944C81.0952 98.2427 81.5408 97.6652 82.1678 97.3021L94.049 90.4457C96.0127 89.3071 98.2651 88.7543 100.526 88.7378L105.526 88.7708L118.587 108.069L117.423 108.919V108.911ZM119.948 107.121L107.102 88.1355L115.707 81.8896L128.851 101.378L119.948 107.121Z" fill="black" fill-opacity="0.3"/>
</svg>
