<svg width="194" height="232" viewBox="0 0 194 232" fill="none" xmlns="http://www.w3.org/2000/svg">
    <path d="M66.2042 158.541L71.6452 151.185V152.266L66.5265 145.27H68.138L72.4415 151.109L71.8159 151.128L76.1194 145.27H77.6361L72.5742 152.171V151.185L77.9963 158.541H76.3659L71.778 152.304H72.3657L67.8157 158.541H66.2042ZM85.8569 158.541V156.342L85.8 155.982V152.304C85.8 151.457 85.5599 150.806 85.0796 150.351C84.612 149.896 83.9105 149.669 82.9752 149.669C82.3306 149.669 81.7177 149.776 81.1363 149.991C80.5549 150.206 80.062 150.49 79.6575 150.844L79.0508 149.839C79.5564 149.409 80.1631 149.081 80.8708 148.853C81.5786 148.613 82.3243 148.493 83.1079 148.493C84.3971 148.493 85.3892 148.815 86.0844 149.46C86.7922 150.092 87.1461 151.059 87.1461 152.361V158.541H85.8569ZM82.4254 158.636C81.6797 158.636 81.0288 158.516 80.4727 158.276C79.9292 158.023 79.5122 157.682 79.2215 157.252C78.9308 156.809 78.7854 156.304 78.7854 155.735C78.7854 155.217 78.9055 154.749 79.1456 154.332C79.3984 153.903 79.8029 153.561 80.359 153.309C80.9277 153.043 81.6861 152.91 82.634 152.91H86.0654V153.915H82.6719C81.7113 153.915 81.0415 154.086 80.6623 154.427C80.2958 154.768 80.1125 155.192 80.1125 155.697C80.1125 156.266 80.3337 156.721 80.7761 157.062C81.2184 157.404 81.8377 157.574 82.634 157.574C83.3923 157.574 84.0432 157.404 84.5867 157.062C85.1428 156.708 85.5472 156.203 85.8 155.546L86.1033 156.475C85.8506 157.132 85.4082 157.656 84.7763 158.048C84.157 158.44 83.3733 158.636 82.4254 158.636ZM92.8919 158.541L88.4746 148.588H89.8775L93.9346 157.821H93.2711L97.385 148.588H98.7121L94.2759 158.541H92.8919ZM100.551 158.541V147.337C100.551 146.452 100.81 145.738 101.328 145.194C101.846 144.651 102.592 144.379 103.565 144.379C103.944 144.379 104.311 144.43 104.665 144.531C105.019 144.632 105.316 144.79 105.556 145.005L105.101 146.01C104.911 145.845 104.69 145.725 104.437 145.649C104.185 145.561 103.913 145.517 103.622 145.517C103.053 145.517 102.617 145.675 102.314 145.991C102.011 146.307 101.859 146.774 101.859 147.394V148.91L101.897 149.536V158.541H100.551ZM98.7688 149.706V148.588H104.93V149.706H98.7688ZM109.137 158.636C108.315 158.636 107.538 158.522 106.805 158.295C106.072 158.054 105.497 157.757 105.079 157.404L105.686 156.342C106.091 156.645 106.609 156.911 107.241 157.138C107.873 157.353 108.536 157.46 109.231 157.46C110.179 157.46 110.862 157.315 111.279 157.024C111.696 156.721 111.904 156.323 111.904 155.83C111.904 155.463 111.784 155.179 111.544 154.977C111.317 154.762 111.013 154.604 110.634 154.503C110.255 154.389 109.832 154.294 109.364 154.219C108.896 154.143 108.429 154.054 107.961 153.953C107.506 153.852 107.089 153.707 106.71 153.517C106.331 153.315 106.021 153.043 105.781 152.702C105.553 152.361 105.44 151.906 105.44 151.337C105.44 150.793 105.591 150.307 105.895 149.877C106.198 149.447 106.64 149.112 107.222 148.872C107.816 148.619 108.536 148.493 109.383 148.493C110.028 148.493 110.672 148.582 111.317 148.759C111.961 148.923 112.492 149.144 112.909 149.422L112.322 150.503C111.879 150.199 111.405 149.984 110.9 149.858C110.394 149.719 109.889 149.65 109.383 149.65C108.486 149.65 107.822 149.808 107.392 150.124C106.975 150.427 106.767 150.819 106.767 151.299C106.767 151.678 106.88 151.975 107.108 152.19C107.348 152.405 107.658 152.575 108.037 152.702C108.429 152.816 108.852 152.91 109.307 152.986C109.775 153.062 110.236 153.157 110.691 153.271C111.159 153.372 111.582 153.517 111.961 153.707C112.353 153.884 112.663 154.143 112.89 154.484C113.13 154.813 113.25 155.249 113.25 155.792C113.25 156.373 113.086 156.879 112.758 157.309C112.442 157.726 111.974 158.054 111.355 158.295C110.748 158.522 110.009 158.636 109.137 158.636ZM115.436 158.541V148.588H116.782V158.541H115.436ZM116.119 146.389C115.84 146.389 115.607 146.294 115.417 146.104C115.227 145.915 115.133 145.687 115.133 145.422C115.133 145.156 115.227 144.935 115.417 144.758C115.607 144.569 115.84 144.474 116.119 144.474C116.397 144.474 116.63 144.562 116.82 144.739C117.01 144.916 117.104 145.137 117.104 145.403C117.104 145.681 117.01 145.915 116.82 146.104C116.643 146.294 116.409 146.389 116.119 146.389ZM119.162 158.541V157.65L125.798 149.251L126.082 149.706H119.276V148.588H127.144V149.46L120.527 157.877L120.186 157.422H127.277V158.541H119.162ZM50.0976 181.636C49.2761 181.636 48.4988 181.522 47.7657 181.295C47.0327 181.054 46.4576 180.757 46.0405 180.404L46.6472 179.342C47.0516 179.645 47.5698 179.911 48.2018 180.138C48.8337 180.353 49.4973 180.46 50.1924 180.46C51.1403 180.46 51.8228 180.315 52.2399 180.024C52.657 179.721 52.8655 179.323 52.8655 178.83C52.8655 178.463 52.7455 178.179 52.5053 177.977C52.2778 177.762 51.9745 177.604 51.5953 177.503C51.2162 177.389 50.7928 177.294 50.3251 177.219C49.8575 177.143 49.3898 177.054 48.9222 176.953C48.4672 176.852 48.0501 176.707 47.671 176.517C47.2918 176.315 46.9821 176.043 46.742 175.702C46.5145 175.361 46.4007 174.906 46.4007 174.337C46.4007 173.793 46.5524 173.307 46.8557 172.877C47.1591 172.447 47.6014 172.112 48.1828 171.872C48.7769 171.619 49.4973 171.493 50.3441 171.493C50.9887 171.493 51.6332 171.582 52.2778 171.759C52.9224 171.923 53.4532 172.144 53.8703 172.422L53.2826 173.503C52.8403 173.199 52.3663 172.984 51.8607 172.858C51.3552 172.719 50.8496 172.65 50.3441 172.65C49.4467 172.65 48.7832 172.808 48.3535 173.124C47.9364 173.427 47.7278 173.819 47.7278 174.299C47.7278 174.678 47.8416 174.975 48.0691 175.19C48.3092 175.405 48.6189 175.575 48.998 175.702C49.3898 175.816 49.8132 175.91 50.2682 175.986C50.7359 176.062 51.1972 176.157 51.6522 176.271C52.1198 176.372 52.5432 176.517 52.9224 176.707C53.3142 176.884 53.6239 177.143 53.8514 177.484C54.0915 177.813 54.2116 178.249 54.2116 178.792C54.2116 179.373 54.0473 179.879 53.7187 180.309C53.4027 180.726 52.935 181.054 52.3157 181.295C51.7091 181.522 50.9697 181.636 50.0976 181.636ZM61.4779 171.493C62.2868 171.493 62.9946 171.651 63.6013 171.967C64.2206 172.27 64.7009 172.738 65.0421 173.37C65.396 174.002 65.5729 174.798 65.5729 175.759V181.541H64.2269V175.891C64.2269 174.842 63.9615 174.052 63.4307 173.522C62.9125 172.978 62.1794 172.706 61.2315 172.706C60.5237 172.706 59.9044 172.852 59.3736 173.142C58.8554 173.421 58.4509 173.831 58.1602 174.375C57.8822 174.906 57.7432 175.55 57.7432 176.309V181.541H56.3971V167.474H57.7432V174.318L57.4777 173.806C57.7937 173.086 58.2993 172.523 58.9944 172.119C59.6895 171.702 60.5174 171.493 61.4779 171.493ZM75.1617 181.541V179.342L75.1048 178.982V175.304C75.1048 174.457 74.8647 173.806 74.3844 173.351C73.9168 172.896 73.2153 172.669 72.2801 172.669C71.6355 172.669 71.0225 172.776 70.4411 172.991C69.8597 173.206 69.3668 173.49 68.9623 173.844L68.3557 172.839C68.8612 172.409 69.4679 172.081 70.1757 171.853C70.8835 171.613 71.6292 171.493 72.4128 171.493C73.7019 171.493 74.6941 171.815 75.3892 172.46C76.097 173.092 76.4509 174.059 76.4509 175.361V181.541H75.1617ZM71.7303 181.636C70.9846 181.636 70.3337 181.516 69.7776 181.276C69.2341 181.023 68.817 180.682 68.5263 180.252C68.2356 179.809 68.0903 179.304 68.0903 178.735C68.0903 178.217 68.2103 177.749 68.4505 177.332C68.7032 176.903 69.1077 176.561 69.6638 176.309C70.2326 176.043 70.9909 175.91 71.9388 175.91H75.3703V176.915H71.9767C71.0162 176.915 70.3463 177.086 69.9671 177.427C69.6006 177.768 69.4173 178.192 69.4173 178.697C69.4173 179.266 69.6385 179.721 70.0809 180.062C70.5232 180.404 71.1426 180.574 71.9388 180.574C72.6971 180.574 73.348 180.404 73.8915 180.062C74.4476 179.708 74.8521 179.203 75.1048 178.546L75.4082 179.475C75.1554 180.132 74.713 180.656 74.0811 181.048C73.4618 181.44 72.6782 181.636 71.7303 181.636ZM79.8225 181.541V171.588H81.1117V174.299L80.979 173.825C81.257 173.067 81.7247 172.492 82.3819 172.1C83.0391 171.695 83.8543 171.493 84.8275 171.493V172.801C84.777 172.801 84.7264 172.801 84.6758 172.801C84.6253 172.789 84.5747 172.782 84.5242 172.782C83.4751 172.782 82.6536 173.105 82.0596 173.749C81.4656 174.381 81.1685 175.285 81.1685 176.46V181.541H79.8225ZM90.5722 181.636C89.6369 181.636 88.9165 181.383 88.4109 180.877C87.9054 180.372 87.6526 179.658 87.6526 178.735V169.389H88.9986V178.659C88.9986 179.241 89.144 179.689 89.4347 180.005C89.738 180.321 90.1677 180.479 90.7238 180.479C91.3179 180.479 91.8108 180.309 92.2026 179.967L92.6766 180.934C92.4111 181.174 92.0888 181.351 91.7097 181.465C91.3431 181.579 90.964 181.636 90.5722 181.636ZM85.8705 172.706V171.588H92.032V172.706H85.8705ZM99.9234 171.493C100.732 171.493 101.44 171.651 102.047 171.967C102.666 172.27 103.146 172.738 103.488 173.37C103.841 174.002 104.018 174.798 104.018 175.759V181.541H102.672V175.891C102.672 174.842 102.407 174.052 101.876 173.522C101.358 172.978 100.625 172.706 99.6769 172.706C98.9691 172.706 98.3498 172.852 97.819 173.142C97.3008 173.421 96.8964 173.831 96.6057 174.375C96.3276 174.906 96.1886 175.55 96.1886 176.309V181.541H94.8425V171.588H96.1317V174.318L95.9232 173.806C96.2391 173.086 96.7447 172.523 97.4398 172.119C98.135 171.702 98.9628 171.493 99.9234 171.493ZM111.427 181.636C110.466 181.636 109.601 181.421 108.83 180.991C108.071 180.549 107.471 179.949 107.029 179.19C106.586 178.419 106.365 177.541 106.365 176.555C106.365 175.557 106.586 174.678 107.029 173.92C107.471 173.161 108.071 172.567 108.83 172.138C109.588 171.708 110.454 171.493 111.427 171.493C112.413 171.493 113.285 171.708 114.043 172.138C114.814 172.567 115.415 173.161 115.844 173.92C116.287 174.678 116.508 175.557 116.508 176.555C116.508 177.541 116.287 178.419 115.844 179.19C115.415 179.949 114.814 180.549 114.043 180.991C113.272 181.421 112.4 181.636 111.427 181.636ZM111.427 180.441C112.147 180.441 112.786 180.283 113.342 179.967C113.898 179.639 114.334 179.184 114.65 178.602C114.978 178.008 115.143 177.326 115.143 176.555C115.143 175.771 114.978 175.089 114.65 174.507C114.334 173.926 113.898 173.477 113.342 173.161C112.786 172.833 112.154 172.669 111.446 172.669C110.738 172.669 110.106 172.833 109.55 173.161C108.994 173.477 108.552 173.926 108.223 174.507C107.894 175.089 107.73 175.771 107.73 176.555C107.73 177.326 107.894 178.008 108.223 178.602C108.552 179.184 108.994 179.639 109.55 179.967C110.106 180.283 110.732 180.441 111.427 180.441ZM131.408 171.493C132.217 171.493 132.918 171.651 133.513 171.967C134.119 172.27 134.587 172.738 134.915 173.37C135.257 174.002 135.427 174.798 135.427 175.759V181.541H134.081V175.891C134.081 174.842 133.828 174.052 133.323 173.522C132.83 172.978 132.129 172.706 131.219 172.706C130.536 172.706 129.942 172.852 129.436 173.142C128.944 173.421 128.558 173.831 128.28 174.375C128.015 174.906 127.882 175.55 127.882 176.309V181.541H126.536V175.891C126.536 174.842 126.283 174.052 125.778 173.522C125.272 172.978 124.564 172.706 123.654 172.706C122.984 172.706 122.397 172.852 121.891 173.142C121.385 173.421 120.994 173.831 120.716 174.375C120.45 174.906 120.318 175.55 120.318 176.309V181.541H118.971V171.588H120.261V174.28L120.052 173.806C120.355 173.086 120.842 172.523 121.512 172.119C122.194 171.702 122.997 171.493 123.92 171.493C124.893 171.493 125.721 171.74 126.403 172.232C127.086 172.713 127.528 173.439 127.73 174.413L127.199 174.204C127.49 173.395 128.002 172.744 128.735 172.251C129.481 171.746 130.372 171.493 131.408 171.493ZM145.031 181.541V179.342L144.974 178.982V175.304C144.974 174.457 144.734 173.806 144.253 173.351C143.786 172.896 143.084 172.669 142.149 172.669C141.504 172.669 140.891 172.776 140.31 172.991C139.729 173.206 139.236 173.49 138.831 173.844L138.225 172.839C138.73 172.409 139.337 172.081 140.045 171.853C140.752 171.613 141.498 171.493 142.282 171.493C143.571 171.493 144.563 171.815 145.258 172.46C145.966 173.092 146.32 174.059 146.32 175.361V181.541H145.031ZM141.599 181.636C140.853 181.636 140.203 181.516 139.646 181.276C139.103 181.023 138.686 180.682 138.395 180.252C138.104 179.809 137.959 179.304 137.959 178.735C137.959 178.217 138.079 177.749 138.319 177.332C138.572 176.903 138.977 176.561 139.533 176.309C140.101 176.043 140.86 175.91 141.808 175.91H145.239V176.915H141.846C140.885 176.915 140.215 177.086 139.836 177.427C139.469 177.768 139.286 178.192 139.286 178.697C139.286 179.266 139.507 179.721 139.95 180.062C140.392 180.404 141.011 180.574 141.808 180.574C142.566 180.574 143.217 180.404 143.76 180.062C144.316 179.708 144.721 179.203 144.974 178.546L145.277 179.475C145.024 180.132 144.582 180.656 143.95 181.048C143.331 181.44 142.547 181.636 141.599 181.636Z" fill="white" fill-opacity="0.5"/>
    <g opacity="0.5">
        <path d="M112.632 36.3477L96.3562 29.8373C96.2009 29.7756 96.0279 29.7756 95.8725 29.8373L79.5965 36.3477C79.4758 36.3961 79.3723 36.4796 79.2995 36.5874C79.2266 36.6952 79.1877 36.8224 79.1877 36.9525V48.5091C79.1757 53.6118 80.7913 58.5853 83.7997 62.7068C86.8081 66.8284 91.0526 69.8831 95.9161 71.4269C96.0453 71.4681 96.1841 71.4681 96.3133 71.4269C101.177 69.883 105.421 66.8282 108.43 62.7066C111.438 58.5849 113.054 53.6112 113.042 48.5084V36.9525C113.042 36.8223 113.003 36.695 112.93 36.5872C112.857 36.4794 112.753 36.396 112.632 36.3477ZM111.74 48.5091C111.751 53.3 110.245 57.9715 107.438 61.8541C104.632 65.7366 100.668 68.631 96.1147 70.1223C91.5617 68.6309 87.5977 65.7365 84.7908 61.8538C81.9839 57.9711 80.4783 53.2994 80.4898 48.5084V37.3932L96.1147 31.1432L111.74 37.3932V48.5091Z" fill="white"/>
        <path d="M95.8725 32.6426L82.2007 38.1113C82.08 38.1597 81.9766 38.2431 81.9037 38.3508C81.8309 38.4584 81.7919 38.5855 81.7919 38.7155V48.5091C81.7996 52.9075 83.1554 57.1978 85.6766 60.802C88.1977 64.4062 91.763 67.151 95.8921 68.6665C96.0359 68.719 96.1936 68.719 96.3374 68.6665C100.467 67.1509 104.032 64.406 106.553 60.8017C109.074 57.1974 110.43 52.9069 110.438 48.5084V38.7155C110.438 38.5853 110.399 38.4581 110.326 38.3502C110.253 38.2424 110.149 38.159 110.028 38.1107L96.3563 32.6419C96.2009 32.5803 96.0279 32.5809 95.8725 32.6426ZM109.136 39.1556V48.5084C109.128 52.5993 107.88 56.5917 105.555 59.9577C103.23 63.3238 99.9381 65.9049 96.1147 67.3599C92.2914 65.9048 88.9997 63.3237 86.6747 59.9576C84.3498 56.5916 83.1012 52.5993 83.0939 48.5084V39.1562L96.1147 33.9479L109.136 39.1556Z" fill="white"/>
        <path d="M92.0177 48.2097C91.8956 48.0877 91.7301 48.0191 91.5574 48.0191C91.3848 48.0191 91.2192 48.0877 91.0971 48.2097L89.144 50.1629C89.022 50.285 88.9534 50.4505 88.9534 50.6232C88.9534 50.7958 89.022 50.9613 89.144 51.0834L93.7013 55.6407C93.8234 55.7628 93.989 55.8313 94.1616 55.8313C94.3342 55.8313 94.4998 55.7628 94.6219 55.6407L103.085 47.1772C103.207 47.0551 103.276 46.8895 103.276 46.7169C103.276 46.5443 103.207 46.3787 103.085 46.2566L101.132 44.3035C101.01 44.1815 100.845 44.1129 100.672 44.1129C100.499 44.1129 100.334 44.1815 100.212 44.3035L94.1616 50.3536L92.0177 48.2097ZM100.672 45.6844L101.705 46.7169L94.1616 54.2599L90.5249 50.6232L91.5574 49.5906L93.7013 51.7345C93.8234 51.8565 93.989 51.9251 94.1616 51.9251C94.3342 51.9251 94.4998 51.8565 94.6219 51.7345L100.672 45.6844ZM88.907 38.9357C88.8426 38.7756 88.7174 38.6475 88.5588 38.5796C88.4001 38.5116 88.221 38.5093 88.0607 38.5731L84.8055 39.8751C84.6846 39.9235 84.581 40.007 84.5081 40.1148C84.4351 40.2226 84.396 40.3498 84.396 40.48V43.95C84.396 44.1227 84.4646 44.2883 84.5867 44.4104C84.7088 44.5324 84.8744 44.601 85.047 44.601C85.2197 44.601 85.3853 44.5324 85.5074 44.4104C85.6295 44.2883 85.6981 44.1227 85.6981 43.95V40.9207L88.5444 39.7827C88.6238 39.7509 88.6962 39.7039 88.7573 39.6441C88.8185 39.5844 88.8674 39.5132 88.901 39.4346C88.9347 39.356 88.9526 39.2716 88.9536 39.1861C88.9546 39.1006 88.9388 39.0151 88.907 38.9357ZM102.138 60.1778C100.408 62.1229 98.2625 63.6544 95.8608 64.6589C95.7821 64.6922 95.7107 64.7408 95.6507 64.8017C95.5907 64.8626 95.5433 64.9348 95.5112 65.0141C95.4791 65.0933 95.4629 65.1781 95.4636 65.2636C95.4642 65.3491 95.4818 65.4337 95.5151 65.5124C95.5484 65.5912 95.597 65.6626 95.6579 65.7225C95.7188 65.7825 95.791 65.8299 95.8703 65.862C95.9495 65.8941 96.0343 65.9103 96.1198 65.9096C96.2053 65.909 96.2899 65.8915 96.3686 65.8581C98.9487 64.7781 101.253 63.1324 103.112 61.0424C103.227 60.9132 103.285 60.7438 103.275 60.5714C103.265 60.399 103.187 60.2378 103.057 60.1231C102.928 60.0085 102.759 59.9498 102.586 59.9601C102.414 59.9703 102.253 60.0486 102.138 60.1778Z" fill="white"/>
    </g>
    <path d="M187.952 36.4384L97.4575 0.257002C96.5938 -0.0856674 95.6317 -0.0856674 94.768 0.257002L4.27359 36.4384C3.60229 36.7078 3.02704 37.1719 2.62191 37.771C2.21677 38.37 2.0003 39.0765 2.00037 39.7996V104.025C1.93355 132.383 10.9164 160.024 27.6432 182.929C44.3701 205.834 67.9692 222.811 95.0106 231.391C95.7288 231.62 96.5004 231.62 97.2186 231.391C124.261 222.811 147.86 205.834 164.587 182.928C181.314 160.022 190.296 132.38 190.229 104.022V39.7996C190.229 39.076 190.012 38.369 189.606 37.7698C189.201 37.1706 188.624 36.7068 187.952 36.4384ZM182.989 104.025C183.052 130.651 174.68 156.612 159.074 178.19C143.468 199.767 121.429 215.852 96.1146 224.14C70.7998 215.852 48.7599 199.766 33.1537 178.188C17.5475 156.61 9.17635 130.648 9.23992 104.022V42.2491L96.1146 7.51499L182.989 42.2491V104.025Z" fill="white" fill-opacity="0.5"/>
    <path d="M132.699 101.155L118.607 80.2557C118.544 80.1638 118.464 80.0856 118.37 80.026C118.277 79.9664 118.172 79.9267 118.062 79.9092C117.839 79.8679 117.617 79.9257 117.435 80.0495L107.716 87.1122L102.551 87.0792C100.29 87.0709 98.0292 87.5907 95.9912 88.6056L83.2354 87.8547L74.0523 82.2689C73.8625 82.1534 73.6397 82.1204 73.4252 82.1699C73.2107 82.2194 73.0292 82.3597 72.9137 82.5412L60.3477 103.3C60.1166 103.688 60.2322 104.191 60.6199 104.431L69.8774 110.157L73.2024 112.31L72.2784 113.432C70.851 115.165 71.1067 117.739 72.8394 119.167C73.5985 119.785 74.5143 120.091 75.4219 120.091C75.5374 120.091 75.6529 120.082 75.7767 120.074C75.4219 121.543 75.8922 123.152 77.1298 124.175C77.7213 124.66 78.4372 124.969 79.1958 125.067C79.9544 125.164 80.7252 125.047 81.4203 124.728C81.5358 125.784 82.0473 126.741 82.8724 127.417C83.6067 128.02 84.5143 128.342 85.4467 128.342C85.5787 128.342 85.7189 128.342 85.851 128.325C86.3834 128.275 86.9005 128.119 87.3722 127.867C87.8439 127.614 88.2607 127.271 88.5985 126.856L89.1348 126.205C89.341 127.054 89.8031 127.813 90.4879 128.375C91.247 128.993 92.1628 129.299 93.0704 129.299C93.978 129.299 94.8939 128.985 95.6364 128.391L96.5688 129.134C97.0321 129.479 97.5596 129.73 98.1205 129.87C98.6814 130.01 99.2645 130.037 99.8361 129.95C100.999 129.777 102.023 129.167 102.724 128.226C103.316 127.421 103.613 126.436 103.565 125.437L103.673 125.52C104.457 126.106 105.381 126.386 106.288 126.386C106.975 126.388 107.652 126.229 108.266 125.921C108.879 125.613 109.412 125.164 109.82 124.612C110.546 123.63 110.801 122.442 110.636 121.32C110.958 121.394 111.288 121.444 111.618 121.444C112.305 121.446 112.982 121.287 113.596 120.979C114.209 120.67 114.742 120.222 115.15 119.67C116.065 118.441 116.23 116.881 115.744 115.536C115.925 115.536 116.107 115.52 116.288 115.495C117.437 115.327 118.472 114.711 119.168 113.782C119.864 112.853 120.163 111.686 120.001 110.536L122.196 108.927L132.46 102.302C132.65 102.178 132.773 101.988 132.823 101.774C132.864 101.559 132.823 101.328 132.699 101.147V101.155ZM73.8955 84.1089L81.8411 88.9439L70.0341 108.325L62.1794 103.465L73.8873 84.1171L73.8955 84.1089ZM73.8955 117.896C73.4001 117.488 73.087 116.899 73.0251 116.261C72.9632 115.622 73.1576 114.984 73.5655 114.488L76.5605 110.842C76.9681 110.346 77.5556 110.032 78.1944 109.968C78.8332 109.905 79.471 110.097 79.9681 110.503C80.464 110.911 80.7781 111.498 80.8415 112.137C80.905 112.776 80.7125 113.414 80.3064 113.911L77.9137 116.823L77.3114 117.558C76.9031 118.053 76.3149 118.366 75.6759 118.428C75.0369 118.49 74.3995 118.296 73.9038 117.888L73.8955 117.896ZM78.1859 122.904C77.6905 122.496 77.3774 121.908 77.3155 121.269C77.2536 120.63 77.448 119.992 77.8559 119.497L78.582 118.614L79.1843 117.879L83.2024 112.995C83.615 112.492 84.1925 112.186 84.8361 112.12C84.9186 112.12 84.9929 112.112 85.0754 112.112C85.6364 112.112 86.1727 112.302 86.61 112.665C87.1059 113.073 87.42 113.66 87.4834 114.299C87.5469 114.938 87.3544 115.575 86.9483 116.073L81.6018 122.582C81.1935 123.078 80.6053 123.391 79.9663 123.453C79.3273 123.515 78.6899 123.32 78.1942 122.912L78.1859 122.904ZM87.3361 125.809C86.9236 126.312 86.346 126.617 85.7024 126.683C85.0589 126.741 84.4318 126.551 83.9285 126.147C83.4326 125.739 83.1185 125.152 83.0551 124.513C82.9917 123.874 83.1841 123.236 83.5902 122.739L89.0193 116.139C89.4268 115.643 90.0144 115.329 90.6531 115.265C91.2919 115.202 91.9298 115.394 92.4269 115.8C92.9223 116.209 93.2354 116.797 93.2973 117.436C93.3592 118.075 93.1648 118.712 92.7569 119.208L91.5358 120.701L89.9351 122.648L87.3361 125.809ZM91.544 127.104C91.0486 126.696 90.7355 126.107 90.6736 125.468C90.6117 124.829 90.8061 124.192 91.214 123.696L92.8146 121.749C93.2272 121.254 93.8047 120.941 94.4483 120.875C94.5308 120.875 94.6051 120.866 94.6876 120.866C95.2486 120.866 95.7849 121.056 96.2222 121.419C96.7182 121.827 97.0322 122.414 97.0957 123.053C97.1591 123.692 96.9666 124.33 96.5605 124.827L94.9599 126.774C94.5516 127.269 93.9634 127.582 93.3244 127.644C92.6854 127.706 92.048 127.512 91.5523 127.104H91.544ZM117.848 112.789C117.41 113.375 116.767 113.762 116.049 113.87C115.692 113.924 115.328 113.906 114.979 113.818C114.629 113.73 114.3 113.574 114.011 113.358L107.716 108.672C107.534 108.54 107.311 108.49 107.105 108.515C106.899 108.548 106.701 108.655 106.561 108.837C106.496 108.924 106.448 109.023 106.422 109.128C106.395 109.233 106.39 109.343 106.406 109.45C106.422 109.558 106.46 109.661 106.516 109.754C106.572 109.847 106.646 109.928 106.734 109.992L113.268 114.851C114.481 115.751 114.737 117.475 113.838 118.688C112.938 119.901 111.214 120.157 110.001 119.249L108.937 118.457L103.549 114.455C103.462 114.39 103.363 114.343 103.258 114.317C103.152 114.29 103.043 114.285 102.935 114.301C102.828 114.317 102.725 114.354 102.632 114.411C102.539 114.467 102.458 114.541 102.394 114.629C102.329 114.716 102.282 114.815 102.255 114.92C102.229 115.025 102.223 115.135 102.24 115.242C102.256 115.35 102.293 115.453 102.349 115.546C102.405 115.639 102.479 115.72 102.567 115.784L107.955 119.785C109.168 120.693 109.424 122.409 108.516 123.622C108.301 123.911 108.031 124.155 107.722 124.34C107.413 124.524 107.07 124.646 106.714 124.698C106.358 124.75 105.994 124.732 105.645 124.643C105.296 124.555 104.968 124.398 104.679 124.183L101.841 122.071L100.694 121.213C100.513 121.081 100.29 121.031 100.084 121.056C100.034 121.056 99.9846 121.089 99.9351 121.106C99.8773 121.13 99.8113 121.147 99.7618 121.18C99.6793 121.229 99.6051 121.295 99.5473 121.378C99.4401 121.518 99.4071 121.683 99.3988 121.848C99.3988 121.898 99.3823 121.939 99.3988 121.988C99.3988 122.005 99.4153 122.021 99.4153 122.038C99.4318 122.12 99.4566 122.211 99.5061 122.285C99.5638 122.376 99.6298 122.459 99.7288 122.533L100.884 123.391C101.47 123.828 101.849 124.464 101.957 125.19C102.064 125.916 101.882 126.642 101.445 127.228C101.008 127.813 100.364 128.201 99.6463 128.309C99.2947 128.363 98.9358 128.347 98.5903 128.262C98.2448 128.177 97.9195 128.025 97.6331 127.813L96.8163 127.162L97.8806 125.858C98.5737 125.016 98.8955 123.96 98.7882 122.879C98.681 121.799 98.1612 120.817 97.3196 120.132C96.5688 119.513 95.6447 119.216 94.6793 119.224C95.3476 117.607 94.9434 115.685 93.5242 114.513C92.9229 114.014 92.1892 113.7 91.4126 113.611C90.6361 113.521 89.8503 113.66 89.1513 114.01C89.0236 112.958 88.4894 111.998 87.6629 111.335C86.8364 110.672 85.7833 110.359 84.7288 110.462C83.8625 110.545 83.0704 110.908 82.4351 111.469C82.2371 110.594 81.775 109.802 81.0655 109.224C79.3328 107.797 76.7586 108.053 75.3312 109.785L74.3081 111.031L71.4863 109.191L83.4747 89.5049L93.3922 90.0907L83.4087 95.858C82.4021 96.4356 81.676 97.3762 81.379 98.5065C81.0737 99.6287 81.2305 100.809 81.8163 101.815C82.5919 103.16 84.044 104.002 85.5952 104.002C86.3543 104.002 87.1051 103.795 87.7734 103.416L99.9764 96.3696L109.935 103.441L117.336 108.944C117.922 109.381 118.31 110.025 118.417 110.743C118.524 111.46 118.343 112.195 117.905 112.78L117.848 112.789ZM119.424 108.911C119.127 108.416 118.739 107.978 118.26 107.624L110.843 102.104H110.834L100.438 94.7277C100.31 94.6348 100.157 94.5814 99.999 94.574C99.8407 94.5667 99.6837 94.6058 99.5473 94.6864L86.8823 101.997C86.4698 102.236 85.9995 102.36 85.5292 102.36C85.0523 102.359 84.5841 102.232 84.1715 101.993C83.7588 101.754 83.4161 101.411 83.1777 100.998C82.8147 100.371 82.7156 99.6452 82.9054 98.9438C83.0952 98.2425 83.5407 97.665 84.1678 97.3019L96.049 90.4455C98.0127 89.3069 100.265 88.7541 102.526 88.7376L107.526 88.7706L120.587 108.069L119.424 108.919V108.911ZM121.948 107.12L109.102 88.1353L117.707 81.8894L130.851 101.378L121.948 107.12Z" fill="white" fill-opacity="0.3"/>
</svg>