<svg width="18" height="18" viewBox="0 0 18 18" fill="none" xmlns="http://www.w3.org/2000/svg">
    <path d="M7.30749 4.22035C7.94956 2.61967 8.2706 1.81932 8.79218 1.7084C8.92932 1.67923 9.07107 1.67923 9.20821 1.7084C9.72979 1.81932 10.0508 2.61967 10.6929 4.22035C11.058 5.13063 11.2406 5.58577 11.5822 5.89534C11.678 5.98217 11.782 6.0595 11.8928 6.12625C12.2876 6.36423 12.7805 6.40837 13.7663 6.49665C15.4351 6.6461 16.2695 6.72083 16.5243 7.19657C16.577 7.2951 16.6129 7.40178 16.6304 7.51218C16.7149 8.04521 16.1015 8.60327 14.8747 9.71939L14.534 10.0293C13.9605 10.5511 13.6737 10.812 13.5078 11.1376C13.4083 11.333 13.3416 11.5433 13.3104 11.7603C13.2582 12.122 13.3422 12.5004 13.5102 13.2574L13.5702 13.5279C13.8714 14.8854 14.022 15.5642 13.834 15.8978C13.6651 16.1975 13.3541 16.3894 13.0105 16.4058C12.6279 16.4241 12.089 15.9849 11.011 15.1065C10.3008 14.5278 9.94567 14.2384 9.55146 14.1254C9.19121 14.0221 8.80918 14.0221 8.44894 14.1254C8.05473 14.2384 7.69962 14.5278 6.98941 15.1065C5.91144 15.9849 5.37245 16.4241 4.98993 16.4058C4.64633 16.3894 4.33528 16.1975 4.16642 15.8978C3.97842 15.5642 4.12902 14.8854 4.43022 13.5279L4.49023 13.2574C4.65818 12.5004 4.74216 12.122 4.69004 11.7603C4.65878 11.5433 4.59207 11.333 4.49257 11.1376C4.32669 10.812 4.03992 10.5511 3.46637 10.0293L3.1257 9.71939C1.89891 8.60327 1.28552 8.04521 1.36999 7.51218C1.38749 7.40178 1.42337 7.2951 1.47614 7.19657C1.73094 6.72083 2.56532 6.6461 4.23408 6.49665C5.21986 6.40837 5.71276 6.36423 6.1076 6.12625C6.21834 6.0595 6.32236 5.98217 6.41818 5.89534C6.75979 5.58577 6.94236 5.13063 7.30749 4.22035Z" fill="#FFAB3A" stroke="#FFAB3A" stroke-width="2"/>
</svg>
