<svg width="20" height="20" viewBox="0 0 20 20" fill="none" xmlns="http://www.w3.org/2000/svg">
    <path d="M8.14386 4.62753C8.93046 2.66653 9.32377 1.68604 10.0001 1.68604C10.6764 1.68604 11.0697 2.66653 11.8563 4.62753L11.893 4.71885C12.3373 5.82672 12.5595 6.38065 13.0124 6.71734C13.4652 7.05403 14.0597 7.10727 15.2486 7.21374L15.4636 7.23299C17.4094 7.40726 18.3823 7.49439 18.5905 8.11337C18.7986 8.73235 18.0761 9.3897 16.6311 10.7044L16.1488 11.1432C15.4173 11.8087 15.0515 12.1414 14.8811 12.5776C14.8493 12.6589 14.8228 12.7423 14.8019 12.8271C14.6899 13.2817 14.797 13.7645 15.0112 14.7299L15.0778 15.0305C15.4715 16.8048 15.6684 17.692 15.3247 18.0746C15.1963 18.2176 15.0293 18.3206 14.8439 18.3712C14.3477 18.5066 13.6433 17.9325 12.2343 16.7844C11.3091 16.0305 10.8465 15.6536 10.3154 15.5688C10.1065 15.5354 9.89366 15.5354 9.68475 15.5688C9.15365 15.6536 8.69106 16.0305 7.76589 16.7844C6.35694 17.9325 5.65246 18.5066 5.15626 18.3712C4.97084 18.3206 4.80393 18.2176 4.67551 18.0746C4.33183 17.692 4.52866 16.8048 4.92234 15.0305L4.98902 14.7299C5.20322 13.7645 5.31033 13.2817 5.19827 12.8271C5.17737 12.7423 5.15093 12.6589 5.11913 12.5776C4.94866 12.1414 4.58291 11.8087 3.8514 11.1432L3.36912 10.7044C1.92408 9.3897 1.20155 8.73235 1.40973 8.11337C1.61791 7.49439 2.59082 7.40726 4.53663 7.23299L4.75157 7.21374C5.94049 7.10727 6.53494 7.05403 6.98779 6.71734C7.44064 6.38065 7.66284 5.82672 8.10723 4.71885L8.14386 4.62753Z" stroke="#FFAB3A" stroke-width="2"/>
</svg>
