<svg width="37" height="37" viewBox="0 0 37 37" fill="none" xmlns="http://www.w3.org/2000/svg">
<path fill-rule="evenodd" clip-rule="evenodd" d="M12.4061 26.625C12.4061 27.2912 12.9586 27.8437 13.6248 27.8437C14.2911 27.8437 14.8436 27.2912 14.8436 26.625V19.8163L16.0136 20.9863C16.2573 21.23 16.5661 21.3438 16.8748 21.3438C17.1836 21.3438 17.4923 21.23 17.7361 20.9863C18.2073 20.515 18.2073 19.735 17.7361 19.2638L14.5453 16.073C14.4283 15.9379 14.2807 15.8289 14.1096 15.7591C14.0988 15.7545 14.088 15.7501 14.0772 15.7458C13.8122 15.6377 13.5211 15.633 13.2579 15.7158C13.0922 15.7672 12.9358 15.8545 12.8016 15.9774C12.7887 15.9892 12.776 16.0013 12.7636 16.0137L9.51359 19.2637C9.04234 19.735 9.04234 20.515 9.51359 20.9862C9.98484 21.4575 10.7648 21.4575 11.2361 20.9862L12.4061 19.8162V26.625Z" fill="#FFAB3A"/>
<path d="M14.8436 19.8163L15.2325 19.4274L14.2936 18.4885V19.8163H14.8436ZM16.0136 20.9863L16.4025 20.5974L16.4025 20.5974L16.0136 20.9863ZM17.7361 20.9863L17.3472 20.5974L17.7361 20.9863ZM17.7361 19.2638L18.125 18.8749L18.125 18.8749L17.7361 19.2638ZM14.5453 16.073L14.1297 16.4332L14.1425 16.448L14.1564 16.4619L14.5453 16.073ZM14.1096 15.7591L13.8932 16.2649L13.9019 16.2684L14.1096 15.7591ZM14.0772 15.7458L13.8695 16.2551L13.8756 16.2575L14.0772 15.7458ZM13.2579 15.7158L13.4209 16.2411L13.4229 16.2405L13.2579 15.7158ZM12.8016 15.9774L13.1727 16.3834L13.1731 16.3829L12.8016 15.9774ZM12.7636 16.0137L13.1525 16.4026L13.1525 16.4026L12.7636 16.0137ZM9.51359 19.2637L9.9025 19.6526L9.51359 19.2637ZM9.51359 20.9862L9.12468 21.3751H9.12468L9.51359 20.9862ZM11.2361 20.9862L11.625 21.3751L11.2361 20.9862ZM12.4061 19.8162H12.9561V18.4884L12.0172 19.4273L12.4061 19.8162ZM13.6248 27.2937C13.2624 27.2937 12.9561 26.9875 12.9561 26.625H11.8561C11.8561 27.595 12.6548 28.3937 13.6248 28.3937V27.2937ZM14.2936 26.625C14.2936 26.9875 13.9873 27.2937 13.6248 27.2937V28.3937C14.5949 28.3937 15.3936 27.595 15.3936 26.625H14.2936ZM14.2936 19.8163V26.625H15.3936V19.8163H14.2936ZM16.4025 20.5974L15.2325 19.4274L14.4547 20.2052L15.6247 21.3752L16.4025 20.5974ZM16.8748 20.7938C16.7041 20.7938 16.5377 20.7325 16.4025 20.5974L15.6247 21.3752C15.977 21.7275 16.4281 21.8938 16.8748 21.8938V20.7938ZM17.3472 20.5974C17.212 20.7325 17.0456 20.7938 16.8748 20.7938V21.8938C17.3216 21.8938 17.7727 21.7275 18.125 21.3752L17.3472 20.5974ZM17.3472 19.6527C17.6036 19.9091 17.6036 20.3409 17.3472 20.5974L18.125 21.3752C18.811 20.6891 18.811 19.5609 18.125 18.8749L17.3472 19.6527ZM14.1564 16.4619L17.3472 19.6527L18.125 18.8749L14.9342 15.6841L14.1564 16.4619ZM13.9019 16.2684C13.9892 16.304 14.0666 16.3604 14.1297 16.4332L14.961 15.7128C14.79 15.5155 14.5721 15.3537 14.3172 15.2498L13.9019 16.2684ZM13.8756 16.2575C13.8815 16.2599 13.8874 16.2623 13.8933 16.2648L14.3258 15.2534C14.3102 15.2468 14.2946 15.2403 14.2788 15.2341L13.8756 16.2575ZM13.4229 16.2405C13.5714 16.1937 13.7302 16.1983 13.8695 16.2551L14.2849 15.2366C13.8941 15.0772 13.4708 15.0722 13.0928 15.1912L13.4229 16.2405ZM13.1731 16.3829C13.2454 16.3167 13.33 16.2693 13.4209 16.2411L13.0948 15.1905C12.8544 15.2652 12.6261 15.3922 12.43 15.5719L13.1731 16.3829ZM13.1525 16.4026C13.1591 16.3961 13.1658 16.3896 13.1727 16.3834L12.4305 15.5715C12.4115 15.5888 12.3929 15.6066 12.3747 15.6248L13.1525 16.4026ZM9.9025 19.6526L13.1525 16.4026L12.3747 15.6248L9.12468 18.8748L9.9025 19.6526ZM9.9025 20.5973C9.64604 20.3409 9.64604 19.9091 9.9025 19.6526L9.12468 18.8748C8.43865 19.5609 8.43865 20.6891 9.12468 21.3751L9.9025 20.5973ZM10.8472 20.5973C10.5907 20.8538 10.159 20.8538 9.9025 20.5973L9.12468 21.3751C9.81072 22.0612 10.939 22.0612 11.625 21.3751L10.8472 20.5973ZM12.0172 19.4273L10.8472 20.5973L11.625 21.3751L12.795 20.2051L12.0172 19.4273ZM12.9561 26.625V19.8162H11.8561V26.625H12.9561Z" fill="#FFAB3A"/>
<path d="M23.375 35.9688H13.625C4.80125 35.9688 1.03125 32.1987 1.03125 23.375V13.625C1.03125 4.80125 4.80125 1.03125 13.625 1.03125H21.75C22.4163 1.03125 22.9688 1.58375 22.9688 2.25C22.9688 2.91625 22.4163 3.46875 21.75 3.46875H13.625C6.13375 3.46875 3.46875 6.13375 3.46875 13.625V23.375C3.46875 30.8663 6.13375 33.5312 13.625 33.5312H23.375C30.8663 33.5312 33.5312 30.8663 33.5312 23.375V15.25C33.5312 14.5837 34.0838 14.0312 34.75 14.0312C35.4162 14.0312 35.9688 14.5837 35.9688 15.25V23.375C35.9688 32.1987 32.1987 35.9688 23.375 35.9688Z" fill="#FFAB3A" stroke="#FFAB3A" stroke-width="1.1"/>
<path d="M34.75 16.4687H28.25C22.6925 16.4687 20.5312 14.3075 20.5312 8.74998V2.24998C20.5312 1.76248 20.8238 1.30748 21.2788 1.12873C21.7338 0.933732 22.2537 1.04748 22.6112 1.38873L35.6113 14.3887C35.7807 14.5595 35.8959 14.7765 35.9424 15.0125C35.9889 15.2485 35.9646 15.493 35.8726 15.7152C35.7805 15.9375 35.6249 16.1276 35.4252 16.2616C35.2254 16.3957 34.9905 16.4678 34.75 16.4687ZM22.9688 5.19123V8.74998C22.9688 12.9425 24.0575 14.0312 28.25 14.0312H31.8088L22.9688 5.19123Z" fill="#FFAB3A" stroke="#FFAB3A" stroke-width="1.1"/>
</svg>
