<svg width="42" height="42" viewBox="0 0 42 42" fill="none" xmlns="http://www.w3.org/2000/svg">
    <path d="M3.5 15.75C3.5 12.4502 3.5 10.8003 4.52513 9.77513C5.55025 8.75 7.20017 8.75 10.5 8.75H31.5C34.7998 8.75 36.4497 8.75 37.4749 9.77513C38.5 10.8003 38.5 12.4502 38.5 15.75C38.5 16.575 38.5 16.9874 38.2437 17.2437C37.9874 17.5 37.575 17.5 36.75 17.5H5.25C4.42504 17.5 4.01256 17.5 3.75628 17.2437C3.5 16.9874 3.5 16.575 3.5 15.75Z" fill="#0046B8"/>
    <path fill-rule="evenodd" clip-rule="evenodd" d="M4.52513 37.4749C3.5 36.4497 3.5 34.7998 3.5 31.5V22.75C3.5 21.925 3.5 21.5126 3.75628 21.2563C4.01256 21 4.42504 21 5.25 21H36.75C37.575 21 37.9874 21 38.2437 21.2563C38.5 21.5126 38.5 21.925 38.5 22.75V31.5C38.5 34.7998 38.5 36.4497 37.4749 37.4749C36.4497 38.5 34.7998 38.5 31.5 38.5H10.5C7.20017 38.5 5.55025 38.5 4.52513 37.4749ZM14 28C13.0335 28 12.25 28.7835 12.25 29.75C12.25 30.7165 13.0335 31.5 14 31.5H28C28.9665 31.5 29.75 30.7165 29.75 29.75C29.75 28.7835 28.9665 28 28 28H14Z" fill="#0046B8"/>
    <path d="M12.25 5.25L12.25 10.5" stroke="#0046B8" stroke-width="3.5" stroke-linecap="round"/>
    <path d="M29.75 5.25L29.75 10.5" stroke="#0046B8" stroke-width="3.5" stroke-linecap="round"/>
</svg>
