<svg width="50" height="50" viewBox="0 0 50 50" fill="none" xmlns="http://www.w3.org/2000/svg">
    <rect width="50" height="50" rx="15" fill="white"/>
    <path d="M15 22C15 21.5356 15 21.3034 15.022 21.1081C15.2048 19.4855 16.4855 18.2048 18.1081 18.022C18.3034 18 18.5356 18 19 18H31C31.4644 18 31.6966 18 31.8919 18.022C33.5145 18.2048 34.7952 19.4855 34.978 21.1081C35 21.3034 35 21.5356 35 22C35 22.1161 35 22.1741 34.9945 22.223C34.9488 22.6286 34.6286 22.9488 34.223 22.9945C34.1741 23 34.1161 23 34 23H16C15.8839 23 15.8259 23 15.777 22.9945C15.3714 22.9488 15.0512 22.6286 15.0055 22.223C15 22.1741 15 22.1161 15 22Z" fill="#0046B8"/>
    <path fill-rule="evenodd" clip-rule="evenodd" d="M16.0251 33.9749C15 32.9497 15 31.2998 15 28V26.75C15 25.925 15 25.5126 15.2563 25.2563C15.5126 25 15.925 25 16.75 25H33.25C34.075 25 34.4874 25 34.7437 25.2563C35 25.5126 35 25.925 35 26.75V28C35 31.2998 35 32.9497 33.9749 33.9749C32.9497 35 31.2998 35 28 35H22C18.7002 35 17.0503 35 16.0251 33.9749ZM21 28.25C20.0335 28.25 19.25 29.0335 19.25 30C19.25 30.9665 20.0335 31.75 21 31.75H29C29.9665 31.75 30.75 30.9665 30.75 30C30.75 29.0335 29.9665 28.25 29 28.25H21Z" fill="#0046B8"/>
    <path d="M20 16L20 19" stroke="#0046B8" stroke-width="3.5" stroke-linecap="round"/>
    <path d="M30 16L30 19" stroke="#0046B8" stroke-width="3.5" stroke-linecap="round"/>
</svg>
