<svg xmlns="http://www.w3.org/2000/svg" width="44" height="44" viewBox="0 0 44 44" fill="none">
    <g clip-path="url(#clip0_466_2211)">
        <path d="M12.7839 25.1257C14.0204 25.1257 15.2156 25.0458 16.3466 24.8971V12.5003C15.2157 12.3518 14.0204 12.2719 12.7839 12.2719C5.7236 12.2719 0.000109561 14.8677 0.000109561 18.07V19.3274C0.000109561 22.5296 5.7236 25.1257 12.7839 25.1257ZM12.7839 31.5988C14.0204 31.5988 15.2156 31.5189 16.3466 31.3704V27.7367C15.2153 27.8853 14.0207 27.9663 12.7839 27.9663C6.62102 27.9663 1.47722 25.9882 0.268973 23.3557C0.0930177 23.7392 0.000109561 24.1362 0.000109561 24.5432V25.8007C0.000109561 29.0029 5.7236 31.5988 12.7839 31.5988ZM16.3465 34.4925V34.2101C15.2152 34.3586 14.0206 34.4396 12.7837 34.4396C6.62091 34.4396 1.47711 32.4616 0.268864 29.829C0.0929081 30.2124 0 30.6094 0 31.0164V32.2739C0 35.4763 5.72349 38.0721 12.7837 38.0721C14.1957 38.0721 15.5537 37.968 16.8236 37.7763C16.5088 37.1324 16.3465 36.4533 16.3465 35.7498V34.4925ZM31.2163 2.4519C24.156 2.4519 18.4325 5.04774 18.4325 8.25001V9.50744C18.4325 12.7097 24.156 15.3055 31.2163 15.3055C38.2764 15.3055 44 12.7097 44 9.50744V8.25001C44 5.04774 38.2764 2.4519 31.2163 2.4519Z" fill="#0046B8"/>
        <path d="M31.2164 18.1463C25.0535 18.1463 19.9097 16.1684 18.7015 13.5357C18.5255 13.9191 18.4326 14.3161 18.4326 14.7232V15.9807C18.4326 19.1829 24.1561 21.7788 31.2164 21.7788C38.2765 21.7788 44.0001 19.1829 44.0001 15.9807V14.7232C44.0001 14.3161 43.9072 13.9191 43.7312 13.5357C42.523 16.1684 37.3792 18.1463 31.2164 18.1463Z" fill="#0046B8"/>
        <path d="M31.2164 24.6196C25.0535 24.6196 19.9097 22.6416 18.7015 20.009C18.5255 20.3924 18.4326 20.7894 18.4326 21.1966V22.454C18.4326 25.6564 24.1561 28.2522 31.2164 28.2522C38.2765 28.2522 44.0001 25.6564 44.0001 22.454V21.1966C44.0001 20.7894 43.9072 20.3924 43.7312 20.009C42.523 22.6417 37.3792 24.6196 31.2164 24.6196Z" fill="#0046B8"/>
        <path d="M31.2164 31.4423C25.0535 31.4423 19.9097 29.4643 18.7015 26.8317C18.5255 27.2152 18.4326 27.6121 18.4326 28.0192V29.2767C18.4326 32.479 24.1561 35.0748 31.2164 35.0748C38.2765 35.0748 44.0001 32.479 44.0001 29.2767V28.0192C44.0001 27.6121 43.9072 27.215 43.7312 26.8317C42.523 29.4642 37.3792 31.4423 31.2164 31.4423Z" fill="#0046B8"/>
        <path d="M31.2164 37.9156C25.0535 37.9156 19.9097 35.9376 18.7015 33.3051C18.5255 33.6886 18.4326 34.0857 18.4326 34.4925V35.75C18.4326 38.9522 24.1561 41.5481 31.2164 41.5481C38.2765 41.5481 44.0001 38.9522 44.0001 35.75V34.4924C44.0001 34.0854 43.9072 33.6882 43.7312 33.305C42.523 35.9375 37.3792 37.9156 31.2164 37.9156Z" fill="#0046B8"/>
    </g>
    <defs>
        <clipPath id="clip0_466_2211">
            <rect width="44" height="44" fill="white"/>
        </clipPath>
    </defs>
</svg>
