<svg width="68" height="68" viewBox="0 0 68 68" fill="none" xmlns="http://www.w3.org/2000/svg">
    <rect width="68" height="68" rx="20" fill="#FFF3E5"/>
    <path fill-rule="evenodd" clip-rule="evenodd" d="M14.8335 34C14.8335 23.4583 23.4585 14.8333 34.0002 14.8333C44.5418 14.8333 53.1668 23.4583 53.1668 34C53.1668 44.5417 44.5418 53.1667 34.0002 53.1667C23.4585 53.1667 14.8335 44.5417 14.8335 34ZM31.2203 43.5812L22.9891 35.3501C22.2423 34.6033 22.2423 33.3925 22.9891 32.6457C23.7352 31.8996 24.9445 31.8988 25.6916 32.6438L31.2203 38.1571L42.2115 26.8613C42.9623 26.1105 44.1803 26.1127 44.9284 26.8661C45.6728 27.6158 45.6707 28.8264 44.9236 29.5734L31.2203 43.5812Z" fill="#FFAB3A"/>
</svg>
