<svg width="52" height="57" viewBox="0 0 52 57" fill="none" xmlns="http://www.w3.org/2000/svg">
<path d="M11.4508 26.9902C10.9866 26.9902 10.6104 26.6139 10.6104 26.1498V18.6131C10.6104 17.9224 11.1703 17.3624 11.861 17.3624H15.6909C16.0388 17.3624 16.3207 17.6444 16.3207 17.9922C16.3207 18.3401 16.0388 18.622 15.6909 18.622H14.3922H13.5418C12.8511 18.622 12.2912 19.182 12.2912 19.8727V20.1706C12.2912 20.8613 12.8511 21.4212 13.5418 21.4212H14.0421H15.1931C15.5796 21.4212 15.8929 21.7345 15.8929 22.121C15.8929 22.5075 15.5796 22.8208 15.1931 22.8208H13.5418C12.8511 22.8208 12.2912 23.3807 12.2912 24.0714V26.1498C12.2912 26.6139 11.9149 26.9902 11.4508 26.9902Z" fill="white"/>
<path d="M18.8488 26.9902C18.4189 26.9902 18.0704 26.6417 18.0704 26.2118V20.3743C18.0704 20.0402 18.3412 19.7694 18.6753 19.7694H18.986C19.2672 19.7694 19.4588 20.0543 19.3527 20.3147L19.1497 20.8132C19.1406 20.8355 19.157 20.86 19.1812 20.86C19.1955 20.86 19.2082 20.8511 19.2133 20.8377C19.3451 20.4906 19.5779 20.2082 19.9118 19.9903C20.2528 19.7678 20.6372 19.6565 21.0651 19.6565C21.1457 19.6565 21.2464 19.6581 21.3673 19.6612C21.5233 19.6653 21.6417 19.7941 21.6417 19.9501V20.5443C21.6417 20.6759 21.5162 20.7797 21.3859 20.7613C21.3273 20.7514 21.2679 20.7504 21.2069 20.7523C21.0539 20.7571 20.9017 20.7885 20.7594 20.8448C20.5411 20.9313 20.3894 21.0032 20.2051 21.1413C19.969 21.3182 19.9319 21.3957 19.8003 21.5414C19.7451 21.6025 19.6923 21.666 19.6431 21.7321C19.5566 21.8483 19.456 21.9712 19.3638 22.1233C19.258 22.2979 19.236 22.507 19.2576 22.71L19.4697 24.6956L19.6229 26.1291C19.672 26.5891 19.3115 26.9902 18.8488 26.9902Z" fill="white"/>
<path d="M25.7199 27.1406C25.0316 27.1406 24.438 26.9871 23.9388 26.6799C23.4428 26.3697 23.06 25.9372 22.7903 25.3824C22.5236 24.8246 22.3903 24.1758 22.3903 23.4362C22.3903 22.6966 22.5236 22.0447 22.7903 21.4806C23.06 20.9133 23.4351 20.4714 23.9156 20.1549C24.3992 19.8352 24.9634 19.6754 25.6082 19.6754C25.9803 19.6754 26.3476 19.738 26.7103 19.8634C27.073 19.9888 27.4032 20.1925 27.7008 20.4745C27.9984 20.7535 28.2356 21.1233 28.4123 21.584C28.589 22.0447 28.6773 22.612 28.6773 23.2858C28.6773 23.5454 28.4669 23.7559 28.2072 23.7559H23.6511C23.3863 23.7559 23.1716 23.5412 23.1716 23.2764C23.1716 23.0115 23.3863 22.7969 23.6511 22.7969L26.3673 22.7969C26.9489 22.7968 27.4296 22.3051 27.1677 21.7858C27.0096 21.4661 26.7038 21.2124 26.4093 21.0275C26.1179 20.8426 25.9874 20.8355 25.6082 20.8355C25.1711 20.8355 24.8926 20.9011 24.5135 21.1539C24.2783 21.3106 24.0861 21.5643 23.9156 21.9122C23.7892 22.2913 23.7551 22.4177 23.6287 22.9232L23.5446 23.3306C23.5072 23.5116 23.5105 23.6987 23.5526 23.8786C23.6541 24.3126 23.7263 24.6289 23.8815 24.9453C24.0706 25.3214 24.305 25.5062 24.6398 25.7036C24.9747 25.8979 25.2765 25.9564 25.7199 25.9564C26.0082 25.9564 26.3032 25.9115 26.5357 25.83C26.7713 25.7454 26.8708 25.7434 27.0413 25.5772C27.0914 25.5275 27.1442 25.4801 27.1961 25.4316C27.412 25.2298 27.7248 25.078 28.0091 25.1587C28.3146 25.2454 28.495 25.5719 28.3322 25.8445C28.2403 25.9985 28.1306 26.1422 28.0031 26.2757C27.7396 26.5483 27.4141 26.7614 27.0265 26.915C26.639 27.0654 26.2035 27.1406 25.7199 27.1406Z" fill="white"/>
<path d="M41.5434 22.3456C41.829 22.3456 42.0605 22.5771 42.0605 22.8627C42.0605 23.1483 41.829 23.3798 41.5434 23.3798H38.4111C38.1255 23.3798 37.8939 23.1483 37.8939 22.8627C37.8939 22.5771 38.1255 22.3456 38.4111 22.3456H41.5434Z" fill="white"/>
<path d="M11.4508 28.5448C11.9149 28.5448 12.2912 28.9211 12.2912 29.3852V37.3322C12.2912 37.7963 11.9149 38.1726 11.4508 38.1726C10.9866 38.1726 10.6104 37.7963 10.6104 37.3322V29.3852C10.6104 28.9211 10.9866 28.5448 11.4508 28.5448Z" fill="white"/>
<path d="M15.7924 38.2154C15.3398 38.2154 14.9077 38.0891 14.5285 37.9627C14.1493 37.8363 13.7344 37.4071 13.5174 37.078C13.3004 36.7458 13.2646 36.2843 13.2646 35.8142C13.2646 35.447 13.3367 35.1376 13.4657 34.8929C13.4978 34.8319 13.5292 34.7702 13.5621 34.7096C13.6924 34.4702 13.9097 34.3021 14.1493 34.1712C14.419 34.0239 14.8349 33.8642 15.1605 33.7921C15.4891 33.7169 15.767 33.6621 16.0987 33.6182C16.5327 33.5618 16.913 33.5675 17.1827 33.5393C17.454 33.5081 17.6881 33.4853 17.8126 33.4141C17.814 33.4133 17.8153 33.4126 17.8167 33.4117C17.8327 33.4014 17.9411 33.3256 17.9411 33.1602V32.6546C17.9411 32.1491 17.6883 32.0227 17.4355 31.8963C17.1827 31.77 16.9297 31.6436 16.4244 31.6436C15.9005 31.6436 15.3317 31.9172 15.0341 32.1491C14.9858 32.1867 14.9464 32.2219 14.9137 32.2554C14.6855 32.4899 14.4141 32.6719 14.116 32.5368C13.8221 32.4036 13.6801 32.0565 13.8225 31.7669C13.9474 31.5128 14.0905 31.2841 14.2757 31.1381C14.5888 30.8905 14.9179 30.6033 15.2869 30.5061C15.666 30.3798 16.0648 30.3798 16.4244 30.3798C16.6538 30.3798 17.0115 30.4497 17.3091 30.5061C17.6098 30.5594 17.9149 30.716 18.1939 30.8853C18.476 31.0545 18.8926 31.4283 19.0786 31.77C19.2646 32.1116 19.3314 32.5866 19.3314 33.1602V37.5477C19.3314 37.9165 19.0324 38.2154 18.6637 38.2154H18.6327C18.281 38.2154 17.996 37.9304 17.996 37.5787V36.9762C17.996 36.9573 17.9807 36.942 17.9618 36.942C17.9486 36.942 17.9365 36.9496 17.9312 36.9617C17.8651 37.1137 17.8547 37.2859 17.6883 37.4571C17.5064 37.6443 17.2183 37.9637 16.9299 38.0891C16.6416 38.2144 16.2078 38.2154 15.7924 38.2154ZM16.0452 37.2044C16.4123 37.2044 16.6688 36.9661 16.9193 36.7883C17.0079 36.7254 17.0958 36.6603 17.1717 36.5825C17.3444 36.4057 17.4355 36.2939 17.5619 36.0669C17.7096 35.8072 17.92 35.5836 17.987 35.3422C17.9937 35.3183 17.996 35.2935 17.996 35.2687V34.6386C17.996 34.5214 17.8014 34.4123 17.689 34.4457C17.534 34.4896 17.3873 34.5159 17.1827 34.5504C16.9812 34.5817 16.743 34.6517 16.5508 34.6767C16.3617 34.6987 16.2165 34.7441 16.0987 34.7598C15.8135 34.7974 15.6613 34.8449 15.4132 34.9295C15.1683 35.011 14.6804 35.1425 14.5285 35.3087C14.3797 35.4716 14.2757 35.6585 14.2757 35.9406C14.2757 36.326 14.4992 36.7542 14.7813 36.9516C15.0665 37.1459 15.6081 37.2044 16.0452 37.2044Z" fill="white"/>
<path d="M22.3067 33.6079C22.2571 33.7283 22.2377 33.8583 22.2364 33.9885L22.2007 37.5031C22.1969 37.874 21.8952 38.1726 21.5244 38.1726C21.1509 38.1726 20.8481 37.8698 20.8481 37.4963V31.606C20.8481 31.2447 21.141 30.9517 21.5024 30.9517H21.5926C21.9041 30.9517 22.1567 31.2043 22.1567 31.5159V32.0234C22.1567 32.0546 22.182 32.08 22.2133 32.08C22.2355 32.08 22.2555 32.067 22.2651 32.047C22.4325 31.6956 22.6816 31.412 23.0123 31.1962C23.3533 30.9705 23.7935 30.8577 24.3329 30.8577C24.8166 30.8577 25.2397 30.958 25.6024 31.1586C25.9652 31.356 26.3342 31.6569 26.5357 32.0612C26.7372 32.4623 26.8405 32.925 26.8405 33.5393V37.5146C26.8405 37.878 26.5459 38.1726 26.1825 38.1726C25.8192 38.1726 25.5246 37.878 25.5246 37.5146V33.6657C25.5246 33.0984 25.4368 32.7184 25.1454 32.4019C24.854 32.0822 24.5163 32.0612 24.0079 32.0612C23.6576 32.0612 23.4245 32.227 23.2495 32.4019C22.9968 32.6546 22.9968 32.6546 22.8704 32.781C22.6018 33.0495 22.4298 33.3093 22.3067 33.6079Z" fill="white"/>
<path d="M31.6581 38.323C30.9885 38.323 30.4119 38.1632 29.9282 37.8435C29.4446 37.5238 29.0726 37.0835 28.8122 36.5225C28.5518 35.9615 28.4216 35.3206 28.4216 34.5998C28.4216 33.8664 28.5549 33.2192 28.8215 32.6582C29.0912 32.0941 29.4663 31.6538 29.9468 31.3372C30.4305 31.0176 30.9947 30.8577 31.6395 30.8577C32.1417 30.8577 32.5943 30.9517 32.9973 31.1398C33.4004 31.3278 33.7305 31.5911 33.9878 31.9296C34.101 32.0785 34.1953 32.2383 34.2707 32.409C34.4276 32.7642 34.1207 33.1142 33.7324 33.1142C33.4395 33.1142 33.1871 32.9058 33.0039 32.6773C32.8909 32.5364 32.7504 32.4057 32.6025 32.2755C32.2234 32.0227 32.097 32.0227 31.6581 31.9918C31.2303 31.9918 30.9027 32.1762 30.5803 32.4019C30.261 32.6244 30.1281 32.7527 29.9483 33.1602C29.7716 33.5645 29.6955 34.005 29.6955 34.5504C29.6955 35.1082 29.7747 35.4005 29.9483 35.8142C30.125 36.2279 30.261 36.4701 30.5803 36.6989C30.9027 36.9276 31.1574 37.078 31.5914 37.078C31.8766 37.078 32.1172 37.1352 32.3498 37.0349C32.5823 36.9346 32.6941 36.8869 32.8553 36.6989C32.8887 36.66 32.9161 36.6214 32.9393 36.5823C33.1028 36.3063 33.3322 36.0665 33.653 36.0665C34.0821 36.0665 34.4515 36.4597 34.301 36.8615C34.2568 36.9794 34.1988 37.0934 34.1192 37.2044C33.8774 37.5429 33.4438 37.8263 33.0438 38.0268C32.647 38.2243 32.1851 38.323 31.6581 38.323Z" fill="white"/>
<path d="M44.1982 38.1726C43.919 38.1726 43.6927 37.9462 43.6927 37.6671V31.4573C43.6927 31.1781 43.919 30.9517 44.1982 30.9517H44.6083C44.8895 30.9517 45.0811 31.2366 44.975 31.4971L44.772 31.9955C44.7629 32.0179 44.7793 32.0424 44.8035 32.0424C44.8178 32.0424 44.8306 32.0334 44.8356 32.0201C44.9674 31.673 45.2003 31.3906 45.5341 31.1727C45.8752 30.9502 46.2596 30.8389 46.6874 30.8389C46.768 30.8389 46.8687 30.8405 46.9896 30.8436C47.1456 30.8477 47.264 30.9765 47.264 31.1325V31.7267C47.264 31.8583 47.1385 31.962 47.0082 31.9437C46.9064 31.9265 46.8019 31.9362 46.6914 31.9412C46.6296 31.944 46.5681 31.955 46.5103 31.9772C46.2184 32.0893 46.0458 32.16 45.8274 32.3236C45.5638 32.5212 45.5483 32.5948 45.3723 32.7777C45.3492 32.8017 45.328 32.8275 45.3088 32.8547C45.187 33.0274 45.0242 33.2062 44.8977 33.4683C44.8618 33.5426 44.8515 33.6262 44.8603 33.7082L45.0921 35.8779L45.2775 37.6134C45.3094 37.9121 45.0752 38.1726 44.7748 38.1726H44.1982Z" fill="white"/>
<path d="M33.3414 27.1218C32.6532 27.1218 32.0596 26.9683 31.5604 26.6611C31.0644 26.3509 30.6816 25.9184 30.4119 25.3636C30.1452 24.8058 30.0119 24.157 30.0119 23.4174C30.0119 22.6778 30.1452 22.0259 30.4119 21.4618C30.6816 20.8945 31.0567 20.4526 31.5372 20.1361C32.0208 19.8164 32.585 19.6565 33.2298 19.6565C33.6019 19.6565 33.9692 19.7192 34.3319 19.8446C34.6946 19.97 35.0248 20.1737 35.3224 20.4557C35.62 20.7347 35.8572 21.1045 36.0339 21.5652C36.2106 22.0259 36.2989 22.5931 36.2989 23.267C36.2989 23.5266 36.0885 23.7371 35.8288 23.7371H31.2727C31.0079 23.7371 30.7932 23.5224 30.7932 23.2576C30.7932 22.9927 31.0079 22.7781 31.2727 22.7781L34.5365 22.778C34.8157 22.778 35.0518 22.5481 34.9856 22.2769C34.9426 22.1007 34.876 21.939 34.7893 21.767C34.6312 21.4473 34.3254 21.1936 34.0309 21.0087C33.7395 20.8238 33.609 20.8166 33.2298 20.8166C32.7927 20.8166 32.5142 20.8823 32.1351 21.1351C31.8999 21.2918 31.7077 21.5455 31.5372 21.8934C31.4108 22.2725 31.3767 22.3989 31.2503 22.9044L31.1323 23.4756C31.1172 23.5487 31.1186 23.6243 31.1358 23.697C31.2594 24.2173 31.3291 24.5718 31.5031 24.9265C31.6922 25.3026 31.9266 25.4874 32.2614 25.6848C32.5963 25.8791 32.8981 25.9376 33.3414 25.9376C33.6298 25.9376 33.9248 25.8927 34.1573 25.8112C34.3929 25.7266 34.4924 25.7245 34.6629 25.5584C34.7263 25.4955 34.7938 25.4364 34.8585 25.3742C35.0485 25.1911 35.3229 25.0525 35.5766 25.1245L35.6905 25.1568C35.9632 25.2342 36.1238 25.5248 35.985 25.7719C35.887 25.9463 35.7669 26.108 35.6247 26.2568C35.3612 26.5295 35.0357 26.7426 34.6481 26.8962C34.2606 27.0466 33.8251 27.1218 33.3414 27.1218Z" fill="white"/>
<path d="M39.0658 38.3418C38.3776 38.3418 37.7839 38.1882 37.2848 37.8811C36.7888 37.5708 36.4059 37.1383 36.1362 36.5836C35.8696 36.0258 35.7363 35.377 35.7363 34.6374C35.7363 33.8977 35.8696 33.2459 36.1362 32.6817C36.4059 32.1145 36.781 31.6726 37.2615 31.356C37.7451 31.0364 38.3094 30.8765 38.9542 30.8765C39.3262 30.8765 39.6936 30.9392 40.0563 31.0646C40.419 31.1899 40.7491 31.3936 41.0468 31.6757C41.3444 31.9546 41.5815 32.3244 41.7582 32.7852C41.9349 33.2459 42.0233 33.8131 42.0233 34.4869C42.0233 34.7466 41.8128 34.957 41.5531 34.957H36.9971C36.7322 34.957 36.5175 34.7424 36.5175 34.4775C36.5175 34.2127 36.7322 33.998 36.9971 33.998L40.2608 33.998C40.5401 33.998 40.7762 33.7681 40.71 33.4969C40.667 33.3207 40.6004 33.159 40.5136 32.987C40.3555 32.6673 40.0498 32.4136 39.7553 32.2287C39.4639 32.0438 39.3334 32.0366 38.9542 32.0366C38.5171 32.0366 38.2386 32.1023 37.8594 32.3551C37.6242 32.5118 37.432 32.7655 37.2615 33.1133C37.1351 33.4925 37.101 33.6189 36.9746 34.1244L36.8567 34.6955C36.8416 34.7687 36.8429 34.8443 36.8602 34.9169C36.9838 35.4372 37.0535 35.7918 37.2274 36.1465C37.4165 36.5226 37.651 36.7074 37.9858 36.9048C38.3206 37.0991 38.6225 37.1576 39.0658 37.1576C39.3541 37.1576 39.6492 37.1127 39.8817 37.0312C40.1173 36.9466 40.2167 36.9445 40.3872 36.7784C40.4506 36.7155 40.5182 36.6564 40.5828 36.5941C40.7728 36.4111 41.0472 36.2725 41.301 36.3445L41.4148 36.3768C41.6875 36.4542 41.8481 36.7448 41.7093 36.9919C41.6114 37.1663 41.4912 37.328 41.349 37.4768C41.0855 37.7495 40.76 37.9626 40.3725 38.1162C39.985 38.2666 39.5494 38.3418 39.0658 38.3418Z" fill="white"/>
<path d="M7.91909 43.6629C5.8975 42.1189 3.8759 38.9023 3.67379 36.3934C3.67379 36.3934 3.20212 32.662 3.13492 28.2423C3.13899 25.5128 3.2963 22.7858 3.60659 20.0722C4.07673 17.2313 5.60859 14.6487 7.91909 12.8027C7.91909 12.8027 11.0859 10.6156 14.9942 8.36376C17.4162 6.99432 19.913 5.74882 22.4737 4.63257C23.8399 4.09386 25.3083 3.83101 26.7862 3.86067C28.2621 3.83101 29.729 4.0871 31.0987 4.61327C33.6597 5.72856 36.1566 6.97406 38.5781 8.34447C42.4863 10.5319 45.6533 12.7834 45.6533 12.7834C46.5959 13.5035 47.5385 14.5869 48.3035 15.7929C48.5791 16.2274 48.1669 16.7338 47.6436 16.6277L45.1763 16.1269C44.8894 16.0687 44.6344 15.9175 44.4404 15.709C44.0982 15.341 43.7437 15.0145 43.3893 14.7461C43.3893 14.7461 40.6023 12.781 37.1631 10.8721C35.0322 9.6763 32.835 8.58923 30.5813 7.61573C29.376 7.1566 28.0849 6.93306 26.7862 6.95886C25.4855 6.93306 24.1934 7.16239 22.9912 7.63262C20.7377 8.60683 18.5408 9.69366 16.4092 10.889C12.97 12.8541 10.183 14.763 10.183 14.763C8.14997 16.374 6.8019 18.6277 6.388 21.1072C6.11513 23.4754 5.97666 25.8555 5.97309 28.2375C6.0324 32.0948 6.44732 35.3512 6.44732 35.3512C6.62524 37.5408 8.40425 40.3479 10.183 41.6954C12.1835 43.0745 14.2619 44.349 16.4092 45.5132C18.5402 46.7093 20.7375 47.7961 22.9912 48.7696C24.1952 49.2347 25.486 49.4638 26.7862 49.4434C28.0867 49.4692 29.3788 49.2398 30.5813 48.7696C32.8347 47.7956 35.0317 46.7085 37.1631 45.5132C40.6023 43.5481 43.3893 41.6954 43.3893 41.6954C43.9114 41.2816 44.3884 40.8256 44.8159 40.3342C44.9689 40.1581 45.1648 40.019 45.3902 39.9394L48.1106 38.9785C48.6213 38.7981 49.1074 39.2599 48.8712 39.7253C48.1082 41.2286 47.0162 42.5739 45.6533 43.6629C45.6533 43.6629 42.4863 45.7859 38.5781 48.0375C36.156 49.407 33.6595 50.6525 31.0987 51.7687C29.7323 52.3075 28.2641 52.5704 26.7862 52.5407C25.3089 52.5642 23.8417 52.3015 22.4737 51.7687C19.9125 50.6533 17.4157 49.4078 14.9942 48.0375C12.5541 46.7032 10.1922 45.2429 7.91909 43.6629Z" fill="white"/>
</svg>
