<svg width="68" height="68" viewBox="0 0 68 68" fill="none" xmlns="http://www.w3.org/2000/svg">
    <rect width="68" height="68" rx="20" fill="#F0F9F7"/>
    <path d="M35.6234 32.3871C40.153 36.9834 48.2045 34.6259 49.4961 28.2907C50.7596 22.8274 45.7787 17.5153 40.2359 18.4322C33.6062 19.3259 30.8563 27.7275 35.6234 32.3871ZM45.0523 28.9861C45.0312 30.4282 43.2467 30.4282 43.2242 28.9861C43.2467 27.5447 45.0312 27.5447 45.0523 28.9861ZM42.8656 22.7044C43.3339 21.9225 44.5264 22.5954 44.082 23.4075L40.025 30.4338C39.9303 30.5944 39.7764 30.7116 39.5964 30.7602C39.4163 30.8088 39.2244 30.7851 39.0617 30.694C38.9004 30.5999 38.7827 30.446 38.734 30.2657C38.6853 30.0854 38.7096 29.8932 38.8016 29.7307L42.8656 22.7044ZM38.7453 23.0559C39.9427 23.0742 39.9498 25.2342 38.7453 25.2553C37.5423 25.2342 37.5486 23.0742 38.7453 23.0552V23.0559ZM18.2141 33.877H15.2188C14.4453 33.877 13.8125 34.5098 13.8125 35.2826V45.8435C13.8125 46.6162 14.4453 47.2484 15.2188 47.2484H18.2141C19.3812 47.2484 20.3305 46.2717 20.3234 45.1404V35.8732C20.2531 34.7834 19.3461 33.87 18.2141 33.877ZM17.068 38.2406C16.1398 38.2266 16.1398 36.8491 17.068 36.8351C17.9891 36.8491 17.9891 38.2266 17.068 38.2406ZM51.6055 43.2152L37.9367 49.6882C36.5445 50.3491 35.0539 50.6719 33.5633 50.6719C31.7844 50.6719 30.0055 50.2078 28.4234 49.2797L22.9946 46.1177C22.7555 45.9841 22.5024 45.9138 22.2352 45.9138H21.6376C21.6938 45.6607 21.722 45.4005 21.722 45.1404V35.7881C21.7079 35.5912 21.6798 35.3944 21.6376 35.2116H26.8618C28.1063 35.2116 29.3227 35.5631 30.3704 36.2311L32.8876 37.8258C33.2462 38.0508 33.654 38.1703 34.0759 38.1703H39.1595C43.3142 38.3109 43.3135 44.3114 39.1595 44.4457H33.9922C33.0676 44.4626 33.069 45.8351 33.9922 45.8519H39.1602C41.4671 45.8519 43.4077 44.1293 43.682 41.8385C43.7567 41.1729 43.6847 40.4989 43.471 39.8641L49.6515 38.0719C51.0282 37.6458 52.5666 38.4452 53.0265 39.8079C53.2566 40.4508 53.2385 41.1565 52.9758 41.7868C52.7132 42.4171 52.2247 42.9267 51.6062 43.2159L51.6055 43.2152Z" fill="#009B78"/>
</svg>
