<svg width="68" height="68" viewBox="0 0 68 68" fill="none" xmlns="http://www.w3.org/2000/svg">
    <rect width="68" height="68" rx="20" fill="#FFF3E5"/>
    <mask id="mask0_0_1" style="mask-type:alpha" maskUnits="userSpaceOnUse" x="12" y="14" width="37" height="43">
        <path d="M42.6748 44.6748C40.3267 47.0228 37.083 48.4751 33.5 48.4751C26.3341 48.4751 20.525 42.6659 20.525 35.5C20.525 28.3341 26.3341 22.5249 33.5 22.5249C37.083 22.5249 40.3267 23.9772 42.6748 26.3252L48.526 20.474C44.6805 16.6285 39.368 14.25 33.5 14.25C21.7639 14.25 12.25 23.7639 12.25 35.5C12.25 47.2361 21.7639 56.75 33.5 56.75C39.368 56.75 44.6805 54.3715 48.526 50.526L42.6748 44.6748Z" fill="url(#paint0_angular_0_1)"/>
    </mask>
    <g mask="url(#mask0_0_1)">
        <path d="M8 10H59V61H8V10Z" fill="#FFAB3A"/>
    </g>
    <defs>
        <radialGradient id="paint0_angular_0_1" cx="0" cy="0" r="1" gradientUnits="userSpaceOnUse" gradientTransform="translate(33.4234 35.5) rotate(-43.8376) scale(15.1479 15.1479)">
            <stop offset="0.119792" stop-color="#262728" stop-opacity="0"/>
            <stop offset="0.244792" stop-color="#262728" stop-opacity="0"/>
            <stop offset="0.760417" stop-color="#262728"/>
            <stop offset="1" stop-color="#262728"/>
        </radialGradient>
    </defs>
</svg>
