<svg width="68" height="68" viewBox="0 0 68 68" fill="none" xmlns="http://www.w3.org/2000/svg">
    <rect width="68" height="68" rx="20" fill="#F0F9F7"/>
    <path d="M50.3385 25.9436C50.9737 26.2612 51.375 26.9105 51.375 27.6207V48.3412C51.375 49.0514 50.9737 49.7006 50.3385 50.0182L48.9818 50.6966C48.3584 51.0083 47.625 50.555 47.625 49.8581V29.4957C47.625 28.7855 47.2237 28.1362 46.5885 27.8186L27.04 18.0444C25.7807 17.4147 24.2456 17.0287 23.25 18.0244C22.6277 18.6466 22.3125 19.5 24.3386 20.4437L42.8385 29.6936C43.4737 30.0112 43.875 30.6605 43.875 31.3707V52.0912C43.875 52.8014 43.4737 53.4506 42.8385 53.7682L40.9635 54.7057C40.4357 54.9697 39.8143 54.9697 39.2865 54.7057L21.7709 45.948C19.23 44.6775 17.625 42.0805 17.625 39.2397V20.8369C17.625 15.6682 23.0643 12.3065 27.6873 14.618L50.3385 25.9436Z" fill="#009B78"/>
</svg>
