<svg width="68" height="68" viewBox="0 0 68 68" fill="none" xmlns="http://www.w3.org/2000/svg">
    <rect width="68" height="68" rx="20" fill="#FFF3E5"/>
    <path d="M18.5 28.875C18.5 23.5717 18.5 20.92 20.1475 19.2725C21.795 17.625 24.4467 17.625 29.75 17.625H37.25C42.5533 17.625 45.205 17.625 46.8525 19.2725C48.5 20.92 48.5 23.5717 48.5 28.875V41.6768C48.5 46.7079 48.5 49.2235 46.917 49.9929C45.3339 50.7623 43.3559 49.2082 39.3998 46.0998L38.1337 45.105C35.9092 43.3572 34.797 42.4833 33.5 42.4833C32.203 42.4833 31.0908 43.3572 28.8663 45.105L27.6002 46.0998C23.6441 49.2082 21.6661 50.7623 20.0831 49.9929C18.5 49.2235 18.5 46.7079 18.5 41.6768V28.875Z" fill="#FFAB3A" stroke="#FFAB3A" stroke-width="2"/>
</svg>
