<svg width="68" height="68" viewBox="0 0 68 68" fill="none" xmlns="http://www.w3.org/2000/svg">
    <rect width="68" height="68" rx="20" fill="#F0F9F7"/>
    <path d="M15.2912 33.3819L38.744 23.9206C41.0591 22.9351 48.9105 19.7814 48.9105 19.7814C48.9105 19.7814 52.5342 18.4017 52.2321 21.7524C52.1314 23.132 51.3266 27.9614 50.521 33.1844L48.0047 48.6573C48.0047 48.6573 47.8033 50.9241 46.0893 51.3182C44.3752 51.7124 41.5598 49.9386 41.0568 49.5442C40.6543 49.2487 33.5075 44.8137 30.8903 42.6455C30.1857 42.0544 29.3806 40.8714 30.991 39.4918C34.6147 36.2395 38.9431 32.1986 41.5598 29.6363C42.7677 28.4536 43.9756 25.694 38.9428 29.0452L24.7504 38.408C24.7504 38.408 23.1397 39.3935 20.1202 38.5066C17.1007 37.6197 13.5777 36.437 13.5777 36.437C13.5777 36.437 11.1619 34.9587 15.2888 33.3822L15.2912 33.3819Z" fill="#009B78"/>
</svg>
