<svg width="38" height="38" viewBox="0 0 38 38" fill="none" xmlns="http://www.w3.org/2000/svg">
<g clip-path="url(#clip0_466_23176)">
<path d="M27.3441 7.93095L23.9827 2.17237C23.9033 2.03697 23.7979 1.9186 23.6726 1.82408C23.5473 1.72955 23.4045 1.66074 23.2525 1.6216C23.1005 1.58246 22.9423 1.57376 22.7869 1.596C22.6315 1.61824 22.482 1.67099 22.3471 1.7512L12.0713 7.9167L27.3441 7.93095Z" fill="#0046B8"/>
<path d="M4.75 9.50008C3.87917 9.50008 3.16667 8.78758 3.16667 7.91675C3.16667 7.04591 3.87917 6.33341 4.75 6.33341H10.0858L15.3742 3.16675H4.75C2.40667 3.16675 0.459167 4.87675 0.0791667 7.12508C0.0475 7.25175 0 7.37841 0 7.52092V31.6667C0 34.2792 2.1375 36.4167 4.75 36.4167H31.6667C33.4083 36.4167 34.8333 34.9917 34.8333 33.2501V30.0834H30.875C26.9483 30.0834 23.75 26.8851 23.75 22.9584C23.75 19.0317 26.9483 15.8334 30.875 15.8334H34.8333V12.6667C34.8333 10.9251 33.4083 9.50008 31.6667 9.50008H4.75ZM30.0833 6.33341C30.0833 4.73425 28.8958 3.40425 27.3442 3.19841L30.0833 7.91675V6.33341Z" fill="#0046B8"/>
<path d="M36.8125 18.2084H30.875C28.2562 18.2084 26.125 20.3395 26.125 22.9584C26.125 25.5772 28.2562 27.7084 30.875 27.7084H36.8125C37.1274 27.7084 37.4295 27.5833 37.6522 27.3606C37.8749 27.1379 38 26.8358 38 26.5209V19.3959C38 19.0809 37.8749 18.7789 37.6522 18.5562C37.4295 18.3335 37.1274 18.2084 36.8125 18.2084ZM30.875 24.5417C30.4551 24.5417 30.0523 24.3749 29.7554 24.078C29.4585 23.781 29.2917 23.3783 29.2917 22.9584C29.2917 22.5384 29.4585 22.1357 29.7554 21.8388C30.0523 21.5419 30.4551 21.375 30.875 21.375C31.2949 21.375 31.6977 21.5419 31.9946 21.8388C32.2915 22.1357 32.4583 22.5384 32.4583 22.9584C32.4583 23.3783 32.2915 23.781 31.9946 24.078C31.6977 24.3749 31.2949 24.5417 30.875 24.5417Z" fill="#0046B8"/>
</g>
<defs>
<clipPath id="clip0_466_23176">
<rect width="38" height="38" fill="white"/>
</clipPath>
</defs>
</svg>
