<svg width="50" height="50" viewBox="0 0 50 50" fill="none" xmlns="http://www.w3.org/2000/svg">
    <rect width="50" height="50" rx="15" fill="#F1F2FF"/>
    <path d="M17.5 20.1654C17.0417 20.1654 16.6667 19.7904 16.6667 19.332C16.6667 18.8737 17.0417 18.4987 17.5 18.4987H20.3083L23.0917 16.832H17.5C16.2667 16.832 15.2417 17.732 15.0417 18.9154C15.025 18.982 15 19.0487 15 19.1237V31.832C15 33.207 16.125 34.332 17.5 34.332H31.6667C32.5833 34.332 33.3333 33.582 33.3333 32.6654V30.9987H31.25C29.1833 30.9987 27.5 29.3154 27.5 27.2487C27.5 25.182 29.1833 23.4987 31.25 23.4987H33.3333V21.832C33.3333 20.9154 32.5833 20.1654 31.6667 20.1654H17.5ZM30.8333 18.4987C30.8333 17.657 30.2083 16.957 29.3917 16.8487L30.8333 19.332V18.4987Z" fill="#0046B8"/>
    <path d="M34.375 24.75H31.25C29.8717 24.75 28.75 25.8717 28.75 27.25C28.75 28.6283 29.8717 29.75 31.25 29.75H34.375C34.5408 29.75 34.6997 29.6842 34.8169 29.5669C34.9342 29.4497 35 29.2908 35 29.125V25.375C35 25.2092 34.9342 25.0503 34.8169 24.9331C34.6997 24.8158 34.5408 24.75 34.375 24.75ZM31.25 28.0833C31.029 28.0833 30.817 27.9955 30.6607 27.8393C30.5045 27.683 30.4167 27.471 30.4167 27.25C30.4167 27.029 30.5045 26.817 30.6607 26.6607C30.817 26.5045 31.029 26.4167 31.25 26.4167C31.471 26.4167 31.683 26.5045 31.8393 26.6607C31.9955 26.817 32.0833 27.029 32.0833 27.25C32.0833 27.471 31.9955 27.683 31.8393 27.8393C31.683 27.9955 31.471 28.0833 31.25 28.0833Z" fill="#0046B8"/>
</svg>
