<svg width="39" height="34" viewBox="0 0 39 34" fill="none" xmlns="http://www.w3.org/2000/svg">
<path d="M33.1502 26.3256C33.0918 26.3256 33.0392 26.3521 32.9814 26.3619C33.083 26.658 33.1502 26.97 33.1502 27.3004C33.1502 27.6307 33.083 27.9429 32.9814 28.2392C33.0392 28.249 33.0918 28.2755 33.1502 28.2755C33.6885 28.2755 34.1253 27.8387 34.1253 27.3004C34.1253 26.7624 33.6885 26.3256 33.1502 26.3256Z" fill="#0046B8"/>
<path d="M31.1999 27.2999C31.1999 27.8385 30.7634 28.275 30.2248 28.275C29.6865 28.275 29.25 27.8385 29.25 27.2999C29.25 26.7615 29.6865 26.3251 30.2248 26.3251C30.7634 26.3251 31.1999 26.7615 31.1999 27.2999Z" fill="#0046B8"/>
<path d="M36.075 13.6499H10.7248C9.11215 13.6499 7.7998 14.9622 7.7998 16.5749V30.2249C7.7998 31.8376 9.11215 33.1499 10.7248 33.1499H36.075C37.6877 33.1499 39 31.8376 39 30.2249V16.5749C39 14.9622 37.6877 13.6499 36.075 13.6499ZM33.1499 30.2249C32.6292 30.2249 32.132 30.0718 31.6913 29.8165C31.2584 30.0688 30.7612 30.2249 30.2249 30.2249C28.6122 30.2249 27.2998 28.9125 27.2998 27.2998C27.2998 25.6871 28.6122 24.3748 30.2249 24.3748C30.7612 24.3748 31.2584 24.5308 31.6913 24.7832C32.132 24.5279 32.6293 24.3748 33.1499 24.3748C34.7626 24.3748 36.075 25.6871 36.075 27.2998C36.075 28.9125 34.7626 30.2249 33.1499 30.2249Z" fill="#0046B8"/>
<path d="M31.2002 2.92504C31.2002 1.31234 29.8878 0 28.2751 0H2.92504C1.31234 0 0 1.31234 0 2.92504V4.87496H31.2002V2.92504Z" fill="#0046B8"/>
<path d="M31.2002 11.7001V6.82516L0 6.82483V16.5753C0 18.188 1.31234 19.5003 2.92504 19.5003H5.85009V16.5753C5.85009 13.8872 8.03702 11.7003 10.725 11.7003L31.2002 11.7001Z" fill="#0046B8"/>
</svg>
