<svg width="40" height="40" viewBox="0 0 40 40" fill="none" xmlns="http://www.w3.org/2000/svg">
<path fill-rule="evenodd" clip-rule="evenodd" d="M0.833008 20C0.833008 9.45831 9.45801 0.833313 19.9997 0.833313C30.5413 0.833313 39.1663 9.45831 39.1663 20C39.1663 30.5416 30.5413 39.1666 19.9997 39.1666C9.45801 39.1666 0.833008 30.5416 0.833008 20ZM17.2198 29.5812L8.98864 21.3501C8.24185 20.6033 8.24185 19.3925 8.98865 18.6457C9.7347 17.8996 10.944 17.8988 11.6911 18.6438L17.2198 24.157L28.211 12.8613C28.9618 12.1105 30.1798 12.1127 30.9279 12.8661C31.6723 13.6158 31.6702 14.8263 30.9231 15.5734L17.2198 29.5812Z" fill="#FFAB3A"/>
</svg>
