<svg width="33" height="36" viewBox="0 0 33 36" fill="none" xmlns="http://www.w3.org/2000/svg">
<path d="M1.5 12.875C1.5 7.5717 1.5 4.92005 3.14752 3.27252C4.79505 1.625 7.4467 1.625 12.75 1.625H20.25C25.5533 1.625 28.205 1.625 29.8525 3.27252C31.5 4.92005 31.5 7.5717 31.5 12.875V25.6768C31.5 30.7079 31.5 33.2235 29.917 33.9929C28.3339 34.7623 26.3559 33.2082 22.3998 30.0998L21.1337 29.105C18.9092 27.3572 17.797 26.4833 16.5 26.4833C15.203 26.4833 14.0908 27.3572 11.8663 29.105L10.6002 30.0998C6.64415 33.2082 4.6661 34.7623 3.08305 33.9929C1.5 33.2235 1.5 30.7079 1.5 25.6768V12.875Z" fill="#A062ED" stroke="#A062ED" stroke-width="2"/>
</svg>
