<svg width="24" height="24" viewBox="0 0 24 24" fill="none" xmlns="http://www.w3.org/2000/svg">
    <path d="M6.44752 7.96942C6.76186 5.14032 9.15317 3 11.9997 3V3C14.8462 3 17.2375 5.14032 17.5518 7.96942L17.8036 10.2356C17.8068 10.2645 17.8085 10.279 17.8101 10.2933C17.939 11.4169 18.3048 12.5005 18.8832 13.4725C18.8906 13.4849 18.8981 13.4973 18.913 13.5222L19.4911 14.4856C20.0156 15.3599 20.2779 15.797 20.2213 16.1559C20.1836 16.3946 20.0607 16.6117 19.8753 16.7668C19.5968 17 19.087 17 18.0674 17H5.93191C4.91236 17 4.40259 17 4.12401 16.7668C3.93865 16.6117 3.81576 16.3946 3.77809 16.1559C3.72147 15.797 3.98374 15.3599 4.5083 14.4856L5.08633 13.5222C5.10129 13.4973 5.10876 13.4849 5.11612 13.4725C5.69456 12.5005 6.06032 11.4169 6.18926 10.2933C6.1909 10.279 6.19251 10.2645 6.19572 10.2356L6.44752 7.96942Z" fill="white"/>
    <path d="M9 17C9 17.394 9.0776 17.7841 9.22836 18.1481C9.37913 18.512 9.6001 18.8427 9.87868 19.1213C10.1573 19.3999 10.488 19.6209 10.8519 19.7716C11.2159 19.9224 11.606 20 12 20C12.394 20 12.7841 19.9224 13.1481 19.7716C13.512 19.6209 13.8427 19.3999 14.1213 19.1213C14.3999 18.8427 14.6209 18.512 14.7716 18.1481C14.9224 17.7841 15 17.394 15 17L12 17H9Z" fill="white"/>
</svg>
