<svg width="46" height="46" viewBox="0 0 46 46" fill="none" xmlns="http://www.w3.org/2000/svg">
<path d="M23 40.25C26.9909 40.25 30.8583 38.8662 33.9433 36.3344C37.0283 33.8026 39.14 30.2795 39.9185 26.3653C40.6971 22.4511 40.0944 18.388 38.2131 14.8684C36.3319 11.3488 33.2884 8.59032 29.6013 7.06308C25.9142 5.53584 21.8116 5.33429 17.9926 6.49278C14.1736 7.65127 10.8744 10.0981 8.65715 13.4164C6.43994 16.7347 5.44189 20.7191 5.83306 24.6908C6.22424 28.6625 7.98043 32.3756 10.8024 35.1976" stroke="#FFAB3A" stroke-width="3.83333" stroke-linecap="round"/>
<path d="M30.667 19.1667L23.7709 27.442C22.5144 28.9498 21.8861 29.7037 21.0417 29.742C20.1973 29.7803 19.5034 29.0864 18.1155 27.6985L15.3337 24.9167" stroke="#FFAB3A" stroke-width="3.83333" stroke-linecap="round"/>
</svg>
