<svg width="41" height="37" viewBox="0 0 41 37" fill="none" xmlns="http://www.w3.org/2000/svg">
<path d="M20.5 0.921875C9.67188 0.921875 0.8125 9.78125 0.8125 20.6094C0.8125 26.4453 3.41406 32 7.91406 35.7266L8.33594 36.0781H32.7344L33.1562 35.7266C37.5859 32 40.1875 26.4453 40.1875 20.6094C40.1875 9.78125 31.3281 0.921875 20.5 0.921875ZM31.6797 33.2656H9.32031C6.01563 30.3828 4.04688 26.375 3.69531 22.0156H6.4375C7.21094 22.0156 7.84375 21.3828 7.84375 20.6094C7.84375 19.8359 7.21094 19.2031 6.4375 19.2031H3.69531C3.97656 15.6172 5.45312 12.3125 7.63281 9.71094L9.67188 11.75C9.95312 12.0312 10.3047 12.1719 10.6562 12.1719C11.0078 12.1719 11.3594 12.0312 11.6406 11.75C12.2031 11.1875 12.2031 10.3438 11.6406 9.78125L9.60156 7.74219C12.2031 5.5625 15.5078 4.08594 19.0938 3.80469V6.54688C19.0938 7.32031 19.7266 7.95312 20.5 7.95312C21.2734 7.95312 21.9062 7.32031 21.9062 6.54688V3.80469C25.4922 4.08594 28.7969 5.5625 31.3984 7.74219L29.3594 9.78125C28.7969 10.3438 28.7969 11.1875 29.3594 11.75C29.6406 12.0312 29.9922 12.1719 30.3438 12.1719C30.6953 12.1719 31.0469 12.0312 31.3281 11.75L33.3672 9.71094C35.5469 12.3125 37.0234 15.6172 37.3047 19.2031H34.5625C33.7891 19.2031 33.1562 19.8359 33.1562 20.6094C33.1562 21.3828 33.7891 22.0156 34.5625 22.0156H37.3047C36.9531 26.375 34.9141 30.3828 31.6797 33.2656Z" fill="#FFAB3A"/>
<path d="M25.9145 13.3672L18.4614 15.8281C16.7036 16.3906 15.3676 17.8672 14.9457 19.625C14.5239 21.3828 15.0161 23.2812 16.352 24.6172C17.3364 25.6016 18.6723 26.1641 20.0785 26.1641C20.5004 26.1641 20.9223 26.0937 21.3442 26.0234C23.1723 25.6016 24.5785 24.2656 25.141 22.5078L27.602 15.0547C27.7426 14.5625 27.6723 14 27.2504 13.6484C26.9692 13.3672 26.477 13.2266 25.9145 13.3672ZM22.5395 21.7344C22.2582 22.5781 21.6254 23.2109 20.7114 23.3516C19.8676 23.5625 19.0239 23.2812 18.391 22.7187C17.7582 22.0859 17.5473 21.2422 17.7582 20.3984C17.9692 19.5547 18.5317 18.8516 19.3754 18.5703L24.1567 16.9531L22.5395 21.7344Z" fill="#FFAB3A"/>
</svg>
