<svg width="88" height="88" viewBox="0 0 88 88" fill="none" xmlns="http://www.w3.org/2000/svg">
    <rect width="88" height="88" rx="10" fill="#FFF3E5"/>
    <path d="M57.7303 50.6023L51.9617 44.9981L46.4396 40.66C46.3239 40.57 46.1925 40.5024 46.0522 40.4606L44.6804 40.0502H44.6809C44.4962 40.0047 44.3025 40.0047 44.1177 40.0502L40.882 40.7186C40.7019 40.7573 40.5329 40.8374 40.3895 40.9531L38.8653 42.1491C38.1571 42.6375 37.3605 42.984 36.5203 43.1693C35.6106 43.3703 34.6633 43.32 33.7797 43.0248C32.8957 42.7296 32.1084 42.1999 31.5023 41.4927L30.5173 40.4024C30.5173 40.4024 33.5657 37.3891 35.0783 35.7827C35.9551 34.8452 37.0339 34.1198 38.2325 33.6602C38.2633 33.6481 38.2838 33.6178 38.2838 33.5843C38.2838 33.5508 38.2633 33.5204 38.2325 33.5079C36.6611 33.6015 35.4185 33.801 35.4185 33.801L29.4741 34.516V34.5165C28.1315 34.6772 26.7701 34.5039 25.5113 34.0119L23.1664 33.0854L18.6289 46.8387C18.6289 46.8387 24.2682 48.8555 24.8314 49.1837L28.2551 50.9188H28.2546C28.3572 50.7597 28.475 50.6105 28.6064 50.4733L31.0921 47.8352C31.6213 47.2768 32.3504 46.9507 33.1199 46.9287C33.8888 46.9067 34.6356 47.1904 35.1957 47.718L35.8055 48.2927C35.9798 48.4566 36.1337 48.6418 36.2625 48.8434C36.8565 48.9276 37.4093 49.1941 37.8452 49.6055L38.455 50.1802C38.8193 50.5199 39.0899 50.948 39.2407 51.4228C39.616 51.5583 39.9593 51.7698 40.2488 52.0446L40.8586 52.6193V52.6188C41.4003 53.1312 41.7238 53.8326 41.7615 54.5769L42.0546 54.8114L42.6644 55.3861C43.2228 55.9153 43.5489 56.6444 43.5709 57.4133C43.5929 58.1827 43.3087 58.9291 42.7816 59.4897L42.1017 60.2047C42.5079 60.4528 42.9805 60.5706 43.4557 60.5433C43.9315 60.5161 44.3874 60.3449 44.7627 60.0524C45.3594 59.6106 45.7425 58.938 45.8179 58.2C46.2591 58.6512 46.8637 58.9056 47.495 58.9056C48.1257 58.9056 48.7303 58.6512 49.1715 58.2L49.3123 58.0477V58.0472C49.785 57.5614 50.0247 56.8941 49.9687 56.2184L50.2032 56.4529C50.6518 56.8899 51.2537 57.1344 51.8797 57.1344C52.5063 57.1344 53.1077 56.8899 53.5563 56.4529L53.6971 56.3006C54.2347 55.7536 54.4712 54.9789 54.3304 54.2253C54.7827 54.6445 55.3825 54.8691 55.9991 54.8492C56.6162 54.8293 57.2003 54.567 57.6249 54.1195L57.7657 53.9672C58.063 53.6641 58.2723 53.2857 58.3718 52.8727C58.4707 52.4598 58.4561 52.0274 58.3283 51.6223C58.2148 51.2386 58.0096 50.889 57.7306 50.6021L57.7303 50.6023Z" fill="#FFAB3A"/>
    <path d="M63.0071 34.1172C62.2508 34.5245 61.383 34.6768 60.5329 34.5512L60.111 34.4925L56.2891 33.9414L53.3694 33.4959C51.9144 33.2505 50.4462 33.0903 48.9728 33.0149C48.095 32.9741 47.2157 33.017 46.3462 33.1442C44.8335 33.4023 41.6564 34.3167 41.6564 34.3167L39.4523 34.8914V34.8909C38.2583 35.374 37.1435 36.034 36.1458 36.8489L32.6284 40.472C34.9733 43.0866 37.9982 40.9175 37.9982 40.9175L39.7568 39.4869H39.7574C39.9008 39.3713 40.0693 39.2912 40.2494 39.2524L44.2122 38.4317H44.2127C44.3975 38.3862 44.5906 38.3862 44.7754 38.4317L46.8507 39.0651C46.9784 39.1048 47.0977 39.1687 47.2024 39.2524L53.0647 43.8366C53.0647 43.8371 59.1144 49.8397 59.2316 50.0155C59.632 50.585 60.3816 50.787 61.0139 50.4965L64.4255 48.8787C65.5472 48.2108 66.7543 47.6983 68.0135 47.3545L69.186 47.0378L65.0939 33.0272L63.0071 34.1172Z" fill="#FFAB3A"/>
    <path d="M40.9996 55.9367C40.718 55.675 40.3395 55.5431 39.9559 55.5734C40.3751 55.0129 40.3097 54.2277 39.8035 53.7447L39.1938 53.17C38.7928 52.7968 38.2087 52.6952 37.7052 52.9119C37.9674 52.3696 37.8486 51.7201 37.4121 51.3056L36.8023 50.7308V50.7314C36.3637 50.3205 35.7094 50.2399 35.1844 50.5319C35.2206 50.1158 35.0651 49.706 34.762 49.4181L34.1522 48.8434C33.6131 48.31 32.7453 48.31 32.2062 48.8434L29.709 51.5285L29.6268 51.6222C29.1903 52.1844 29.2515 52.9852 29.7676 53.4746L30.3774 54.0493C30.6585 54.3115 31.0374 54.4434 31.4206 54.4125C30.9636 54.9726 31.0149 55.7901 31.5378 56.2885L32.1476 56.8632C32.6234 57.3102 33.3462 57.3636 33.8827 56.992C33.7299 57.4887 33.8707 58.0289 34.2465 58.3874L34.8563 58.9621H34.8557C35.3907 59.4724 36.2323 59.4724 36.7673 58.9621C36.7621 59.3421 36.9149 59.7069 37.1892 59.9702L37.799 60.5449C38.3381 61.0783 39.2059 61.0783 39.745 60.5449L40.9174 59.3138L41.656 58.5282C42.1899 57.9891 42.1899 57.1207 41.656 56.5816L40.9996 55.9367Z" fill="#FFAB3A"/>
</svg>
