<svg width="88" height="88" viewBox="0 0 88 88" fill="none" xmlns="http://www.w3.org/2000/svg">
    <rect width="88" height="88" rx="10" fill="#F0F9F7"/>
    <path d="M44.5 33.6458C44.5 33.2172 44.5 33.0029 44.6447 32.8698C44.7893 32.7367 44.9911 32.7536 45.3948 32.7873C46.9697 32.9188 48.5 33.3964 49.875 34.1902C51.5092 35.1337 52.8663 36.4908 53.8098 38.125C54.7533 39.7592 55.25 41.613 55.25 43.5C55.25 45.387 54.7533 47.2408 53.8098 48.875C52.8663 50.5092 51.5092 51.8663 49.875 52.8098C48.2408 53.7533 46.387 54.25 44.5 54.25C42.613 54.25 40.7592 53.7533 39.125 52.8098C37.75 52.0159 36.5713 50.9294 35.6699 49.6313C35.4389 49.2986 35.3234 49.1322 35.3663 48.9404C35.4092 48.7486 35.5948 48.6414 35.966 48.4271L44.0521 43.7586C44.2707 43.6324 44.38 43.5693 44.44 43.4654C44.5 43.3614 44.5 43.2352 44.5 42.9828V33.6458Z" fill="#009B78"/>
    <circle cx="44.5" cy="43.4998" r="16.125" stroke="#009B78" stroke-width="3.58333"/>
</svg>
