<svg width="36" height="36" viewBox="0 0 36 36" fill="none" xmlns="http://www.w3.org/2000/svg">
    <g clip-path="url(#clip0_926_35144)">
        <path d="M27.8191 19.1447C27.8551 16.3397 29.3251 13.7492 31.7146 12.2807C30.2011 10.1177 27.7546 8.79617 25.1161 8.71367C22.3396 8.42267 19.6486 10.3742 18.2341 10.3742C16.7926 10.3742 14.6146 8.74217 12.2686 8.79017C9.18305 8.89067 6.37505 10.6022 4.87355 13.3007C1.67705 18.8357 4.06055 26.9717 7.12355 31.4462C8.65655 33.6377 10.4461 36.0842 12.7906 35.9987C15.0841 35.9042 15.9406 34.5362 18.7081 34.5362C21.4501 34.5362 22.2541 35.9987 24.6451 35.9432C27.1051 35.9027 28.6561 33.7427 30.1351 31.5302C31.2361 29.9687 32.0836 28.2437 32.6446 26.4182C29.7226 25.1822 27.8221 22.3187 27.8191 19.1447Z" fill="#0046B8"/>
        <path d="M23.3025 5.7705C24.6435 4.1595 25.305 2.0895 25.1445 0C23.0955 0.216 21.201 1.1955 19.842 2.7435C18.4995 4.272 17.8185 6.27 17.9505 8.301C20.028 8.322 22.0005 7.389 23.3025 5.7705Z" fill="#0046B8"/>
    </g>
    <defs>
        <clipPath id="clip0_926_35144">
            <rect width="36" height="36" fill="white"/>
        </clipPath>
    </defs>
</svg>
