<svg width="24" height="25" viewBox="0 0 24 25" fill="none" xmlns="http://www.w3.org/2000/svg">
    <path d="M12.398 19.9368L12.8585 20.8245L12.8585 20.8245L12.398 19.9368ZM11.602 19.9368L11.1415 20.8245L11.1415 20.8245L11.602 19.9368ZM18 11.1328C18 13.2786 16.9079 15.0487 15.545 16.4234C14.183 17.7972 12.6342 18.6878 11.9376 19.0491L12.8585 20.8245C13.6448 20.4166 15.397 19.4134 16.9653 17.8315C18.5326 16.2506 20 14.0034 20 11.1328H18ZM12 5.13281C15.3137 5.13281 18 7.8191 18 11.1328H20C20 6.71453 16.4183 3.13281 12 3.13281V5.13281ZM6 11.1328C6 7.8191 8.68629 5.13281 12 5.13281V3.13281C7.58172 3.13281 4 6.71453 4 11.1328H6ZM12.0624 19.0491C11.3658 18.6878 9.81702 17.7972 8.45503 16.4234C7.09211 15.0487 6 13.2786 6 11.1328H4C4 14.0034 5.46741 16.2506 7.03474 17.8315C8.60299 19.4134 10.3552 20.4166 11.1415 20.8245L12.0624 19.0491ZM11.9376 19.0491C11.9514 19.0419 11.9733 19.0351 12 19.0351C12.0267 19.0351 12.0486 19.0419 12.0624 19.0491L11.1415 20.8245C11.6831 21.1054 12.3169 21.1054 12.8585 20.8245L11.9376 19.0491ZM14 11.1328C14 12.2374 13.1046 13.1328 12 13.1328V15.1328C14.2091 15.1328 16 13.342 16 11.1328H14ZM12 9.13281C13.1046 9.13281 14 10.0282 14 11.1328H16C16 8.92367 14.2091 7.13281 12 7.13281V9.13281ZM10 11.1328C10 10.0282 10.8954 9.13281 12 9.13281V7.13281C9.79086 7.13281 8 8.92367 8 11.1328H10ZM12 13.1328C10.8954 13.1328 10 12.2374 10 11.1328H8C8 13.342 9.79086 15.1328 12 15.1328V13.1328Z" fill="white"/>
</svg>
