<svg width="84" height="90" viewBox="0 0 84 90" fill="none" xmlns="http://www.w3.org/2000/svg">
    <path d="M22.1149 8.22643C31.6141 2.74215 36.3635 0 41.5788 0C46.7941 0 51.5435 2.74215 61.0428 8.22643L63.6936 9.75692C73.1928 15.2412 77.9422 17.9834 80.5499 22.4999C83.1575 27.0165 83.1575 32.5009 83.1575 43.4694V46.5305C83.1575 57.499 83.1575 62.9835 80.5499 67.5C77.9422 72.0165 73.1928 74.7587 63.6936 80.2432L61.0428 81.7733C51.5435 87.2578 46.7941 90 41.5788 90C36.3635 90 31.6141 87.2578 22.1149 81.7733L19.4639 80.2432C9.96489 74.7587 5.21535 72.0165 2.60767 67.5C-7.35533e-07 62.9835 0 57.499 0 46.5305V43.4694C0 32.5009 -7.35533e-07 27.0165 2.60767 22.4999C5.21535 17.9834 9.96489 15.2412 19.4639 9.75692L22.1149 8.22643Z" fill="white"/>
    <path d="M18.3118 43.162C17.5695 43.162 16.9678 42.5603 16.9678 41.818V29.7654C16.9678 28.6608 17.8632 27.7654 18.9678 27.7654H25.0925C25.6488 27.7654 26.0997 28.2163 26.0997 28.7726C26.0997 29.3288 25.6488 29.7797 25.0925 29.7797H23.0157H21.6557C20.5512 29.7797 19.6557 30.6752 19.6557 31.7797V32.2561C19.6557 33.3607 20.5512 34.2561 21.6557 34.2561H22.4557H24.2965C24.9145 34.2561 25.4156 34.7571 25.4156 35.3752C25.4156 35.9932 24.9145 36.4943 24.2965 36.4943H21.6557C20.5512 36.4943 19.6557 37.3897 19.6557 38.4943V41.818C19.6557 42.5603 19.054 43.162 18.3118 43.162Z" fill="url(#paint0_linear_526_21712)"/>
    <path d="M30.1426 43.162C29.455 43.162 28.8977 42.6046 28.8977 41.9171V32.5819C28.8977 32.0476 29.3308 31.6145 29.865 31.6145H30.3619C30.8116 31.6145 31.118 32.0701 30.9484 32.4866L30.6237 33.2837C30.6091 33.3195 30.6355 33.3587 30.6741 33.3587C30.697 33.3587 30.7173 33.3443 30.7255 33.323C30.9362 32.768 31.3086 32.3163 31.8425 31.9679C32.3879 31.612 33.0026 31.4341 33.6868 31.4341C33.8157 31.4341 33.9768 31.4366 34.1701 31.4416C34.4196 31.4481 34.6089 31.6541 34.6089 31.9036V32.8538C34.6089 33.0642 34.4082 33.2302 34.1999 33.2008C34.1062 33.185 34.0111 33.1834 33.9136 33.1865C33.6689 33.1941 33.4256 33.2442 33.198 33.3344C32.8488 33.4727 32.6063 33.5876 32.3116 33.8085C31.934 34.0914 31.8746 34.2154 31.6641 34.4484C31.5758 34.5461 31.4915 34.6476 31.4128 34.7532C31.2745 34.9392 31.1136 35.1357 30.9662 35.3789C30.797 35.6581 30.7617 35.9925 30.7964 36.3171L31.1356 39.4924L31.3805 41.7848C31.459 42.5205 30.8825 43.162 30.1426 43.162Z" fill="url(#paint1_linear_526_21712)"/>
    <path d="M41.1306 43.4025C40.03 43.4025 39.0807 43.157 38.2825 42.6658C37.4893 42.1696 36.877 41.478 36.4457 40.5909C36.0193 39.6987 35.8061 38.6613 35.8061 37.4785C35.8061 36.2957 36.0193 35.2532 36.4457 34.351C36.877 33.4439 37.4769 32.7372 38.2453 32.231C39.0187 31.7198 39.921 31.4642 40.9522 31.4642C41.5471 31.4642 42.1346 31.5644 42.7146 31.7649C43.2946 31.9654 43.8226 32.2911 44.2986 32.7422C44.7745 33.1883 45.1538 33.7797 45.4363 34.5164C45.7189 35.2532 45.8602 36.1603 45.8602 37.2379C45.8602 37.6531 45.5236 37.9897 45.1084 37.9897H37.8223C37.3988 37.9897 37.0555 37.6464 37.0555 37.2229C37.0555 36.7994 37.3988 36.456 37.8223 36.456L42.166 36.456C43.0962 36.456 43.8648 35.6697 43.446 34.8392C43.1931 34.3279 42.7042 33.9222 42.2332 33.6265C41.7672 33.3308 41.5585 33.3194 40.9522 33.3194C40.2531 33.3194 39.8078 33.4244 39.2014 33.8286C38.8253 34.0793 38.518 34.4849 38.2453 35.0413C38.0432 35.6476 37.9886 35.8497 37.7865 36.6581L37.6519 37.3096C37.5921 37.599 37.5974 37.8982 37.6647 38.1859C37.8271 38.8799 37.9426 39.3858 38.1908 39.8918C38.4932 40.4933 38.8681 40.7887 39.4035 41.1045C39.9389 41.4152 40.4217 41.5087 41.1306 41.5087C41.5917 41.5087 42.0635 41.4369 42.4354 41.3066C42.8121 41.1713 42.9712 41.168 43.2439 40.9024C43.3241 40.8228 43.4084 40.747 43.4914 40.6695C43.8367 40.3468 44.3369 40.104 44.7916 40.233C45.2801 40.3716 45.5686 40.8938 45.3083 41.3298C45.1613 41.576 44.9858 41.8059 44.7819 42.0193C44.3605 42.4553 43.84 42.7961 43.2203 43.0417C42.6006 43.2823 41.904 43.4025 41.1306 43.4025Z" fill="url(#paint2_linear_526_21712)"/>
    <path d="M66.4353 35.7343C66.892 35.7343 67.2623 36.1046 67.2623 36.5613C67.2623 37.018 66.892 37.3883 66.4353 37.3883H61.4262C60.9695 37.3883 60.5992 37.018 60.5992 36.5613C60.5992 36.1046 60.9695 35.7343 61.4262 35.7343H66.4353Z" fill="url(#paint3_linear_526_21712)"/>
    <path d="M18.3118 45.648C19.054 45.648 19.6557 46.2497 19.6557 46.992V59.7006C19.6557 60.4429 19.054 61.0446 18.3118 61.0446C17.5695 61.0446 16.9678 60.4429 16.9678 59.7006V46.992C16.9678 46.2497 17.5695 45.648 18.3118 45.648Z" fill="url(#paint4_linear_526_21712)"/>
    <path d="M25.2548 61.1132C24.531 61.1132 23.84 60.9111 23.2336 60.7089C22.6272 60.5068 21.9637 59.8204 21.6166 59.2942C21.2696 58.7629 21.2124 58.0249 21.2124 57.2731C21.2124 56.6859 21.3277 56.1911 21.5339 55.7999C21.5854 55.7023 21.6355 55.6037 21.6882 55.5067C21.8965 55.1239 22.244 54.855 22.6272 54.6457C23.0586 54.4102 23.7237 54.1547 24.2442 54.0394C24.7697 53.9191 25.2142 53.8316 25.7446 53.7614C26.4387 53.6712 27.0469 53.6803 27.4782 53.6352C27.9121 53.5853 28.2864 53.5487 28.4855 53.435C28.4878 53.4337 28.4898 53.4325 28.492 53.4311C28.5176 53.4147 28.691 53.2934 28.691 53.0289V52.2204C28.691 51.412 28.2867 51.2099 27.8825 51.0078C27.4782 50.8057 27.0736 50.6036 26.2655 50.6036C25.4276 50.6036 24.518 51.0411 24.0421 51.412C23.9649 51.4722 23.9019 51.5283 23.8496 51.582C23.4846 51.9569 23.0506 52.248 22.574 52.032C22.104 51.819 21.8769 51.2639 22.1045 50.8008C22.3043 50.3945 22.5332 50.0287 22.8294 49.7951C23.3301 49.3992 23.8564 48.94 24.4464 48.7846C25.0527 48.5825 25.6904 48.5825 26.2655 48.5825C26.6323 48.5825 27.2044 48.6944 27.6803 48.7846C28.1612 48.8698 28.649 49.1203 29.0952 49.3909C29.5463 49.6616 30.2126 50.2594 30.5101 50.8057C30.8075 51.352 30.9143 52.1117 30.9143 53.0289V60.0454C30.9143 60.6351 30.4362 61.1132 29.8465 61.1132H29.7969C29.2346 61.1132 28.7787 60.6573 28.7787 60.0949V59.1314C28.7787 59.1012 28.7542 59.0767 28.724 59.0767C28.7029 59.0767 28.6836 59.0888 28.6752 59.1082C28.5695 59.3512 28.5528 59.6267 28.2867 59.9005C27.9958 60.1998 27.535 60.7106 27.074 60.9111C26.6129 61.1115 25.9192 61.1132 25.2548 61.1132ZM25.6591 59.4963C26.2461 59.4963 26.6564 59.1152 27.0569 58.8309C27.1986 58.7303 27.3391 58.6262 27.4606 58.5018C27.7368 58.219 27.8824 58.0402 28.0846 57.6773C28.3207 57.262 28.6572 56.9044 28.7644 56.5184C28.7751 56.4802 28.7787 56.4405 28.7787 56.4008V55.3932C28.7787 55.2057 28.4676 55.0313 28.2879 55.0847C28.04 55.1549 27.8054 55.1969 27.4782 55.252C27.156 55.3022 26.775 55.414 26.4676 55.4541C26.1652 55.4892 25.933 55.5619 25.7446 55.587C25.2885 55.6471 25.0451 55.723 24.6485 55.8584C24.2568 55.9887 23.4765 56.1991 23.2336 56.4647C22.9956 56.7253 22.8294 57.0241 22.8294 57.4752C22.8294 58.0917 23.1867 58.7763 23.6379 59.0921C24.094 59.4028 24.9601 59.4963 25.6591 59.4963Z" fill="url(#paint5_linear_526_21712)"/>
    <path d="M35.6724 53.7449C35.5931 53.9373 35.5621 54.1454 35.56 54.3535L35.5028 59.9741C35.4968 60.5671 35.0144 61.0446 34.4213 61.0446C33.824 61.0446 33.3398 60.5604 33.3398 59.9631V50.5435C33.3398 49.9656 33.8083 49.4972 34.3861 49.4972H34.5303C35.0286 49.4972 35.4325 49.9011 35.4325 50.3993V51.2109C35.4325 51.2609 35.473 51.3015 35.523 51.3015C35.5585 51.3015 35.5906 51.2807 35.6058 51.2487C35.8736 50.6868 36.2719 50.2332 36.8008 49.8881C37.3461 49.5272 38.0501 49.3468 38.9127 49.3468C39.6861 49.3468 40.3628 49.5072 40.9429 49.828C41.5229 50.1437 42.1131 50.6249 42.4354 51.2714C42.7576 51.9129 42.9227 52.6528 42.9227 53.6352V59.9925C42.9227 60.5736 42.4517 61.0446 41.8706 61.0446C41.2895 61.0446 40.8184 60.5736 40.8184 59.9925V53.8373C40.8184 52.9301 40.678 52.3224 40.212 51.8162C39.746 51.305 39.2059 51.2714 38.3929 51.2714C37.8327 51.2714 37.4599 51.5365 37.1801 51.8162C36.7759 52.2204 36.7759 52.2204 36.5738 52.4225C36.1443 52.8519 35.8692 53.2674 35.6724 53.7449Z" fill="url(#paint6_linear_526_21712)"/>
    <path d="M50.627 61.2852C49.5561 61.2852 48.634 61.0296 47.8606 60.5184C47.0872 60.0072 46.4923 59.303 46.0759 58.4059C45.6594 57.5087 45.4512 56.4838 45.4512 55.331C45.4512 54.1583 45.6644 53.1233 46.0907 52.2262C46.5221 51.324 47.1219 50.6198 47.8904 50.1136C48.6638 49.6024 49.566 49.3468 50.5972 49.3468C51.4004 49.3468 52.1242 49.4972 52.7687 49.7979C53.4132 50.0986 53.9411 50.5196 54.3526 51.0609C54.5336 51.299 54.6844 51.5546 54.805 51.8276C55.0559 52.3957 54.5652 52.9554 53.9442 52.9554C53.4758 52.9554 53.0722 52.622 52.7791 52.2567C52.5984 52.0314 52.3738 51.8223 52.1373 51.6141C51.5309 51.2099 51.3288 51.2099 50.627 51.1605C49.9428 51.1605 49.4189 51.4553 48.9033 51.8162C48.3927 52.1721 48.1803 52.3773 47.8927 53.0289C47.6101 53.6754 47.4885 54.38 47.4885 55.252C47.4885 56.1442 47.6151 56.6115 47.8927 57.2731C48.1753 57.9347 48.3927 58.322 48.9033 58.6879C49.4189 59.0537 49.8262 59.2942 50.5203 59.2942C50.9764 59.2942 51.3612 59.3857 51.7331 59.2253C52.1049 59.0649 52.2838 58.9886 52.5416 58.6879C52.5949 58.6257 52.6388 58.564 52.6758 58.5015C52.9374 58.0602 53.3041 57.6766 53.8171 57.6766C54.5034 57.6766 55.0942 58.3054 54.8534 58.948C54.7828 59.1366 54.69 59.3188 54.5628 59.4963C54.1761 60.0376 53.4826 60.4908 52.843 60.8116C52.2085 61.1273 51.4698 61.2852 50.627 61.2852Z" fill="url(#paint7_linear_526_21712)"/>
    <path d="M70.681 61.0446C70.2345 61.0446 69.8725 60.6827 69.8725 60.2362V50.3056C69.8725 49.8591 70.2345 49.4972 70.681 49.4972H71.3367C71.7864 49.4972 72.0928 49.9528 71.9232 50.3693L71.5985 51.1664C71.5839 51.2022 71.6103 51.2413 71.6489 51.2413C71.6718 51.2413 71.6921 51.227 71.7003 51.2056C71.911 50.6506 72.2834 50.1989 72.8173 49.8505C73.3627 49.4947 73.9774 49.3167 74.6615 49.3167C74.7904 49.3167 74.9516 49.3193 75.1449 49.3243C75.3944 49.3307 75.5837 49.5367 75.5837 49.7862V50.7365C75.5837 50.9469 75.383 51.1128 75.1747 51.0834C75.0118 51.056 74.8446 51.0715 74.668 51.0796C74.5691 51.0841 74.4708 51.1016 74.3784 51.1371C73.9116 51.3164 73.6356 51.4294 73.2864 51.6911C72.8648 52.007 72.8399 52.1248 72.5585 52.4173C72.5216 52.4556 72.4877 52.4969 72.457 52.5404C72.2621 52.8165 72.0018 53.1024 71.7995 53.5216C71.7421 53.6404 71.7257 53.7741 71.7397 53.9052L72.1104 57.375L72.4068 60.1503C72.4579 60.6281 72.0834 61.0446 71.6029 61.0446H70.681Z" fill="url(#paint8_linear_526_21712)"/>
    <path d="M53.319 43.3725C52.2184 43.3725 51.269 43.1269 50.4708 42.6357C49.6776 42.1395 49.0653 41.4479 48.634 40.5608C48.2076 39.6687 47.9945 38.6312 47.9945 37.4484C47.9945 36.2656 48.2076 35.2231 48.634 34.321C49.0653 33.4138 49.6652 32.7071 50.4336 32.2009C51.207 31.6897 52.1093 31.4341 53.1405 31.4341C53.7354 31.4341 54.3229 31.5343 54.9029 31.7348C55.483 31.9353 56.011 32.2611 56.4869 32.7121C56.9628 33.1582 57.3421 33.7496 57.6247 34.4864C57.9072 35.2231 58.0485 36.1303 58.0485 37.2078C58.0485 37.623 57.7119 37.9596 57.2967 37.9596H50.0107C49.5871 37.9596 49.2438 37.6163 49.2438 37.1928C49.2438 36.7693 49.5871 36.426 50.0107 36.426L55.2301 36.4259C55.6766 36.4259 56.0542 36.0583 55.9483 35.6245C55.8795 35.3428 55.7731 35.0842 55.6343 34.8091C55.3815 34.2979 54.8925 33.8921 54.4216 33.5964C53.9556 33.3007 53.7469 33.2893 53.1405 33.2893C52.4415 33.2893 51.9961 33.3943 51.3897 33.7985C51.0137 34.0492 50.7063 34.4549 50.4336 35.0112C50.2315 35.6175 50.177 35.8196 49.9748 36.628L49.7862 37.5414C49.762 37.6584 49.7642 37.7793 49.7918 37.8955C49.9895 38.7275 50.1009 39.2945 50.3791 39.8618C50.6815 40.4632 51.0564 40.7587 51.5918 41.0744C52.1273 41.3852 52.61 41.4786 53.319 41.4786C53.78 41.4786 54.2519 41.4068 54.6237 41.2765C55.0005 41.1412 55.1595 41.1379 55.4322 40.8723C55.5336 40.7717 55.6416 40.6772 55.745 40.5776C56.0488 40.2849 56.4876 40.0632 56.8934 40.1784L57.0755 40.2301C57.5116 40.3538 57.7684 40.8185 57.5465 41.2136C57.3898 41.4926 57.1977 41.7511 56.9703 41.9892C56.5489 42.4252 56.0283 42.766 55.4086 43.0116C54.7889 43.2522 54.0924 43.3725 53.319 43.3725Z" fill="url(#paint9_linear_526_21712)"/>
    <path d="M62.4732 61.3153C61.3726 61.3153 60.4232 61.0697 59.6251 60.5785C58.8319 60.0823 58.2196 59.3907 57.7883 58.5036C57.3619 57.6115 57.1487 56.574 57.1487 55.3912C57.1487 54.2084 57.3619 53.1659 57.7883 52.2638C58.2196 51.3566 58.8195 50.6499 59.5879 50.1437C60.3613 49.6325 61.2636 49.3769 62.2948 49.3769C62.8897 49.3769 63.4771 49.4771 64.0572 49.6776C64.6372 49.8781 65.1652 50.2039 65.6412 50.6549C66.1171 51.101 66.4963 51.6924 66.7789 52.4291C67.0615 53.1659 67.2028 54.0731 67.2028 55.1506C67.2028 55.5658 66.8662 55.9024 66.451 55.9024H59.1649C58.7414 55.9024 58.3981 55.5591 58.3981 55.1356C58.3981 54.7121 58.7414 54.3688 59.1649 54.3688L64.3843 54.3687C64.8309 54.3687 65.2085 54.0011 65.1026 53.5673C65.0338 53.2856 64.9273 53.027 64.7886 52.7519C64.5357 52.2407 64.0468 51.8349 63.5758 51.5392C63.1098 51.2435 62.9011 51.2321 62.2948 51.2321C61.5957 51.2321 61.1504 51.3371 60.544 51.7413C60.1679 51.992 59.8606 52.3977 59.5879 52.954C59.3858 53.5603 59.3312 53.7624 59.1291 54.5708L58.9404 55.4842C58.9163 55.6012 58.9184 55.7221 58.946 55.8383C59.1437 56.6703 59.2551 57.2373 59.5334 57.8046C59.8358 58.406 60.2107 58.7015 60.7461 59.0172C61.2815 59.3279 61.7643 59.4214 62.4732 59.4214C62.9343 59.4214 63.4061 59.3496 63.778 59.2193C64.1547 59.084 64.3138 59.0807 64.5865 58.8151C64.6878 58.7145 64.7959 58.62 64.8993 58.5204C65.2031 58.2277 65.6419 58.006 66.0477 58.1212L66.2298 58.1729C66.6658 58.2966 66.9227 58.7613 66.7007 59.1564C66.5441 59.4354 66.352 59.6939 66.1245 59.932C65.7031 60.368 65.1826 60.7088 64.5629 60.9544C63.9432 61.195 63.2466 61.3153 62.4732 61.3153Z" fill="url(#paint10_linear_526_21712)"/>
    <path d="M12.6638 69.8248C9.43092 67.3556 6.19801 62.2117 5.8748 58.1996C5.8748 58.1996 5.12051 52.2323 5.01305 45.1645C5.01955 40.7995 5.27112 36.4384 5.76733 32.0989C6.51918 27.5558 8.96889 23.4257 12.6638 20.4737C12.6638 20.4737 17.7281 16.976 23.9782 13.375C27.8514 11.185 31.8443 9.19321 35.9394 7.40813C38.1241 6.54663 40.4724 6.12629 42.8358 6.17372C45.196 6.12629 47.5419 6.53583 49.7323 7.37727C53.8278 9.16081 57.8207 11.1526 61.6933 13.3441C67.9432 16.8422 73.0078 20.4428 73.0078 20.4428C74.5151 21.5943 76.0225 23.327 77.2458 25.2555C77.6866 25.9504 77.0274 26.7602 76.1905 26.5906L72.2449 25.7896C71.7861 25.6967 71.3783 25.4549 71.068 25.1213C70.5208 24.5328 69.954 24.0107 69.3872 23.5815C69.3872 23.5815 64.9303 20.439 59.4304 17.3863C56.0227 15.474 52.5089 13.7355 48.9048 12.1788C46.9773 11.4445 44.9127 11.087 42.8358 11.1283C40.7557 11.087 38.6895 11.4538 36.7669 12.2058C33.1632 13.7637 29.6498 15.5017 26.241 17.4133C20.7412 20.5558 16.2842 23.6085 16.2842 23.6085C13.033 26.1849 10.8772 29.789 10.2153 33.754C9.77895 37.5413 9.55751 41.3475 9.55181 45.1568C9.64665 51.3253 10.3102 56.5329 10.3102 56.5329C10.5947 60.0344 13.4397 64.5235 16.2842 66.6784C19.4834 68.8839 22.8071 70.9219 26.241 72.7837C29.649 74.6965 33.1628 76.4345 36.7669 77.9913C38.6923 78.7352 40.7566 79.1015 42.8358 79.0688C44.9155 79.1102 46.9818 78.7433 48.9048 77.9913C52.5085 76.4337 56.0219 74.6953 59.4304 72.7837C64.9303 69.6412 69.3872 66.6784 69.3872 66.6784C70.2222 66.0167 70.9849 65.2875 71.6686 64.5015C71.9133 64.22 72.2265 63.9975 72.587 63.8703L76.9374 62.3335C77.7541 62.0451 78.5314 62.7836 78.1538 63.5278C76.9336 65.9319 75.1873 68.0833 73.0078 69.8248C73.0078 69.8248 67.9432 73.2199 61.6933 76.8205C57.8199 79.0107 53.8274 81.0025 49.7323 82.7875C47.5472 83.6491 45.1993 84.0694 42.8358 84.022C40.4732 84.0595 38.1269 83.6396 35.9394 82.7875C31.8435 81.0038 27.8506 79.012 23.9782 76.8205C20.0761 74.6868 16.2989 72.3515 12.6638 69.8248Z" fill="url(#paint11_linear_526_21712)"/>
    <defs>
        <linearGradient id="paint0_linear_526_21712" x1="46.2757" y1="27.7654" x2="46.2757" y2="61.3153" gradientUnits="userSpaceOnUse">
            <stop offset="0.182292" stop-color="#226699"/>
            <stop offset="1" stop-color="#009B78"/>
        </linearGradient>
        <linearGradient id="paint1_linear_526_21712" x1="46.2757" y1="27.7654" x2="46.2757" y2="61.3153" gradientUnits="userSpaceOnUse">
            <stop offset="0.182292" stop-color="#226699"/>
            <stop offset="1" stop-color="#009B78"/>
        </linearGradient>
        <linearGradient id="paint2_linear_526_21712" x1="46.2757" y1="27.7654" x2="46.2757" y2="61.3153" gradientUnits="userSpaceOnUse">
            <stop offset="0.182292" stop-color="#226699"/>
            <stop offset="1" stop-color="#009B78"/>
        </linearGradient>
        <linearGradient id="paint3_linear_526_21712" x1="46.2757" y1="27.7654" x2="46.2757" y2="61.3153" gradientUnits="userSpaceOnUse">
            <stop offset="0.182292" stop-color="#226699"/>
            <stop offset="1" stop-color="#009B78"/>
        </linearGradient>
        <linearGradient id="paint4_linear_526_21712" x1="46.2757" y1="27.7654" x2="46.2757" y2="61.3153" gradientUnits="userSpaceOnUse">
            <stop offset="0.182292" stop-color="#226699"/>
            <stop offset="1" stop-color="#009B78"/>
        </linearGradient>
        <linearGradient id="paint5_linear_526_21712" x1="46.2757" y1="27.7654" x2="46.2757" y2="61.3153" gradientUnits="userSpaceOnUse">
            <stop offset="0.182292" stop-color="#226699"/>
            <stop offset="1" stop-color="#009B78"/>
        </linearGradient>
        <linearGradient id="paint6_linear_526_21712" x1="46.2757" y1="27.7654" x2="46.2757" y2="61.3153" gradientUnits="userSpaceOnUse">
            <stop offset="0.182292" stop-color="#226699"/>
            <stop offset="1" stop-color="#009B78"/>
        </linearGradient>
        <linearGradient id="paint7_linear_526_21712" x1="46.2757" y1="27.7654" x2="46.2757" y2="61.3153" gradientUnits="userSpaceOnUse">
            <stop offset="0.182292" stop-color="#226699"/>
            <stop offset="1" stop-color="#009B78"/>
        </linearGradient>
        <linearGradient id="paint8_linear_526_21712" x1="46.2757" y1="27.7654" x2="46.2757" y2="61.3153" gradientUnits="userSpaceOnUse">
            <stop offset="0.182292" stop-color="#226699"/>
            <stop offset="1" stop-color="#009B78"/>
        </linearGradient>
        <linearGradient id="paint9_linear_526_21712" x1="46.2757" y1="27.7654" x2="46.2757" y2="61.3153" gradientUnits="userSpaceOnUse">
            <stop offset="0.182292" stop-color="#226699"/>
            <stop offset="1" stop-color="#009B78"/>
        </linearGradient>
        <linearGradient id="paint10_linear_526_21712" x1="46.2757" y1="27.7654" x2="46.2757" y2="61.3153" gradientUnits="userSpaceOnUse">
            <stop offset="0.182292" stop-color="#226699"/>
            <stop offset="1" stop-color="#009B78"/>
        </linearGradient>
        <linearGradient id="paint11_linear_526_21712" x1="41.6325" y1="84.0256" x2="41.6325" y2="6.17002" gradientUnits="userSpaceOnUse">
            <stop stop-color="#226699"/>
            <stop offset="1" stop-color="#222765"/>
        </linearGradient>
    </defs>
</svg>
