<svg width="24" height="18" viewBox="0 0 24 18" fill="none" xmlns="http://www.w3.org/2000/svg">
    <path fill-rule="evenodd" clip-rule="evenodd" d="M1.71429 0.428589H22.2857C22.7403 0.428589 23.1763 0.609201 23.498 0.93063C23.8194 1.25223 24 1.68829 24 2.14287V15.8572C24 16.3117 23.8194 16.7478 23.498 17.0694C23.1764 17.3908 22.7403 17.5714 22.2857 17.5714H1.71429C1.25971 17.5714 0.82366 17.3908 0.502041 17.0694C0.180612 16.7478 0 16.3117 0 15.8572V2.14287C0 1.6883 0.180612 1.25225 0.502041 0.93063C0.823641 0.609201 1.2597 0.428589 1.71429 0.428589ZM1.71429 2.14287V15.8572H22.2857V2.14287H1.71429ZM15.6365 12.6366C14.6721 13.6011 13.364 14.1429 12 14.1429C10.636 14.1429 9.32797 13.601 8.36346 12.6366C7.39895 11.6721 6.85714 10.364 6.85714 9.00002C6.85714 7.63603 7.399 6.32798 8.36346 5.36348C9.32792 4.39897 10.636 3.85716 12 3.85716C13.364 3.85716 14.672 4.39902 15.6365 5.36348C16.601 6.32794 17.1429 7.63603 17.1429 9.00002C17.1429 10.364 16.601 11.672 15.6365 12.6366ZM14.4243 6.57572C13.7814 5.93267 12.9094 5.57145 12 5.57145C11.0906 5.57145 10.2186 5.93267 9.57571 6.57572C8.93265 7.21858 8.57143 8.09066 8.57143 9.00002C8.57143 9.90937 8.93265 10.7815 9.57571 11.4243C10.2186 12.0674 11.0906 12.4286 12 12.4286C12.9094 12.4286 13.7814 12.0674 14.4243 11.4243C15.0673 10.7815 15.4286 9.90937 15.4286 9.00002C15.4286 8.09066 15.0673 7.21858 14.4243 6.57572ZM18.8571 8.14287H20.5714V9.85716H18.8571V8.14287ZM5.14286 8.14287H3.42857V9.85716H5.14286V8.14287Z" fill="#222765"/>
</svg>
