<svg width="18" height="18" viewBox="0 0 18 18" fill="none" xmlns="http://www.w3.org/2000/svg">
    <path d="M7.30749 4.21986C7.94956 2.61918 8.2706 1.81883 8.79218 1.70791C8.92932 1.67874 9.07107 1.67874 9.20821 1.70791C9.72979 1.81883 10.0508 2.61918 10.6929 4.21986C11.058 5.13014 11.2406 5.58528 11.5822 5.89485C11.678 5.98168 11.782 6.05901 11.8928 6.12576C12.2876 6.36374 12.7805 6.40788 13.7663 6.49617C15.4351 6.64562 16.2695 6.72034 16.5243 7.19609C16.577 7.29462 16.6129 7.4013 16.6304 7.51169C16.7149 8.04472 16.1015 8.60278 14.8747 9.7189L14.534 10.0288C13.9605 10.5506 13.6737 10.8115 13.5078 11.1372C13.4083 11.3325 13.3416 11.5428 13.3104 11.7598C13.2582 12.1215 13.3422 12.5 13.5102 13.2569L13.5702 13.5274C13.8714 14.8849 14.022 15.5637 13.834 15.8973C13.6651 16.197 13.3541 16.3889 13.0105 16.4053C12.6279 16.4236 12.089 15.9844 11.011 15.106C10.3008 14.5273 9.94567 14.2379 9.55146 14.1249C9.19121 14.0216 8.80918 14.0216 8.44894 14.1249C8.05473 14.2379 7.69962 14.5273 6.98941 15.106C5.91144 15.9844 5.37245 16.4236 4.98993 16.4053C4.64633 16.3889 4.33528 16.197 4.16642 15.8973C3.97842 15.5637 4.12902 14.8849 4.43022 13.5274L4.49023 13.2569C4.65818 12.5 4.74216 12.1215 4.69004 11.7598C4.65878 11.5428 4.59207 11.3325 4.49257 11.1372C4.32669 10.8115 4.03992 10.5506 3.46637 10.0288L3.1257 9.7189C1.89891 8.60278 1.28552 8.04472 1.36999 7.51169C1.38749 7.4013 1.42337 7.29462 1.47614 7.19608C1.73094 6.72034 2.56532 6.64562 4.23408 6.49617C5.21986 6.40788 5.71276 6.36374 6.1076 6.12576C6.21834 6.05901 6.32236 5.98168 6.41818 5.89485C6.75979 5.58528 6.94236 5.13014 7.30749 4.21986Z" fill="#FFAB3A" stroke="#FFAB3A" stroke-width="2"/>
</svg>
