<svg width="254" height="629" viewBox="0 0 254 629" fill="none" xmlns="http://www.w3.org/2000/svg">
    <path d="M89 68.7881C88.2 5.18815 9.33333 -3.04519 -30 0.788144V624.788C-15.6667 630.788 15.9 633.288 27.5 595.288C42 547.788 107.5 510.288 120.5 506.288C133.5 502.288 155.36 495.399 207.5 451.788C260.243 407.673 253.744 371.334 253 351.788C252.363 335.037 236.5 284.788 157 236.288C77.5 187.788 90 148.288 89 68.7881Z" fill="#E7F0FF"/>
    <path opacity="0.3" d="M75.6008 83.4895C74.8505 23.8639 0.887653 16.1451 -36 19.7389V604.745C-22.5579 610.37 7.04602 612.713 17.9248 577.088C31.5232 532.556 92.9505 497.4 105.142 493.65C117.334 489.9 137.834 483.441 186.733 442.555C236.197 401.197 230.101 367.129 229.404 348.805C228.806 333.1 213.929 285.991 139.373 240.522C64.8158 195.053 76.5386 158.021 75.6008 83.4895Z" fill="url(#paint0_linear_0_1)"/>
    <defs>
        <linearGradient id="paint0_linear_0_1" x1="97" y1="19" x2="97" y2="608" gradientUnits="userSpaceOnUse">
            <stop stop-color="#226699"/>
            <stop offset="1" stop-color="#222765"/>
        </linearGradient>
    </defs>
</svg>
